%TF.GenerationSoftware,KiCad,Pcbnew,5.1.10-88a1d61d58~88~ubuntu20.04.1*%
%TF.CreationDate,2021-10-09T14:41:35+11:00*%
%TF.ProjectId,reva,72657661-2e6b-4696-9361-645f70636258,rev?*%
%TF.SameCoordinates,Original*%
%TF.FileFunction,Paste,Top*%
%TF.FilePolarity,Positive*%
%FSLAX46Y46*%
G04 Gerber Fmt 4.6, Leading zero omitted, Abs format (unit mm)*
G04 Created by KiCad (PCBNEW 5.1.10-88a1d61d58~88~ubuntu20.04.1) date 2021-10-09 14:41:35*
%MOMM*%
%LPD*%
G01*
G04 APERTURE LIST*
%ADD10R,2.000000X0.900000*%
%ADD11R,0.900000X2.000000*%
%ADD12R,5.000000X5.000000*%
%ADD13R,3.250000X1.350000*%
%ADD14R,0.950000X1.350000*%
G04 APERTURE END LIST*
%TO.C,C4*%
G36*
G01*
X170850000Y-101074999D02*
X170850000Y-101925001D01*
G75*
G02*
X170600001Y-102175000I-249999J0D01*
G01*
X169524999Y-102175000D01*
G75*
G02*
X169275000Y-101925001I0J249999D01*
G01*
X169275000Y-101074999D01*
G75*
G02*
X169524999Y-100825000I249999J0D01*
G01*
X170600001Y-100825000D01*
G75*
G02*
X170850000Y-101074999I0J-249999D01*
G01*
G37*
G36*
G01*
X173725000Y-101074999D02*
X173725000Y-101925001D01*
G75*
G02*
X173475001Y-102175000I-249999J0D01*
G01*
X172399999Y-102175000D01*
G75*
G02*
X172150000Y-101925001I0J249999D01*
G01*
X172150000Y-101074999D01*
G75*
G02*
X172399999Y-100825000I249999J0D01*
G01*
X173475001Y-100825000D01*
G75*
G02*
X173725000Y-101074999I0J-249999D01*
G01*
G37*
%TD*%
%TO.C,C3*%
G36*
G01*
X163600000Y-97574999D02*
X163600000Y-98425001D01*
G75*
G02*
X163350001Y-98675000I-249999J0D01*
G01*
X162274999Y-98675000D01*
G75*
G02*
X162025000Y-98425001I0J249999D01*
G01*
X162025000Y-97574999D01*
G75*
G02*
X162274999Y-97325000I249999J0D01*
G01*
X163350001Y-97325000D01*
G75*
G02*
X163600000Y-97574999I0J-249999D01*
G01*
G37*
G36*
G01*
X166475000Y-97574999D02*
X166475000Y-98425001D01*
G75*
G02*
X166225001Y-98675000I-249999J0D01*
G01*
X165149999Y-98675000D01*
G75*
G02*
X164900000Y-98425001I0J249999D01*
G01*
X164900000Y-97574999D01*
G75*
G02*
X165149999Y-97325000I249999J0D01*
G01*
X166225001Y-97325000D01*
G75*
G02*
X166475000Y-97574999I0J-249999D01*
G01*
G37*
%TD*%
D10*
%TO.C,U1*%
X137500000Y-105255000D03*
X137500000Y-103985000D03*
X137500000Y-102715000D03*
X137500000Y-101445000D03*
X137500000Y-100175000D03*
X137500000Y-98905000D03*
X137500000Y-97635000D03*
X137500000Y-96365000D03*
X137500000Y-95095000D03*
X137500000Y-93825000D03*
X137500000Y-92555000D03*
X137500000Y-91285000D03*
X137500000Y-90015000D03*
X137500000Y-88745000D03*
D11*
X140285000Y-87745000D03*
X141555000Y-87745000D03*
X142825000Y-87745000D03*
X144095000Y-87745000D03*
X145365000Y-87745000D03*
X146635000Y-87745000D03*
X147905000Y-87745000D03*
X149175000Y-87745000D03*
X150445000Y-87745000D03*
X151715000Y-87745000D03*
D10*
X154500000Y-88745000D03*
X154500000Y-90015000D03*
X154500000Y-91285000D03*
X154500000Y-92555000D03*
X154500000Y-93825000D03*
X154500000Y-95095000D03*
X154500000Y-96365000D03*
X154500000Y-97635000D03*
X154500000Y-98905000D03*
X154500000Y-100175000D03*
X154500000Y-101445000D03*
X154500000Y-102715000D03*
X154500000Y-103985000D03*
X154500000Y-105255000D03*
D12*
X147000000Y-97755000D03*
%TD*%
%TO.C,R4*%
G36*
G01*
X134374999Y-122450000D02*
X135625001Y-122450000D01*
G75*
G02*
X135875000Y-122699999I0J-249999D01*
G01*
X135875000Y-123500001D01*
G75*
G02*
X135625001Y-123750000I-249999J0D01*
G01*
X134374999Y-123750000D01*
G75*
G02*
X134125000Y-123500001I0J249999D01*
G01*
X134125000Y-122699999D01*
G75*
G02*
X134374999Y-122450000I249999J0D01*
G01*
G37*
G36*
G01*
X134374999Y-119350000D02*
X135625001Y-119350000D01*
G75*
G02*
X135875000Y-119599999I0J-249999D01*
G01*
X135875000Y-120400001D01*
G75*
G02*
X135625001Y-120650000I-249999J0D01*
G01*
X134374999Y-120650000D01*
G75*
G02*
X134125000Y-120400001I0J249999D01*
G01*
X134125000Y-119599999D01*
G75*
G02*
X134374999Y-119350000I249999J0D01*
G01*
G37*
%TD*%
%TO.C,D2*%
G36*
G01*
X138625000Y-120725000D02*
X137375000Y-120725000D01*
G75*
G02*
X137125000Y-120475000I0J250000D01*
G01*
X137125000Y-119550000D01*
G75*
G02*
X137375000Y-119300000I250000J0D01*
G01*
X138625000Y-119300000D01*
G75*
G02*
X138875000Y-119550000I0J-250000D01*
G01*
X138875000Y-120475000D01*
G75*
G02*
X138625000Y-120725000I-250000J0D01*
G01*
G37*
G36*
G01*
X138625000Y-123700000D02*
X137375000Y-123700000D01*
G75*
G02*
X137125000Y-123450000I0J250000D01*
G01*
X137125000Y-122525000D01*
G75*
G02*
X137375000Y-122275000I250000J0D01*
G01*
X138625000Y-122275000D01*
G75*
G02*
X138875000Y-122525000I0J-250000D01*
G01*
X138875000Y-123450000D01*
G75*
G02*
X138625000Y-123700000I-250000J0D01*
G01*
G37*
%TD*%
%TO.C,R2*%
G36*
G01*
X158125001Y-88100000D02*
X156874999Y-88100000D01*
G75*
G02*
X156625000Y-87850001I0J249999D01*
G01*
X156625000Y-87049999D01*
G75*
G02*
X156874999Y-86800000I249999J0D01*
G01*
X158125001Y-86800000D01*
G75*
G02*
X158375000Y-87049999I0J-249999D01*
G01*
X158375000Y-87850001D01*
G75*
G02*
X158125001Y-88100000I-249999J0D01*
G01*
G37*
G36*
G01*
X158125001Y-91200000D02*
X156874999Y-91200000D01*
G75*
G02*
X156625000Y-90950001I0J249999D01*
G01*
X156625000Y-90149999D01*
G75*
G02*
X156874999Y-89900000I249999J0D01*
G01*
X158125001Y-89900000D01*
G75*
G02*
X158375000Y-90149999I0J-249999D01*
G01*
X158375000Y-90950001D01*
G75*
G02*
X158125001Y-91200000I-249999J0D01*
G01*
G37*
%TD*%
%TO.C,D1*%
G36*
G01*
X159875000Y-89775000D02*
X161125000Y-89775000D01*
G75*
G02*
X161375000Y-90025000I0J-250000D01*
G01*
X161375000Y-90950000D01*
G75*
G02*
X161125000Y-91200000I-250000J0D01*
G01*
X159875000Y-91200000D01*
G75*
G02*
X159625000Y-90950000I0J250000D01*
G01*
X159625000Y-90025000D01*
G75*
G02*
X159875000Y-89775000I250000J0D01*
G01*
G37*
G36*
G01*
X159875000Y-86800000D02*
X161125000Y-86800000D01*
G75*
G02*
X161375000Y-87050000I0J-250000D01*
G01*
X161375000Y-87975000D01*
G75*
G02*
X161125000Y-88225000I-250000J0D01*
G01*
X159875000Y-88225000D01*
G75*
G02*
X159625000Y-87975000I0J250000D01*
G01*
X159625000Y-87050000D01*
G75*
G02*
X159875000Y-86800000I250000J0D01*
G01*
G37*
%TD*%
D13*
%TO.C,IC1*%
X166000000Y-88150000D03*
D14*
X168300000Y-94850000D03*
X166000000Y-94850000D03*
X163700000Y-94850000D03*
%TD*%
%TO.C,R3*%
G36*
G01*
X169400000Y-108225001D02*
X169400000Y-106974999D01*
G75*
G02*
X169649999Y-106725000I249999J0D01*
G01*
X170450001Y-106725000D01*
G75*
G02*
X170700000Y-106974999I0J-249999D01*
G01*
X170700000Y-108225001D01*
G75*
G02*
X170450001Y-108475000I-249999J0D01*
G01*
X169649999Y-108475000D01*
G75*
G02*
X169400000Y-108225001I0J249999D01*
G01*
G37*
G36*
G01*
X166300000Y-108225001D02*
X166300000Y-106974999D01*
G75*
G02*
X166549999Y-106725000I249999J0D01*
G01*
X167350001Y-106725000D01*
G75*
G02*
X167600000Y-106974999I0J-249999D01*
G01*
X167600000Y-108225001D01*
G75*
G02*
X167350001Y-108475000I-249999J0D01*
G01*
X166549999Y-108475000D01*
G75*
G02*
X166300000Y-108225001I0J249999D01*
G01*
G37*
%TD*%
%TO.C,U2*%
G36*
G01*
X163500000Y-110245000D02*
X163500000Y-109945000D01*
G75*
G02*
X163650000Y-109795000I150000J0D01*
G01*
X165300000Y-109795000D01*
G75*
G02*
X165450000Y-109945000I0J-150000D01*
G01*
X165450000Y-110245000D01*
G75*
G02*
X165300000Y-110395000I-150000J0D01*
G01*
X163650000Y-110395000D01*
G75*
G02*
X163500000Y-110245000I0J150000D01*
G01*
G37*
G36*
G01*
X163500000Y-111515000D02*
X163500000Y-111215000D01*
G75*
G02*
X163650000Y-111065000I150000J0D01*
G01*
X165300000Y-111065000D01*
G75*
G02*
X165450000Y-111215000I0J-150000D01*
G01*
X165450000Y-111515000D01*
G75*
G02*
X165300000Y-111665000I-150000J0D01*
G01*
X163650000Y-111665000D01*
G75*
G02*
X163500000Y-111515000I0J150000D01*
G01*
G37*
G36*
G01*
X163500000Y-112785000D02*
X163500000Y-112485000D01*
G75*
G02*
X163650000Y-112335000I150000J0D01*
G01*
X165300000Y-112335000D01*
G75*
G02*
X165450000Y-112485000I0J-150000D01*
G01*
X165450000Y-112785000D01*
G75*
G02*
X165300000Y-112935000I-150000J0D01*
G01*
X163650000Y-112935000D01*
G75*
G02*
X163500000Y-112785000I0J150000D01*
G01*
G37*
G36*
G01*
X163500000Y-114055000D02*
X163500000Y-113755000D01*
G75*
G02*
X163650000Y-113605000I150000J0D01*
G01*
X165300000Y-113605000D01*
G75*
G02*
X165450000Y-113755000I0J-150000D01*
G01*
X165450000Y-114055000D01*
G75*
G02*
X165300000Y-114205000I-150000J0D01*
G01*
X163650000Y-114205000D01*
G75*
G02*
X163500000Y-114055000I0J150000D01*
G01*
G37*
G36*
G01*
X158550000Y-114055000D02*
X158550000Y-113755000D01*
G75*
G02*
X158700000Y-113605000I150000J0D01*
G01*
X160350000Y-113605000D01*
G75*
G02*
X160500000Y-113755000I0J-150000D01*
G01*
X160500000Y-114055000D01*
G75*
G02*
X160350000Y-114205000I-150000J0D01*
G01*
X158700000Y-114205000D01*
G75*
G02*
X158550000Y-114055000I0J150000D01*
G01*
G37*
G36*
G01*
X158550000Y-112785000D02*
X158550000Y-112485000D01*
G75*
G02*
X158700000Y-112335000I150000J0D01*
G01*
X160350000Y-112335000D01*
G75*
G02*
X160500000Y-112485000I0J-150000D01*
G01*
X160500000Y-112785000D01*
G75*
G02*
X160350000Y-112935000I-150000J0D01*
G01*
X158700000Y-112935000D01*
G75*
G02*
X158550000Y-112785000I0J150000D01*
G01*
G37*
G36*
G01*
X158550000Y-111515000D02*
X158550000Y-111215000D01*
G75*
G02*
X158700000Y-111065000I150000J0D01*
G01*
X160350000Y-111065000D01*
G75*
G02*
X160500000Y-111215000I0J-150000D01*
G01*
X160500000Y-111515000D01*
G75*
G02*
X160350000Y-111665000I-150000J0D01*
G01*
X158700000Y-111665000D01*
G75*
G02*
X158550000Y-111515000I0J150000D01*
G01*
G37*
G36*
G01*
X158550000Y-110245000D02*
X158550000Y-109945000D01*
G75*
G02*
X158700000Y-109795000I150000J0D01*
G01*
X160350000Y-109795000D01*
G75*
G02*
X160500000Y-109945000I0J-150000D01*
G01*
X160500000Y-110245000D01*
G75*
G02*
X160350000Y-110395000I-150000J0D01*
G01*
X158700000Y-110395000D01*
G75*
G02*
X158550000Y-110245000I0J150000D01*
G01*
G37*
%TD*%
%TO.C,R1*%
G36*
G01*
X157624999Y-103400000D02*
X158875001Y-103400000D01*
G75*
G02*
X159125000Y-103649999I0J-249999D01*
G01*
X159125000Y-104450001D01*
G75*
G02*
X158875001Y-104700000I-249999J0D01*
G01*
X157624999Y-104700000D01*
G75*
G02*
X157375000Y-104450001I0J249999D01*
G01*
X157375000Y-103649999D01*
G75*
G02*
X157624999Y-103400000I249999J0D01*
G01*
G37*
G36*
G01*
X157624999Y-100300000D02*
X158875001Y-100300000D01*
G75*
G02*
X159125000Y-100549999I0J-249999D01*
G01*
X159125000Y-101350001D01*
G75*
G02*
X158875001Y-101600000I-249999J0D01*
G01*
X157624999Y-101600000D01*
G75*
G02*
X157375000Y-101350001I0J249999D01*
G01*
X157375000Y-100549999D01*
G75*
G02*
X157624999Y-100300000I249999J0D01*
G01*
G37*
%TD*%
%TO.C,C2*%
G36*
G01*
X161650003Y-101600000D02*
X160349997Y-101600000D01*
G75*
G02*
X160100000Y-101350003I0J249997D01*
G01*
X160100000Y-100524997D01*
G75*
G02*
X160349997Y-100275000I249997J0D01*
G01*
X161650003Y-100275000D01*
G75*
G02*
X161900000Y-100524997I0J-249997D01*
G01*
X161900000Y-101350003D01*
G75*
G02*
X161650003Y-101600000I-249997J0D01*
G01*
G37*
G36*
G01*
X161650003Y-104725000D02*
X160349997Y-104725000D01*
G75*
G02*
X160100000Y-104475003I0J249997D01*
G01*
X160100000Y-103649997D01*
G75*
G02*
X160349997Y-103400000I249997J0D01*
G01*
X161650003Y-103400000D01*
G75*
G02*
X161900000Y-103649997I0J-249997D01*
G01*
X161900000Y-104475003D01*
G75*
G02*
X161650003Y-104725000I-249997J0D01*
G01*
G37*
%TD*%
%TO.C,C1*%
G36*
G01*
X164650003Y-101600000D02*
X163349997Y-101600000D01*
G75*
G02*
X163100000Y-101350003I0J249997D01*
G01*
X163100000Y-100524997D01*
G75*
G02*
X163349997Y-100275000I249997J0D01*
G01*
X164650003Y-100275000D01*
G75*
G02*
X164900000Y-100524997I0J-249997D01*
G01*
X164900000Y-101350003D01*
G75*
G02*
X164650003Y-101600000I-249997J0D01*
G01*
G37*
G36*
G01*
X164650003Y-104725000D02*
X163349997Y-104725000D01*
G75*
G02*
X163100000Y-104475003I0J249997D01*
G01*
X163100000Y-103649997D01*
G75*
G02*
X163349997Y-103400000I249997J0D01*
G01*
X164650003Y-103400000D01*
G75*
G02*
X164900000Y-103649997I0J-249997D01*
G01*
X164900000Y-104475003D01*
G75*
G02*
X164650003Y-104725000I-249997J0D01*
G01*
G37*
%TD*%
M02*
