%TF.GenerationSoftware,KiCad,Pcbnew,5.1.10-88a1d61d58~88~ubuntu20.04.1*%
%TF.CreationDate,2021-10-09T14:41:35+11:00*%
%TF.ProjectId,reva,72657661-2e6b-4696-9361-645f70636258,rev?*%
%TF.SameCoordinates,Original*%
%TF.FileFunction,Copper,L1,Top*%
%TF.FilePolarity,Positive*%
%FSLAX46Y46*%
G04 Gerber Fmt 4.6, Leading zero omitted, Abs format (unit mm)*
G04 Created by KiCad (PCBNEW 5.1.10-88a1d61d58~88~ubuntu20.04.1) date 2021-10-09 14:41:35*
%MOMM*%
%LPD*%
G01*
G04 APERTURE LIST*
%TA.AperFunction,ComponentPad*%
%ADD10C,1.500000*%
%TD*%
%TA.AperFunction,SMDPad,CuDef*%
%ADD11R,2.000000X0.900000*%
%TD*%
%TA.AperFunction,SMDPad,CuDef*%
%ADD12R,0.900000X2.000000*%
%TD*%
%TA.AperFunction,SMDPad,CuDef*%
%ADD13R,5.000000X5.000000*%
%TD*%
%TA.AperFunction,SMDPad,CuDef*%
%ADD14C,2.000000*%
%TD*%
%TA.AperFunction,SMDPad,CuDef*%
%ADD15R,1.000000X1.500000*%
%TD*%
%TA.AperFunction,SMDPad,CuDef*%
%ADD16R,3.250000X1.350000*%
%TD*%
%TA.AperFunction,SMDPad,CuDef*%
%ADD17R,0.950000X1.350000*%
%TD*%
%TA.AperFunction,ComponentPad*%
%ADD18O,1.700000X1.700000*%
%TD*%
%TA.AperFunction,ComponentPad*%
%ADD19R,1.700000X1.700000*%
%TD*%
%TA.AperFunction,ViaPad*%
%ADD20C,0.800000*%
%TD*%
%TA.AperFunction,Conductor*%
%ADD21C,0.250000*%
%TD*%
%TA.AperFunction,Conductor*%
%ADD22C,0.500000*%
%TD*%
%TA.AperFunction,Conductor*%
%ADD23C,1.000000*%
%TD*%
%TA.AperFunction,Conductor*%
%ADD24C,0.254000*%
%TD*%
%TA.AperFunction,Conductor*%
%ADD25C,0.100000*%
%TD*%
G04 APERTURE END LIST*
D10*
%TO.P,S1,2*%
%TO.N,IO04*%
X171300000Y-86600000D03*
%TO.P,S1,4*%
%TO.N,GND*%
X175800000Y-86600000D03*
%TO.P,S1,3*%
X175800000Y-93100000D03*
%TO.P,S1,1*%
%TO.N,IO04*%
X171300000Y-93100000D03*
%TD*%
%TO.P,C4,2*%
%TO.N,GND*%
%TA.AperFunction,SMDPad,CuDef*%
G36*
G01*
X170850000Y-101074999D02*
X170850000Y-101925001D01*
G75*
G02*
X170600001Y-102175000I-249999J0D01*
G01*
X169524999Y-102175000D01*
G75*
G02*
X169275000Y-101925001I0J249999D01*
G01*
X169275000Y-101074999D01*
G75*
G02*
X169524999Y-100825000I249999J0D01*
G01*
X170600001Y-100825000D01*
G75*
G02*
X170850000Y-101074999I0J-249999D01*
G01*
G37*
%TD.AperFunction*%
%TO.P,C4,1*%
%TO.N,VIN*%
%TA.AperFunction,SMDPad,CuDef*%
G36*
G01*
X173725000Y-101074999D02*
X173725000Y-101925001D01*
G75*
G02*
X173475001Y-102175000I-249999J0D01*
G01*
X172399999Y-102175000D01*
G75*
G02*
X172150000Y-101925001I0J249999D01*
G01*
X172150000Y-101074999D01*
G75*
G02*
X172399999Y-100825000I249999J0D01*
G01*
X173475001Y-100825000D01*
G75*
G02*
X173725000Y-101074999I0J-249999D01*
G01*
G37*
%TD.AperFunction*%
%TD*%
%TO.P,C3,2*%
%TO.N,GND*%
%TA.AperFunction,SMDPad,CuDef*%
G36*
G01*
X163600000Y-97574999D02*
X163600000Y-98425001D01*
G75*
G02*
X163350001Y-98675000I-249999J0D01*
G01*
X162274999Y-98675000D01*
G75*
G02*
X162025000Y-98425001I0J249999D01*
G01*
X162025000Y-97574999D01*
G75*
G02*
X162274999Y-97325000I249999J0D01*
G01*
X163350001Y-97325000D01*
G75*
G02*
X163600000Y-97574999I0J-249999D01*
G01*
G37*
%TD.AperFunction*%
%TO.P,C3,1*%
%TO.N,3.3V*%
%TA.AperFunction,SMDPad,CuDef*%
G36*
G01*
X166475000Y-97574999D02*
X166475000Y-98425001D01*
G75*
G02*
X166225001Y-98675000I-249999J0D01*
G01*
X165149999Y-98675000D01*
G75*
G02*
X164900000Y-98425001I0J249999D01*
G01*
X164900000Y-97574999D01*
G75*
G02*
X165149999Y-97325000I249999J0D01*
G01*
X166225001Y-97325000D01*
G75*
G02*
X166475000Y-97574999I0J-249999D01*
G01*
G37*
%TD.AperFunction*%
%TD*%
D11*
%TO.P,U1,38*%
%TO.N,GND*%
X137500000Y-105255000D03*
%TO.P,U1,37*%
%TO.N,IO4*%
X137500000Y-103985000D03*
%TO.P,U1,36*%
%TO.N,IO3*%
X137500000Y-102715000D03*
%TO.P,U1,35*%
%TO.N,TTLRX*%
X137500000Y-101445000D03*
%TO.P,U1,34*%
%TO.N,TTLTX*%
X137500000Y-100175000D03*
%TO.P,U1,33*%
%TO.N,IO21*%
X137500000Y-98905000D03*
%TO.P,U1,32*%
%TO.N,Net-(U1-Pad32)*%
X137500000Y-97635000D03*
%TO.P,U1,31*%
%TO.N,Net-(U1-Pad31)*%
X137500000Y-96365000D03*
%TO.P,U1,30*%
%TO.N,RS485CTRL*%
X137500000Y-95095000D03*
%TO.P,U1,29*%
%TO.N,Net-(U1-Pad29)*%
X137500000Y-93825000D03*
%TO.P,U1,28*%
%TO.N,RS485TX*%
X137500000Y-92555000D03*
%TO.P,U1,27*%
%TO.N,RS485RX*%
X137500000Y-91285000D03*
%TO.P,U1,26*%
%TO.N,IO04*%
X137500000Y-90015000D03*
%TO.P,U1,25*%
%TO.N,IO0*%
X137500000Y-88745000D03*
D12*
%TO.P,U1,24*%
%TO.N,Net-(U1-Pad24)*%
X140285000Y-87745000D03*
%TO.P,U1,23*%
%TO.N,Net-(U1-Pad23)*%
X141555000Y-87745000D03*
%TO.P,U1,22*%
%TO.N,Net-(U1-Pad22)*%
X142825000Y-87745000D03*
%TO.P,U1,21*%
%TO.N,Net-(U1-Pad21)*%
X144095000Y-87745000D03*
%TO.P,U1,20*%
%TO.N,Net-(U1-Pad20)*%
X145365000Y-87745000D03*
%TO.P,U1,19*%
%TO.N,Net-(U1-Pad19)*%
X146635000Y-87745000D03*
%TO.P,U1,18*%
%TO.N,Net-(U1-Pad18)*%
X147905000Y-87745000D03*
%TO.P,U1,17*%
%TO.N,Net-(U1-Pad17)*%
X149175000Y-87745000D03*
%TO.P,U1,16*%
%TO.N,IO13*%
X150445000Y-87745000D03*
%TO.P,U1,15*%
%TO.N,GND*%
X151715000Y-87745000D03*
D11*
%TO.P,U1,14*%
%TO.N,Net-(U1-Pad14)*%
X154500000Y-88745000D03*
%TO.P,U1,13*%
%TO.N,Net-(U1-Pad13)*%
X154500000Y-90015000D03*
%TO.P,U1,12*%
%TO.N,Net-(U1-Pad12)*%
X154500000Y-91285000D03*
%TO.P,U1,11*%
%TO.N,IO1*%
X154500000Y-92555000D03*
%TO.P,U1,10*%
%TO.N,IO2*%
X154500000Y-93825000D03*
%TO.P,U1,9*%
%TO.N,Net-(U1-Pad9)*%
X154500000Y-95095000D03*
%TO.P,U1,8*%
%TO.N,Net-(U1-Pad8)*%
X154500000Y-96365000D03*
%TO.P,U1,7*%
%TO.N,Net-(U1-Pad7)*%
X154500000Y-97635000D03*
%TO.P,U1,6*%
%TO.N,Net-(U1-Pad6)*%
X154500000Y-98905000D03*
%TO.P,U1,5*%
%TO.N,Net-(U1-Pad5)*%
X154500000Y-100175000D03*
%TO.P,U1,4*%
%TO.N,Net-(U1-Pad4)*%
X154500000Y-101445000D03*
%TO.P,U1,3*%
%TO.N,EN*%
X154500000Y-102715000D03*
%TO.P,U1,2*%
%TO.N,3.3V*%
X154500000Y-103985000D03*
%TO.P,U1,1*%
%TO.N,GND*%
X154500000Y-105255000D03*
D13*
%TO.P,U1,39*%
X147000000Y-97755000D03*
%TD*%
%TO.P,R4,2*%
%TO.N,IO21*%
%TA.AperFunction,SMDPad,CuDef*%
G36*
G01*
X134374999Y-122450000D02*
X135625001Y-122450000D01*
G75*
G02*
X135875000Y-122699999I0J-249999D01*
G01*
X135875000Y-123500001D01*
G75*
G02*
X135625001Y-123750000I-249999J0D01*
G01*
X134374999Y-123750000D01*
G75*
G02*
X134125000Y-123500001I0J249999D01*
G01*
X134125000Y-122699999D01*
G75*
G02*
X134374999Y-122450000I249999J0D01*
G01*
G37*
%TD.AperFunction*%
%TO.P,R4,1*%
%TO.N,Net-(D2-Pad2)*%
%TA.AperFunction,SMDPad,CuDef*%
G36*
G01*
X134374999Y-119350000D02*
X135625001Y-119350000D01*
G75*
G02*
X135875000Y-119599999I0J-249999D01*
G01*
X135875000Y-120400001D01*
G75*
G02*
X135625001Y-120650000I-249999J0D01*
G01*
X134374999Y-120650000D01*
G75*
G02*
X134125000Y-120400001I0J249999D01*
G01*
X134125000Y-119599999D01*
G75*
G02*
X134374999Y-119350000I249999J0D01*
G01*
G37*
%TD.AperFunction*%
%TD*%
%TO.P,D2,2*%
%TO.N,Net-(D2-Pad2)*%
%TA.AperFunction,SMDPad,CuDef*%
G36*
G01*
X138625000Y-120725000D02*
X137375000Y-120725000D01*
G75*
G02*
X137125000Y-120475000I0J250000D01*
G01*
X137125000Y-119550000D01*
G75*
G02*
X137375000Y-119300000I250000J0D01*
G01*
X138625000Y-119300000D01*
G75*
G02*
X138875000Y-119550000I0J-250000D01*
G01*
X138875000Y-120475000D01*
G75*
G02*
X138625000Y-120725000I-250000J0D01*
G01*
G37*
%TD.AperFunction*%
%TO.P,D2,1*%
%TO.N,GND*%
%TA.AperFunction,SMDPad,CuDef*%
G36*
G01*
X138625000Y-123700000D02*
X137375000Y-123700000D01*
G75*
G02*
X137125000Y-123450000I0J250000D01*
G01*
X137125000Y-122525000D01*
G75*
G02*
X137375000Y-122275000I250000J0D01*
G01*
X138625000Y-122275000D01*
G75*
G02*
X138875000Y-122525000I0J-250000D01*
G01*
X138875000Y-123450000D01*
G75*
G02*
X138625000Y-123700000I-250000J0D01*
G01*
G37*
%TD.AperFunction*%
%TD*%
D14*
%TO.P,TP10,1*%
%TO.N,RS485B*%
X134000000Y-96250000D03*
%TD*%
%TO.P,TP9,1*%
%TO.N,RS485A*%
X134000000Y-113750000D03*
%TD*%
%TO.P,TP8,1*%
%TO.N,RS485B*%
X176000000Y-96250000D03*
%TD*%
%TO.P,TP7,1*%
%TO.N,RS485A*%
X176000000Y-113750000D03*
%TD*%
%TO.P,R2,2*%
%TO.N,IO13*%
%TA.AperFunction,SMDPad,CuDef*%
G36*
G01*
X158125001Y-88100000D02*
X156874999Y-88100000D01*
G75*
G02*
X156625000Y-87850001I0J249999D01*
G01*
X156625000Y-87049999D01*
G75*
G02*
X156874999Y-86800000I249999J0D01*
G01*
X158125001Y-86800000D01*
G75*
G02*
X158375000Y-87049999I0J-249999D01*
G01*
X158375000Y-87850001D01*
G75*
G02*
X158125001Y-88100000I-249999J0D01*
G01*
G37*
%TD.AperFunction*%
%TO.P,R2,1*%
%TO.N,Net-(D1-Pad2)*%
%TA.AperFunction,SMDPad,CuDef*%
G36*
G01*
X158125001Y-91200000D02*
X156874999Y-91200000D01*
G75*
G02*
X156625000Y-90950001I0J249999D01*
G01*
X156625000Y-90149999D01*
G75*
G02*
X156874999Y-89900000I249999J0D01*
G01*
X158125001Y-89900000D01*
G75*
G02*
X158375000Y-90149999I0J-249999D01*
G01*
X158375000Y-90950001D01*
G75*
G02*
X158125001Y-91200000I-249999J0D01*
G01*
G37*
%TD.AperFunction*%
%TD*%
%TO.P,D1,2*%
%TO.N,Net-(D1-Pad2)*%
%TA.AperFunction,SMDPad,CuDef*%
G36*
G01*
X159875000Y-89775000D02*
X161125000Y-89775000D01*
G75*
G02*
X161375000Y-90025000I0J-250000D01*
G01*
X161375000Y-90950000D01*
G75*
G02*
X161125000Y-91200000I-250000J0D01*
G01*
X159875000Y-91200000D01*
G75*
G02*
X159625000Y-90950000I0J250000D01*
G01*
X159625000Y-90025000D01*
G75*
G02*
X159875000Y-89775000I250000J0D01*
G01*
G37*
%TD.AperFunction*%
%TO.P,D1,1*%
%TO.N,GND*%
%TA.AperFunction,SMDPad,CuDef*%
G36*
G01*
X159875000Y-86800000D02*
X161125000Y-86800000D01*
G75*
G02*
X161375000Y-87050000I0J-250000D01*
G01*
X161375000Y-87975000D01*
G75*
G02*
X161125000Y-88225000I-250000J0D01*
G01*
X159875000Y-88225000D01*
G75*
G02*
X159625000Y-87975000I0J250000D01*
G01*
X159625000Y-87050000D01*
G75*
G02*
X159875000Y-86800000I250000J0D01*
G01*
G37*
%TD.AperFunction*%
%TD*%
%TO.P,TP6,1*%
%TO.N,GND*%
X134000000Y-102000000D03*
%TD*%
%TO.P,TP5,1*%
%TO.N,VIN*%
X134000000Y-108000000D03*
%TD*%
%TO.P,TP4,1*%
%TO.N,GND*%
X152000000Y-123000000D03*
%TD*%
%TO.P,TP3,1*%
%TO.N,VIN*%
X158000000Y-123000000D03*
%TD*%
%TO.P,TP2,1*%
%TO.N,GND*%
X176000000Y-102000000D03*
%TD*%
%TO.P,TP1,1*%
%TO.N,VIN*%
X176000000Y-108000000D03*
%TD*%
D15*
%TO.P,JP1,1*%
%TO.N,EN*%
X158250000Y-98000000D03*
%TO.P,JP1,2*%
%TO.N,GND*%
X159550000Y-98000000D03*
%TD*%
D16*
%TO.P,IC1,4*%
%TO.N,Net-(IC1-Pad4)*%
X166000000Y-88150000D03*
D17*
%TO.P,IC1,3*%
%TO.N,VIN*%
X168300000Y-94850000D03*
%TO.P,IC1,2*%
%TO.N,3.3V*%
X166000000Y-94850000D03*
%TO.P,IC1,1*%
%TO.N,GND*%
X163700000Y-94850000D03*
%TD*%
%TO.P,R3,2*%
%TO.N,RS485A*%
%TA.AperFunction,SMDPad,CuDef*%
G36*
G01*
X169400000Y-108225001D02*
X169400000Y-106974999D01*
G75*
G02*
X169649999Y-106725000I249999J0D01*
G01*
X170450001Y-106725000D01*
G75*
G02*
X170700000Y-106974999I0J-249999D01*
G01*
X170700000Y-108225001D01*
G75*
G02*
X170450001Y-108475000I-249999J0D01*
G01*
X169649999Y-108475000D01*
G75*
G02*
X169400000Y-108225001I0J249999D01*
G01*
G37*
%TD.AperFunction*%
%TO.P,R3,1*%
%TO.N,RS485B*%
%TA.AperFunction,SMDPad,CuDef*%
G36*
G01*
X166300000Y-108225001D02*
X166300000Y-106974999D01*
G75*
G02*
X166549999Y-106725000I249999J0D01*
G01*
X167350001Y-106725000D01*
G75*
G02*
X167600000Y-106974999I0J-249999D01*
G01*
X167600000Y-108225001D01*
G75*
G02*
X167350001Y-108475000I-249999J0D01*
G01*
X166549999Y-108475000D01*
G75*
G02*
X166300000Y-108225001I0J249999D01*
G01*
G37*
%TD.AperFunction*%
%TD*%
%TO.P,U2,8*%
%TO.N,3.3V*%
%TA.AperFunction,SMDPad,CuDef*%
G36*
G01*
X163500000Y-110245000D02*
X163500000Y-109945000D01*
G75*
G02*
X163650000Y-109795000I150000J0D01*
G01*
X165300000Y-109795000D01*
G75*
G02*
X165450000Y-109945000I0J-150000D01*
G01*
X165450000Y-110245000D01*
G75*
G02*
X165300000Y-110395000I-150000J0D01*
G01*
X163650000Y-110395000D01*
G75*
G02*
X163500000Y-110245000I0J150000D01*
G01*
G37*
%TD.AperFunction*%
%TO.P,U2,7*%
%TO.N,RS485B*%
%TA.AperFunction,SMDPad,CuDef*%
G36*
G01*
X163500000Y-111515000D02*
X163500000Y-111215000D01*
G75*
G02*
X163650000Y-111065000I150000J0D01*
G01*
X165300000Y-111065000D01*
G75*
G02*
X165450000Y-111215000I0J-150000D01*
G01*
X165450000Y-111515000D01*
G75*
G02*
X165300000Y-111665000I-150000J0D01*
G01*
X163650000Y-111665000D01*
G75*
G02*
X163500000Y-111515000I0J150000D01*
G01*
G37*
%TD.AperFunction*%
%TO.P,U2,6*%
%TO.N,RS485A*%
%TA.AperFunction,SMDPad,CuDef*%
G36*
G01*
X163500000Y-112785000D02*
X163500000Y-112485000D01*
G75*
G02*
X163650000Y-112335000I150000J0D01*
G01*
X165300000Y-112335000D01*
G75*
G02*
X165450000Y-112485000I0J-150000D01*
G01*
X165450000Y-112785000D01*
G75*
G02*
X165300000Y-112935000I-150000J0D01*
G01*
X163650000Y-112935000D01*
G75*
G02*
X163500000Y-112785000I0J150000D01*
G01*
G37*
%TD.AperFunction*%
%TO.P,U2,5*%
%TO.N,GND*%
%TA.AperFunction,SMDPad,CuDef*%
G36*
G01*
X163500000Y-114055000D02*
X163500000Y-113755000D01*
G75*
G02*
X163650000Y-113605000I150000J0D01*
G01*
X165300000Y-113605000D01*
G75*
G02*
X165450000Y-113755000I0J-150000D01*
G01*
X165450000Y-114055000D01*
G75*
G02*
X165300000Y-114205000I-150000J0D01*
G01*
X163650000Y-114205000D01*
G75*
G02*
X163500000Y-114055000I0J150000D01*
G01*
G37*
%TD.AperFunction*%
%TO.P,U2,4*%
%TO.N,RS485TX*%
%TA.AperFunction,SMDPad,CuDef*%
G36*
G01*
X158550000Y-114055000D02*
X158550000Y-113755000D01*
G75*
G02*
X158700000Y-113605000I150000J0D01*
G01*
X160350000Y-113605000D01*
G75*
G02*
X160500000Y-113755000I0J-150000D01*
G01*
X160500000Y-114055000D01*
G75*
G02*
X160350000Y-114205000I-150000J0D01*
G01*
X158700000Y-114205000D01*
G75*
G02*
X158550000Y-114055000I0J150000D01*
G01*
G37*
%TD.AperFunction*%
%TO.P,U2,3*%
%TO.N,RS485CTRL*%
%TA.AperFunction,SMDPad,CuDef*%
G36*
G01*
X158550000Y-112785000D02*
X158550000Y-112485000D01*
G75*
G02*
X158700000Y-112335000I150000J0D01*
G01*
X160350000Y-112335000D01*
G75*
G02*
X160500000Y-112485000I0J-150000D01*
G01*
X160500000Y-112785000D01*
G75*
G02*
X160350000Y-112935000I-150000J0D01*
G01*
X158700000Y-112935000D01*
G75*
G02*
X158550000Y-112785000I0J150000D01*
G01*
G37*
%TD.AperFunction*%
%TO.P,U2,2*%
%TA.AperFunction,SMDPad,CuDef*%
G36*
G01*
X158550000Y-111515000D02*
X158550000Y-111215000D01*
G75*
G02*
X158700000Y-111065000I150000J0D01*
G01*
X160350000Y-111065000D01*
G75*
G02*
X160500000Y-111215000I0J-150000D01*
G01*
X160500000Y-111515000D01*
G75*
G02*
X160350000Y-111665000I-150000J0D01*
G01*
X158700000Y-111665000D01*
G75*
G02*
X158550000Y-111515000I0J150000D01*
G01*
G37*
%TD.AperFunction*%
%TO.P,U2,1*%
%TO.N,RS485RX*%
%TA.AperFunction,SMDPad,CuDef*%
G36*
G01*
X158550000Y-110245000D02*
X158550000Y-109945000D01*
G75*
G02*
X158700000Y-109795000I150000J0D01*
G01*
X160350000Y-109795000D01*
G75*
G02*
X160500000Y-109945000I0J-150000D01*
G01*
X160500000Y-110245000D01*
G75*
G02*
X160350000Y-110395000I-150000J0D01*
G01*
X158700000Y-110395000D01*
G75*
G02*
X158550000Y-110245000I0J150000D01*
G01*
G37*
%TD.AperFunction*%
%TD*%
%TO.P,R1,2*%
%TO.N,3.3V*%
%TA.AperFunction,SMDPad,CuDef*%
G36*
G01*
X157624999Y-103400000D02*
X158875001Y-103400000D01*
G75*
G02*
X159125000Y-103649999I0J-249999D01*
G01*
X159125000Y-104450001D01*
G75*
G02*
X158875001Y-104700000I-249999J0D01*
G01*
X157624999Y-104700000D01*
G75*
G02*
X157375000Y-104450001I0J249999D01*
G01*
X157375000Y-103649999D01*
G75*
G02*
X157624999Y-103400000I249999J0D01*
G01*
G37*
%TD.AperFunction*%
%TO.P,R1,1*%
%TO.N,EN*%
%TA.AperFunction,SMDPad,CuDef*%
G36*
G01*
X157624999Y-100300000D02*
X158875001Y-100300000D01*
G75*
G02*
X159125000Y-100549999I0J-249999D01*
G01*
X159125000Y-101350001D01*
G75*
G02*
X158875001Y-101600000I-249999J0D01*
G01*
X157624999Y-101600000D01*
G75*
G02*
X157375000Y-101350001I0J249999D01*
G01*
X157375000Y-100549999D01*
G75*
G02*
X157624999Y-100300000I249999J0D01*
G01*
G37*
%TD.AperFunction*%
%TD*%
D18*
%TO.P,J4,2*%
%TO.N,IO0*%
X144210000Y-122500000D03*
D19*
%TO.P,J4,1*%
%TO.N,GND*%
X146750000Y-122500000D03*
%TD*%
D18*
%TO.P,J3,4*%
%TO.N,VIN*%
X173120000Y-119500000D03*
%TO.P,J3,3*%
%TO.N,GND*%
X170580000Y-119500000D03*
%TO.P,J3,2*%
%TO.N,TTLTX*%
X168040000Y-119500000D03*
D19*
%TO.P,J3,1*%
%TO.N,TTLRX*%
X165500000Y-119500000D03*
%TD*%
%TO.P,C2,2*%
%TO.N,GND*%
%TA.AperFunction,SMDPad,CuDef*%
G36*
G01*
X161650003Y-101600000D02*
X160349997Y-101600000D01*
G75*
G02*
X160100000Y-101350003I0J249997D01*
G01*
X160100000Y-100524997D01*
G75*
G02*
X160349997Y-100275000I249997J0D01*
G01*
X161650003Y-100275000D01*
G75*
G02*
X161900000Y-100524997I0J-249997D01*
G01*
X161900000Y-101350003D01*
G75*
G02*
X161650003Y-101600000I-249997J0D01*
G01*
G37*
%TD.AperFunction*%
%TO.P,C2,1*%
%TO.N,3.3V*%
%TA.AperFunction,SMDPad,CuDef*%
G36*
G01*
X161650003Y-104725000D02*
X160349997Y-104725000D01*
G75*
G02*
X160100000Y-104475003I0J249997D01*
G01*
X160100000Y-103649997D01*
G75*
G02*
X160349997Y-103400000I249997J0D01*
G01*
X161650003Y-103400000D01*
G75*
G02*
X161900000Y-103649997I0J-249997D01*
G01*
X161900000Y-104475003D01*
G75*
G02*
X161650003Y-104725000I-249997J0D01*
G01*
G37*
%TD.AperFunction*%
%TD*%
%TO.P,C1,2*%
%TO.N,GND*%
%TA.AperFunction,SMDPad,CuDef*%
G36*
G01*
X164650003Y-101600000D02*
X163349997Y-101600000D01*
G75*
G02*
X163100000Y-101350003I0J249997D01*
G01*
X163100000Y-100524997D01*
G75*
G02*
X163349997Y-100275000I249997J0D01*
G01*
X164650003Y-100275000D01*
G75*
G02*
X164900000Y-100524997I0J-249997D01*
G01*
X164900000Y-101350003D01*
G75*
G02*
X164650003Y-101600000I-249997J0D01*
G01*
G37*
%TD.AperFunction*%
%TO.P,C1,1*%
%TO.N,3.3V*%
%TA.AperFunction,SMDPad,CuDef*%
G36*
G01*
X164650003Y-104725000D02*
X163349997Y-104725000D01*
G75*
G02*
X163100000Y-104475003I0J249997D01*
G01*
X163100000Y-103649997D01*
G75*
G02*
X163349997Y-103400000I249997J0D01*
G01*
X164650003Y-103400000D01*
G75*
G02*
X164900000Y-103649997I0J-249997D01*
G01*
X164900000Y-104475003D01*
G75*
G02*
X164650003Y-104725000I-249997J0D01*
G01*
G37*
%TD.AperFunction*%
%TD*%
D20*
%TO.N,IO2*%
X156600000Y-94000000D03*
%TO.N,IO1*%
X156600000Y-92600000D03*
%TO.N,GND*%
X148500000Y-96250000D03*
X147000000Y-96250000D03*
X145500000Y-96250000D03*
X145500000Y-97750000D03*
X147000000Y-97750000D03*
X148500000Y-97750000D03*
X148500000Y-99250000D03*
X145500000Y-99250000D03*
X147000000Y-99250000D03*
X156450000Y-107550000D03*
X156400000Y-112600000D03*
X160000000Y-107000000D03*
X135500000Y-105000000D03*
X154500000Y-122000000D03*
X176750000Y-99750000D03*
X162250000Y-86000000D03*
X151750000Y-90000000D03*
X158700000Y-92600000D03*
X160300000Y-94100000D03*
X139900000Y-113900000D03*
X141600000Y-116000000D03*
X147100000Y-111900000D03*
X151000000Y-111600000D03*
X134600000Y-99900000D03*
X168500000Y-116000000D03*
X159300000Y-118300000D03*
X162750000Y-121500000D03*
X172000000Y-97750000D03*
X174250000Y-98250000D03*
X142600000Y-95000000D03*
X150400000Y-101200000D03*
%TO.N,IO3*%
X145000000Y-102750000D03*
%TO.N,IO4*%
X147500000Y-104000000D03*
%TO.N,RS485A*%
X134000000Y-113750000D03*
X176000000Y-113750000D03*
X170040000Y-104960000D03*
%TO.N,RS485B*%
X167500000Y-105000000D03*
X176000000Y-96250000D03*
X134000000Y-96250000D03*
%TO.N,IO0*%
X135500000Y-88750000D03*
%TO.N,RS485CTRL*%
X140000000Y-93500000D03*
X157400000Y-111400000D03*
%TO.N,IO04*%
X142235000Y-90015000D03*
%TD*%
D21*
%TO.N,IO2*%
X156425000Y-93825000D02*
X156600000Y-94000000D01*
X154500000Y-93825000D02*
X156425000Y-93825000D01*
%TO.N,IO1*%
X156555000Y-92555000D02*
X156600000Y-92600000D01*
X154500000Y-92555000D02*
X156555000Y-92555000D01*
D22*
%TO.N,GND*%
X134000000Y-103500000D02*
X135500000Y-105000000D01*
X134000000Y-102000000D02*
X134000000Y-103500000D01*
X135755000Y-105255000D02*
X135500000Y-105000000D01*
X137500000Y-105255000D02*
X135755000Y-105255000D01*
X153500000Y-123000000D02*
X154500000Y-122000000D01*
X152000000Y-123000000D02*
X153500000Y-123000000D01*
X176000000Y-100500000D02*
X176750000Y-99750000D01*
X176000000Y-102000000D02*
X176000000Y-100500000D01*
X160737500Y-87512500D02*
X162250000Y-86000000D01*
X160500000Y-87512500D02*
X160737500Y-87512500D01*
X151750000Y-87780000D02*
X151715000Y-87745000D01*
X151750000Y-90000000D02*
X151750000Y-87780000D01*
X134000000Y-100500000D02*
X134600000Y-99900000D01*
X134000000Y-102000000D02*
X134000000Y-100500000D01*
D21*
%TO.N,IO3*%
X144965000Y-102715000D02*
X145000000Y-102750000D01*
X137500000Y-102715000D02*
X144965000Y-102715000D01*
%TO.N,IO4*%
X147485000Y-103985000D02*
X147500000Y-104000000D01*
X137500000Y-103985000D02*
X147485000Y-103985000D01*
D22*
%TO.N,3.3V*%
X164000000Y-104062500D02*
X164000000Y-107500000D01*
X164000000Y-107062500D02*
X164000000Y-107500000D01*
X154577500Y-104062500D02*
X154500000Y-103985000D01*
X164000000Y-104062500D02*
X154577500Y-104062500D01*
X165687500Y-98000000D02*
X165687500Y-96562500D01*
X166000000Y-96250000D02*
X166000000Y-94850000D01*
X165687500Y-96562500D02*
X166000000Y-96250000D01*
X165687500Y-98000000D02*
X165687500Y-99187500D01*
X165687500Y-99187500D02*
X166750000Y-100250000D01*
X166750000Y-100250000D02*
X166750000Y-103000000D01*
X165687500Y-104062500D02*
X164000000Y-104062500D01*
X166750000Y-103000000D02*
X165687500Y-104062500D01*
X164000000Y-109620000D02*
X164475000Y-110095000D01*
X164000000Y-107500000D02*
X164000000Y-109620000D01*
%TO.N,RS485A*%
X170040000Y-107590000D02*
X170050000Y-107600000D01*
X170040000Y-104960000D02*
X170040000Y-107590000D01*
X164475000Y-112635000D02*
X167965000Y-112635000D01*
X170050000Y-110550000D02*
X170050000Y-107600000D01*
X167965000Y-112635000D02*
X170050000Y-110550000D01*
%TO.N,RS485B*%
X167550000Y-105050000D02*
X167500000Y-105000000D01*
X166950000Y-105550000D02*
X167500000Y-105000000D01*
X166950000Y-107600000D02*
X166950000Y-105550000D01*
X164475000Y-111365000D02*
X166235000Y-111365000D01*
X166950000Y-110650000D02*
X166950000Y-107600000D01*
X166235000Y-111365000D02*
X166950000Y-110650000D01*
D21*
%TO.N,TTLTX*%
X137500000Y-100175000D02*
X138925000Y-100175000D01*
X138925000Y-100175000D02*
X139750000Y-101000000D01*
X139750000Y-101000000D02*
X146500000Y-101000000D01*
X146500000Y-101000000D02*
X149750000Y-104250000D01*
X149750000Y-114750000D02*
X151000000Y-116000000D01*
X149750000Y-104250000D02*
X149750000Y-114750000D01*
X167190001Y-118650001D02*
X168040000Y-119500000D01*
X164540000Y-116000000D02*
X167190001Y-118650001D01*
X151000000Y-116000000D02*
X164540000Y-116000000D01*
%TO.N,TTLRX*%
X137500000Y-101445000D02*
X137505011Y-101450011D01*
X137505011Y-101450011D02*
X146313601Y-101450011D01*
X146313601Y-101450011D02*
X149250000Y-104386410D01*
X149250000Y-104386410D02*
X149250000Y-114945000D01*
X149250000Y-114945000D02*
X150805000Y-116500000D01*
X165500000Y-118400000D02*
X165500000Y-119500000D01*
X150805000Y-116500000D02*
X163600000Y-116500000D01*
X163600000Y-116500000D02*
X165500000Y-118400000D01*
%TO.N,IO0*%
X135505000Y-88745000D02*
X135500000Y-88750000D01*
X137500000Y-88745000D02*
X135505000Y-88745000D01*
D22*
%TO.N,EN*%
X158250000Y-100950000D02*
X157050000Y-100950000D01*
X157050000Y-100950000D02*
X156500000Y-101500000D01*
X156500000Y-101500000D02*
X156500000Y-102250000D01*
X156035000Y-102715000D02*
X154500000Y-102715000D01*
X156500000Y-102250000D02*
X156035000Y-102715000D01*
X158250000Y-98000000D02*
X158250000Y-100950000D01*
D21*
%TO.N,RS485CTRL*%
X137595000Y-95000000D02*
X137500000Y-95095000D01*
X138405000Y-95095000D02*
X140000000Y-93500000D01*
X137500000Y-95095000D02*
X138405000Y-95095000D01*
X159525000Y-111400000D02*
X159525000Y-112670000D01*
X159490000Y-111400000D02*
X159525000Y-111365000D01*
X157400000Y-111400000D02*
X159490000Y-111400000D01*
%TO.N,RS485RX*%
X153695000Y-110095000D02*
X159525000Y-110095000D01*
X152500000Y-108900000D02*
X153695000Y-110095000D01*
X152500000Y-93250000D02*
X152500000Y-108900000D01*
X150535000Y-91285000D02*
X152500000Y-93250000D01*
X137500000Y-91285000D02*
X150535000Y-91285000D01*
%TO.N,RS485TX*%
X137500000Y-92555000D02*
X150555000Y-92555000D01*
X150555000Y-92555000D02*
X151500000Y-93500000D01*
X151500000Y-93500000D02*
X151500000Y-99000000D01*
X151500000Y-98500000D02*
X151500000Y-99000000D01*
X155378002Y-113905000D02*
X159525000Y-113905000D01*
X151500000Y-110026998D02*
X155378002Y-113905000D01*
X151500000Y-99000000D02*
X151500000Y-110026998D01*
%TO.N,Net-(D1-Pad2)*%
X157500000Y-90550000D02*
X160437500Y-90550000D01*
%TO.N,IO13*%
X150445000Y-87745000D02*
X150445000Y-86305000D01*
X150445000Y-86305000D02*
X150750000Y-86000000D01*
X150750000Y-86000000D02*
X157000000Y-86000000D01*
X157500000Y-86500000D02*
X157500000Y-87450000D01*
X157000000Y-86000000D02*
X157500000Y-86500000D01*
D23*
%TO.N,VIN*%
X140500000Y-118500000D02*
X138000000Y-116000000D01*
X138000000Y-116000000D02*
X138000000Y-112000000D01*
X138000000Y-112000000D02*
X134000000Y-108000000D01*
X140500000Y-118500000D02*
X156000000Y-118500000D01*
X158000000Y-120500000D02*
X158000000Y-123000000D01*
X156000000Y-118500000D02*
X158000000Y-120500000D01*
X173120000Y-122480000D02*
X173120000Y-119500000D01*
X172600000Y-123000000D02*
X173120000Y-122480000D01*
X158000000Y-123000000D02*
X172600000Y-123000000D01*
X176000000Y-108000000D02*
X173000000Y-105000000D01*
X168300000Y-96550000D02*
X168300000Y-94850000D01*
X173000000Y-101250000D02*
X168300000Y-96550000D01*
X173000000Y-119380000D02*
X173000000Y-101250000D01*
X173120000Y-119500000D02*
X173000000Y-119380000D01*
D21*
%TO.N,Net-(D2-Pad2)*%
X137987500Y-120000000D02*
X138000000Y-120012500D01*
X135000000Y-120000000D02*
X137987500Y-120000000D01*
%TO.N,IO21*%
X132850000Y-123100000D02*
X135000000Y-123100000D01*
X131250000Y-101250000D02*
X131250000Y-121500000D01*
X133595000Y-98905000D02*
X131250000Y-101250000D01*
X131250000Y-121500000D02*
X132850000Y-123100000D01*
X137500000Y-98905000D02*
X133595000Y-98905000D01*
%TO.N,IO04*%
X137500000Y-90015000D02*
X142235000Y-90015000D01*
%TD*%
D24*
%TO.N,GND*%
X179340001Y-124873000D02*
X130660000Y-124873000D01*
X130660000Y-121979076D01*
X130686201Y-122011002D01*
X130710000Y-122040001D01*
X130738998Y-122063799D01*
X132286201Y-123611003D01*
X132309999Y-123640001D01*
X132425724Y-123734974D01*
X132557753Y-123805546D01*
X132701014Y-123849003D01*
X132812667Y-123860000D01*
X132812675Y-123860000D01*
X132850000Y-123863676D01*
X132887325Y-123860000D01*
X133565298Y-123860000D01*
X133636595Y-123993387D01*
X133747038Y-124127962D01*
X133881613Y-124238405D01*
X134035149Y-124320472D01*
X134201745Y-124371008D01*
X134374999Y-124388072D01*
X135625001Y-124388072D01*
X135798255Y-124371008D01*
X135964851Y-124320472D01*
X136118387Y-124238405D01*
X136252962Y-124127962D01*
X136363405Y-123993387D01*
X136445472Y-123839851D01*
X136487165Y-123702407D01*
X136499188Y-123824482D01*
X136535498Y-123944180D01*
X136594463Y-124054494D01*
X136673815Y-124151185D01*
X136770506Y-124230537D01*
X136880820Y-124289502D01*
X137000518Y-124325812D01*
X137125000Y-124338072D01*
X137714250Y-124335000D01*
X137873000Y-124176250D01*
X137873000Y-123114500D01*
X138127000Y-123114500D01*
X138127000Y-124176250D01*
X138285750Y-124335000D01*
X138875000Y-124338072D01*
X138999482Y-124325812D01*
X139119180Y-124289502D01*
X139229494Y-124230537D01*
X139326185Y-124151185D01*
X139339128Y-124135413D01*
X151044192Y-124135413D01*
X151139956Y-124399814D01*
X151429571Y-124540704D01*
X151741108Y-124622384D01*
X152062595Y-124641718D01*
X152381675Y-124597961D01*
X152686088Y-124492795D01*
X152860044Y-124399814D01*
X152955808Y-124135413D01*
X152000000Y-123179605D01*
X151044192Y-124135413D01*
X139339128Y-124135413D01*
X139405537Y-124054494D01*
X139464502Y-123944180D01*
X139500812Y-123824482D01*
X139513072Y-123700000D01*
X139510000Y-123273250D01*
X139351250Y-123114500D01*
X138127000Y-123114500D01*
X137873000Y-123114500D01*
X137853000Y-123114500D01*
X137853000Y-122860500D01*
X137873000Y-122860500D01*
X137873000Y-121798750D01*
X138127000Y-121798750D01*
X138127000Y-122860500D01*
X139351250Y-122860500D01*
X139510000Y-122701750D01*
X139512505Y-122353740D01*
X142725000Y-122353740D01*
X142725000Y-122646260D01*
X142782068Y-122933158D01*
X142894010Y-123203411D01*
X143056525Y-123446632D01*
X143263368Y-123653475D01*
X143506589Y-123815990D01*
X143776842Y-123927932D01*
X144063740Y-123985000D01*
X144356260Y-123985000D01*
X144643158Y-123927932D01*
X144913411Y-123815990D01*
X145156632Y-123653475D01*
X145288487Y-123521620D01*
X145310498Y-123594180D01*
X145369463Y-123704494D01*
X145448815Y-123801185D01*
X145545506Y-123880537D01*
X145655820Y-123939502D01*
X145775518Y-123975812D01*
X145900000Y-123988072D01*
X146464250Y-123985000D01*
X146623000Y-123826250D01*
X146623000Y-122627000D01*
X146877000Y-122627000D01*
X146877000Y-123826250D01*
X147035750Y-123985000D01*
X147600000Y-123988072D01*
X147724482Y-123975812D01*
X147844180Y-123939502D01*
X147954494Y-123880537D01*
X148051185Y-123801185D01*
X148130537Y-123704494D01*
X148189502Y-123594180D01*
X148225812Y-123474482D01*
X148238072Y-123350000D01*
X148236508Y-123062595D01*
X150358282Y-123062595D01*
X150402039Y-123381675D01*
X150507205Y-123686088D01*
X150600186Y-123860044D01*
X150864587Y-123955808D01*
X151820395Y-123000000D01*
X152179605Y-123000000D01*
X153135413Y-123955808D01*
X153399814Y-123860044D01*
X153540704Y-123570429D01*
X153622384Y-123258892D01*
X153641718Y-122937405D01*
X153597961Y-122618325D01*
X153492795Y-122313912D01*
X153399814Y-122139956D01*
X153135413Y-122044192D01*
X152179605Y-123000000D01*
X151820395Y-123000000D01*
X150864587Y-122044192D01*
X150600186Y-122139956D01*
X150459296Y-122429571D01*
X150377616Y-122741108D01*
X150358282Y-123062595D01*
X148236508Y-123062595D01*
X148235000Y-122785750D01*
X148076250Y-122627000D01*
X146877000Y-122627000D01*
X146623000Y-122627000D01*
X146603000Y-122627000D01*
X146603000Y-122373000D01*
X146623000Y-122373000D01*
X146623000Y-121173750D01*
X146877000Y-121173750D01*
X146877000Y-122373000D01*
X148076250Y-122373000D01*
X148235000Y-122214250D01*
X148236903Y-121864587D01*
X151044192Y-121864587D01*
X152000000Y-122820395D01*
X152955808Y-121864587D01*
X152860044Y-121600186D01*
X152570429Y-121459296D01*
X152258892Y-121377616D01*
X151937405Y-121358282D01*
X151618325Y-121402039D01*
X151313912Y-121507205D01*
X151139956Y-121600186D01*
X151044192Y-121864587D01*
X148236903Y-121864587D01*
X148238072Y-121650000D01*
X148225812Y-121525518D01*
X148189502Y-121405820D01*
X148130537Y-121295506D01*
X148051185Y-121198815D01*
X147954494Y-121119463D01*
X147844180Y-121060498D01*
X147724482Y-121024188D01*
X147600000Y-121011928D01*
X147035750Y-121015000D01*
X146877000Y-121173750D01*
X146623000Y-121173750D01*
X146464250Y-121015000D01*
X145900000Y-121011928D01*
X145775518Y-121024188D01*
X145655820Y-121060498D01*
X145545506Y-121119463D01*
X145448815Y-121198815D01*
X145369463Y-121295506D01*
X145310498Y-121405820D01*
X145288487Y-121478380D01*
X145156632Y-121346525D01*
X144913411Y-121184010D01*
X144643158Y-121072068D01*
X144356260Y-121015000D01*
X144063740Y-121015000D01*
X143776842Y-121072068D01*
X143506589Y-121184010D01*
X143263368Y-121346525D01*
X143056525Y-121553368D01*
X142894010Y-121796589D01*
X142782068Y-122066842D01*
X142725000Y-122353740D01*
X139512505Y-122353740D01*
X139513072Y-122275000D01*
X139500812Y-122150518D01*
X139464502Y-122030820D01*
X139405537Y-121920506D01*
X139326185Y-121823815D01*
X139229494Y-121744463D01*
X139119180Y-121685498D01*
X138999482Y-121649188D01*
X138875000Y-121636928D01*
X138285750Y-121640000D01*
X138127000Y-121798750D01*
X137873000Y-121798750D01*
X137714250Y-121640000D01*
X137125000Y-121636928D01*
X137000518Y-121649188D01*
X136880820Y-121685498D01*
X136770506Y-121744463D01*
X136673815Y-121823815D01*
X136594463Y-121920506D01*
X136535498Y-122030820D01*
X136499188Y-122150518D01*
X136486928Y-122275000D01*
X136488564Y-122502204D01*
X136445472Y-122360149D01*
X136363405Y-122206613D01*
X136252962Y-122072038D01*
X136118387Y-121961595D01*
X135964851Y-121879528D01*
X135798255Y-121828992D01*
X135625001Y-121811928D01*
X134374999Y-121811928D01*
X134201745Y-121828992D01*
X134035149Y-121879528D01*
X133881613Y-121961595D01*
X133747038Y-122072038D01*
X133636595Y-122206613D01*
X133565298Y-122340000D01*
X133164802Y-122340000D01*
X132010000Y-121185199D01*
X132010000Y-119599999D01*
X133486928Y-119599999D01*
X133486928Y-120400001D01*
X133503992Y-120573255D01*
X133554528Y-120739851D01*
X133636595Y-120893387D01*
X133747038Y-121027962D01*
X133881613Y-121138405D01*
X134035149Y-121220472D01*
X134201745Y-121271008D01*
X134374999Y-121288072D01*
X135625001Y-121288072D01*
X135798255Y-121271008D01*
X135964851Y-121220472D01*
X136118387Y-121138405D01*
X136252962Y-121027962D01*
X136363405Y-120893387D01*
X136434702Y-120760000D01*
X136537890Y-120760000D01*
X136554528Y-120814850D01*
X136636595Y-120968386D01*
X136747038Y-121102962D01*
X136881614Y-121213405D01*
X137035150Y-121295472D01*
X137201746Y-121346008D01*
X137375000Y-121363072D01*
X138625000Y-121363072D01*
X138798254Y-121346008D01*
X138964850Y-121295472D01*
X139118386Y-121213405D01*
X139252962Y-121102962D01*
X139363405Y-120968386D01*
X139445472Y-120814850D01*
X139496008Y-120648254D01*
X139513072Y-120475000D01*
X139513072Y-119550000D01*
X139496008Y-119376746D01*
X139445472Y-119210150D01*
X139363405Y-119056614D01*
X139252962Y-118922038D01*
X139118386Y-118811595D01*
X138964850Y-118729528D01*
X138798254Y-118678992D01*
X138625000Y-118661928D01*
X137375000Y-118661928D01*
X137201746Y-118678992D01*
X137035150Y-118729528D01*
X136881614Y-118811595D01*
X136747038Y-118922038D01*
X136636595Y-119056614D01*
X136554528Y-119210150D01*
X136545473Y-119240000D01*
X136434702Y-119240000D01*
X136363405Y-119106613D01*
X136252962Y-118972038D01*
X136118387Y-118861595D01*
X135964851Y-118779528D01*
X135798255Y-118728992D01*
X135625001Y-118711928D01*
X134374999Y-118711928D01*
X134201745Y-118728992D01*
X134035149Y-118779528D01*
X133881613Y-118861595D01*
X133747038Y-118972038D01*
X133636595Y-119106613D01*
X133554528Y-119260149D01*
X133503992Y-119426745D01*
X133486928Y-119599999D01*
X132010000Y-119599999D01*
X132010000Y-113588967D01*
X132365000Y-113588967D01*
X132365000Y-113911033D01*
X132427832Y-114226912D01*
X132551082Y-114524463D01*
X132730013Y-114792252D01*
X132957748Y-115019987D01*
X133225537Y-115198918D01*
X133523088Y-115322168D01*
X133838967Y-115385000D01*
X134161033Y-115385000D01*
X134476912Y-115322168D01*
X134774463Y-115198918D01*
X135042252Y-115019987D01*
X135269987Y-114792252D01*
X135448918Y-114524463D01*
X135572168Y-114226912D01*
X135635000Y-113911033D01*
X135635000Y-113588967D01*
X135572168Y-113273088D01*
X135448918Y-112975537D01*
X135269987Y-112707748D01*
X135042252Y-112480013D01*
X134774463Y-112301082D01*
X134476912Y-112177832D01*
X134161033Y-112115000D01*
X133838967Y-112115000D01*
X133523088Y-112177832D01*
X133225537Y-112301082D01*
X132957748Y-112480013D01*
X132730013Y-112707748D01*
X132551082Y-112975537D01*
X132427832Y-113273088D01*
X132365000Y-113588967D01*
X132010000Y-113588967D01*
X132010000Y-107838967D01*
X132365000Y-107838967D01*
X132365000Y-108161033D01*
X132427832Y-108476912D01*
X132551082Y-108774463D01*
X132730013Y-109042252D01*
X132957748Y-109269987D01*
X133225537Y-109448918D01*
X133523088Y-109572168D01*
X133838967Y-109635000D01*
X134029869Y-109635000D01*
X136865001Y-112470133D01*
X136865000Y-115944248D01*
X136859509Y-116000000D01*
X136865000Y-116055751D01*
X136881423Y-116222498D01*
X136946324Y-116436446D01*
X137051716Y-116633623D01*
X137193551Y-116806449D01*
X137236865Y-116841996D01*
X139658009Y-119263141D01*
X139693551Y-119306449D01*
X139840132Y-119426745D01*
X139866377Y-119448284D01*
X140063553Y-119553676D01*
X140277501Y-119618577D01*
X140500000Y-119640491D01*
X140555751Y-119635000D01*
X155529869Y-119635000D01*
X156865000Y-120970132D01*
X156865001Y-121822760D01*
X156730013Y-121957748D01*
X156551082Y-122225537D01*
X156427832Y-122523088D01*
X156365000Y-122838967D01*
X156365000Y-123161033D01*
X156427832Y-123476912D01*
X156551082Y-123774463D01*
X156730013Y-124042252D01*
X156957748Y-124269987D01*
X157225537Y-124448918D01*
X157523088Y-124572168D01*
X157838967Y-124635000D01*
X158161033Y-124635000D01*
X158476912Y-124572168D01*
X158774463Y-124448918D01*
X159042252Y-124269987D01*
X159177239Y-124135000D01*
X172544249Y-124135000D01*
X172600000Y-124140491D01*
X172655751Y-124135000D01*
X172655752Y-124135000D01*
X172822499Y-124118577D01*
X173036447Y-124053676D01*
X173233623Y-123948284D01*
X173406449Y-123806449D01*
X173441996Y-123763135D01*
X173883135Y-123321996D01*
X173926449Y-123286449D01*
X174068284Y-123113623D01*
X174173676Y-122916447D01*
X174238577Y-122702499D01*
X174255000Y-122535752D01*
X174255000Y-122535751D01*
X174260491Y-122480001D01*
X174255000Y-122424249D01*
X174255000Y-120465107D01*
X174273475Y-120446632D01*
X174435990Y-120203411D01*
X174547932Y-119933158D01*
X174605000Y-119646260D01*
X174605000Y-119353740D01*
X174547932Y-119066842D01*
X174435990Y-118796589D01*
X174273475Y-118553368D01*
X174135000Y-118414893D01*
X174135000Y-113588967D01*
X174365000Y-113588967D01*
X174365000Y-113911033D01*
X174427832Y-114226912D01*
X174551082Y-114524463D01*
X174730013Y-114792252D01*
X174957748Y-115019987D01*
X175225537Y-115198918D01*
X175523088Y-115322168D01*
X175838967Y-115385000D01*
X176161033Y-115385000D01*
X176476912Y-115322168D01*
X176774463Y-115198918D01*
X177042252Y-115019987D01*
X177269987Y-114792252D01*
X177448918Y-114524463D01*
X177572168Y-114226912D01*
X177635000Y-113911033D01*
X177635000Y-113588967D01*
X177572168Y-113273088D01*
X177448918Y-112975537D01*
X177269987Y-112707748D01*
X177042252Y-112480013D01*
X176774463Y-112301082D01*
X176476912Y-112177832D01*
X176161033Y-112115000D01*
X175838967Y-112115000D01*
X175523088Y-112177832D01*
X175225537Y-112301082D01*
X174957748Y-112480013D01*
X174730013Y-112707748D01*
X174551082Y-112975537D01*
X174427832Y-113273088D01*
X174365000Y-113588967D01*
X174135000Y-113588967D01*
X174135000Y-107740132D01*
X174365000Y-107970132D01*
X174365000Y-108161033D01*
X174427832Y-108476912D01*
X174551082Y-108774463D01*
X174730013Y-109042252D01*
X174957748Y-109269987D01*
X175225537Y-109448918D01*
X175523088Y-109572168D01*
X175838967Y-109635000D01*
X176161033Y-109635000D01*
X176476912Y-109572168D01*
X176774463Y-109448918D01*
X177042252Y-109269987D01*
X177269987Y-109042252D01*
X177448918Y-108774463D01*
X177572168Y-108476912D01*
X177635000Y-108161033D01*
X177635000Y-107838967D01*
X177572168Y-107523088D01*
X177448918Y-107225537D01*
X177269987Y-106957748D01*
X177042252Y-106730013D01*
X176774463Y-106551082D01*
X176476912Y-106427832D01*
X176161033Y-106365000D01*
X175970132Y-106365000D01*
X174135000Y-104529869D01*
X174135000Y-103135413D01*
X175044192Y-103135413D01*
X175139956Y-103399814D01*
X175429571Y-103540704D01*
X175741108Y-103622384D01*
X176062595Y-103641718D01*
X176381675Y-103597961D01*
X176686088Y-103492795D01*
X176860044Y-103399814D01*
X176955808Y-103135413D01*
X176000000Y-102179605D01*
X175044192Y-103135413D01*
X174135000Y-103135413D01*
X174135000Y-102513924D01*
X174213405Y-102418387D01*
X174295472Y-102264851D01*
X174346008Y-102098255D01*
X174349520Y-102062595D01*
X174358282Y-102062595D01*
X174402039Y-102381675D01*
X174507205Y-102686088D01*
X174600186Y-102860044D01*
X174864587Y-102955808D01*
X175820395Y-102000000D01*
X176179605Y-102000000D01*
X177135413Y-102955808D01*
X177399814Y-102860044D01*
X177540704Y-102570429D01*
X177622384Y-102258892D01*
X177641718Y-101937405D01*
X177597961Y-101618325D01*
X177492795Y-101313912D01*
X177399814Y-101139956D01*
X177135413Y-101044192D01*
X176179605Y-102000000D01*
X175820395Y-102000000D01*
X174864587Y-101044192D01*
X174600186Y-101139956D01*
X174459296Y-101429571D01*
X174377616Y-101741108D01*
X174358282Y-102062595D01*
X174349520Y-102062595D01*
X174363072Y-101925001D01*
X174363072Y-101074999D01*
X174346008Y-100901745D01*
X174334737Y-100864587D01*
X175044192Y-100864587D01*
X176000000Y-101820395D01*
X176955808Y-100864587D01*
X176860044Y-100600186D01*
X176570429Y-100459296D01*
X176258892Y-100377616D01*
X175937405Y-100358282D01*
X175618325Y-100402039D01*
X175313912Y-100507205D01*
X175139956Y-100600186D01*
X175044192Y-100864587D01*
X174334737Y-100864587D01*
X174295472Y-100735149D01*
X174213405Y-100581613D01*
X174102962Y-100447038D01*
X173968387Y-100336595D01*
X173814851Y-100254528D01*
X173648255Y-100203992D01*
X173549386Y-100194254D01*
X169444099Y-96088967D01*
X174365000Y-96088967D01*
X174365000Y-96411033D01*
X174427832Y-96726912D01*
X174551082Y-97024463D01*
X174730013Y-97292252D01*
X174957748Y-97519987D01*
X175225537Y-97698918D01*
X175523088Y-97822168D01*
X175838967Y-97885000D01*
X176161033Y-97885000D01*
X176476912Y-97822168D01*
X176774463Y-97698918D01*
X177042252Y-97519987D01*
X177269987Y-97292252D01*
X177448918Y-97024463D01*
X177572168Y-96726912D01*
X177635000Y-96411033D01*
X177635000Y-96088967D01*
X177572168Y-95773088D01*
X177448918Y-95475537D01*
X177269987Y-95207748D01*
X177042252Y-94980013D01*
X176774463Y-94801082D01*
X176476912Y-94677832D01*
X176161033Y-94615000D01*
X175838967Y-94615000D01*
X175523088Y-94677832D01*
X175225537Y-94801082D01*
X174957748Y-94980013D01*
X174730013Y-95207748D01*
X174551082Y-95475537D01*
X174427832Y-95773088D01*
X174365000Y-96088967D01*
X169444099Y-96088967D01*
X169435000Y-96079869D01*
X169435000Y-94794248D01*
X169418577Y-94627501D01*
X169413072Y-94609354D01*
X169413072Y-94175000D01*
X169400812Y-94050518D01*
X169364502Y-93930820D01*
X169305537Y-93820506D01*
X169226185Y-93723815D01*
X169129494Y-93644463D01*
X169019180Y-93585498D01*
X168899482Y-93549188D01*
X168775000Y-93536928D01*
X167825000Y-93536928D01*
X167700518Y-93549188D01*
X167580820Y-93585498D01*
X167470506Y-93644463D01*
X167373815Y-93723815D01*
X167294463Y-93820506D01*
X167235498Y-93930820D01*
X167199188Y-94050518D01*
X167186928Y-94175000D01*
X167186928Y-94609357D01*
X167181424Y-94627501D01*
X167165000Y-94794248D01*
X167165000Y-96494249D01*
X167159509Y-96550000D01*
X167165000Y-96605751D01*
X167181423Y-96772498D01*
X167246324Y-96986446D01*
X167351716Y-97183623D01*
X167493551Y-97356449D01*
X167536865Y-97391996D01*
X170341559Y-100196691D01*
X170189500Y-100348750D01*
X170189500Y-101373000D01*
X171326250Y-101373000D01*
X171422059Y-101277191D01*
X171511928Y-101367060D01*
X171511928Y-101925001D01*
X171528992Y-102098255D01*
X171579528Y-102264851D01*
X171661595Y-102418387D01*
X171772038Y-102552962D01*
X171865001Y-102629255D01*
X171865001Y-104944241D01*
X171859509Y-105000000D01*
X171865001Y-105055759D01*
X171865000Y-118705311D01*
X171844805Y-118735534D01*
X171775178Y-118618645D01*
X171580269Y-118402412D01*
X171346920Y-118228359D01*
X171084099Y-118103175D01*
X170936890Y-118058524D01*
X170707000Y-118179845D01*
X170707000Y-119373000D01*
X170727000Y-119373000D01*
X170727000Y-119627000D01*
X170707000Y-119627000D01*
X170707000Y-120820155D01*
X170936890Y-120941476D01*
X171084099Y-120896825D01*
X171346920Y-120771641D01*
X171580269Y-120597588D01*
X171775178Y-120381355D01*
X171844805Y-120264466D01*
X171966525Y-120446632D01*
X171985001Y-120465108D01*
X171985000Y-121865000D01*
X159177239Y-121865000D01*
X159135000Y-121822761D01*
X159135000Y-120555751D01*
X159140491Y-120499999D01*
X159118577Y-120277500D01*
X159079592Y-120148986D01*
X159053676Y-120063553D01*
X158948284Y-119866377D01*
X158806449Y-119693551D01*
X158763141Y-119658009D01*
X156841996Y-117736865D01*
X156806449Y-117693551D01*
X156633623Y-117551716D01*
X156436447Y-117446324D01*
X156222499Y-117381423D01*
X156055752Y-117365000D01*
X156055751Y-117365000D01*
X156000000Y-117359509D01*
X155944249Y-117365000D01*
X140970132Y-117365000D01*
X139135000Y-115529869D01*
X139135000Y-112055741D01*
X139140490Y-111999999D01*
X139135000Y-111944257D01*
X139135000Y-111944248D01*
X139118577Y-111777501D01*
X139053676Y-111563553D01*
X138948284Y-111366377D01*
X138806449Y-111193551D01*
X138763141Y-111158009D01*
X135635000Y-108029869D01*
X135635000Y-107838967D01*
X135572168Y-107523088D01*
X135448918Y-107225537D01*
X135269987Y-106957748D01*
X135042252Y-106730013D01*
X134774463Y-106551082D01*
X134476912Y-106427832D01*
X134161033Y-106365000D01*
X133838967Y-106365000D01*
X133523088Y-106427832D01*
X133225537Y-106551082D01*
X132957748Y-106730013D01*
X132730013Y-106957748D01*
X132551082Y-107225537D01*
X132427832Y-107523088D01*
X132365000Y-107838967D01*
X132010000Y-107838967D01*
X132010000Y-105705000D01*
X135861928Y-105705000D01*
X135874188Y-105829482D01*
X135910498Y-105949180D01*
X135969463Y-106059494D01*
X136048815Y-106156185D01*
X136145506Y-106235537D01*
X136255820Y-106294502D01*
X136375518Y-106330812D01*
X136500000Y-106343072D01*
X137214250Y-106340000D01*
X137373000Y-106181250D01*
X137373000Y-105382000D01*
X137627000Y-105382000D01*
X137627000Y-106181250D01*
X137785750Y-106340000D01*
X138500000Y-106343072D01*
X138624482Y-106330812D01*
X138744180Y-106294502D01*
X138854494Y-106235537D01*
X138951185Y-106156185D01*
X139030537Y-106059494D01*
X139089502Y-105949180D01*
X139125812Y-105829482D01*
X139138072Y-105705000D01*
X139135000Y-105540750D01*
X138976250Y-105382000D01*
X137627000Y-105382000D01*
X137373000Y-105382000D01*
X136023750Y-105382000D01*
X135865000Y-105540750D01*
X135861928Y-105705000D01*
X132010000Y-105705000D01*
X132010000Y-103135413D01*
X133044192Y-103135413D01*
X133139956Y-103399814D01*
X133429571Y-103540704D01*
X133741108Y-103622384D01*
X134062595Y-103641718D01*
X134381675Y-103597961D01*
X134686088Y-103492795D01*
X134860044Y-103399814D01*
X134955808Y-103135413D01*
X134000000Y-102179605D01*
X133044192Y-103135413D01*
X132010000Y-103135413D01*
X132010000Y-102062595D01*
X132358282Y-102062595D01*
X132402039Y-102381675D01*
X132507205Y-102686088D01*
X132600186Y-102860044D01*
X132864587Y-102955808D01*
X133820395Y-102000000D01*
X134179605Y-102000000D01*
X135135413Y-102955808D01*
X135399814Y-102860044D01*
X135540704Y-102570429D01*
X135622384Y-102258892D01*
X135641718Y-101937405D01*
X135597961Y-101618325D01*
X135492795Y-101313912D01*
X135399814Y-101139956D01*
X135135413Y-101044192D01*
X134179605Y-102000000D01*
X133820395Y-102000000D01*
X132864587Y-101044192D01*
X132600186Y-101139956D01*
X132459296Y-101429571D01*
X132377616Y-101741108D01*
X132358282Y-102062595D01*
X132010000Y-102062595D01*
X132010000Y-101564801D01*
X132710214Y-100864587D01*
X133044192Y-100864587D01*
X134000000Y-101820395D01*
X134955808Y-100864587D01*
X134860044Y-100600186D01*
X134570429Y-100459296D01*
X134258892Y-100377616D01*
X133937405Y-100358282D01*
X133618325Y-100402039D01*
X133313912Y-100507205D01*
X133139956Y-100600186D01*
X133044192Y-100864587D01*
X132710214Y-100864587D01*
X133909802Y-99665000D01*
X135867837Y-99665000D01*
X135861928Y-99725000D01*
X135861928Y-100625000D01*
X135874188Y-100749482D01*
X135892546Y-100810000D01*
X135874188Y-100870518D01*
X135861928Y-100995000D01*
X135861928Y-101895000D01*
X135874188Y-102019482D01*
X135892546Y-102080000D01*
X135874188Y-102140518D01*
X135861928Y-102265000D01*
X135861928Y-103165000D01*
X135874188Y-103289482D01*
X135892546Y-103350000D01*
X135874188Y-103410518D01*
X135861928Y-103535000D01*
X135861928Y-104435000D01*
X135874188Y-104559482D01*
X135892546Y-104620000D01*
X135874188Y-104680518D01*
X135861928Y-104805000D01*
X135865000Y-104969250D01*
X136023750Y-105128000D01*
X137373000Y-105128000D01*
X137373000Y-105108000D01*
X137627000Y-105108000D01*
X137627000Y-105128000D01*
X138976250Y-105128000D01*
X139135000Y-104969250D01*
X139138072Y-104805000D01*
X139132163Y-104745000D01*
X146781289Y-104745000D01*
X146840226Y-104803937D01*
X147009744Y-104917205D01*
X147198102Y-104995226D01*
X147398061Y-105035000D01*
X147601939Y-105035000D01*
X147801898Y-104995226D01*
X147990256Y-104917205D01*
X148159774Y-104803937D01*
X148303937Y-104659774D01*
X148361866Y-104573077D01*
X148490000Y-104701212D01*
X148490001Y-114907668D01*
X148486324Y-114945000D01*
X148500998Y-115093985D01*
X148544454Y-115237246D01*
X148615026Y-115369276D01*
X148627931Y-115385000D01*
X148710000Y-115485001D01*
X148738998Y-115508799D01*
X150241200Y-117011002D01*
X150264999Y-117040001D01*
X150293997Y-117063799D01*
X150380723Y-117134974D01*
X150391045Y-117140491D01*
X150512753Y-117205546D01*
X150656014Y-117249003D01*
X150767667Y-117260000D01*
X150767676Y-117260000D01*
X150804999Y-117263676D01*
X150842322Y-117260000D01*
X163285199Y-117260000D01*
X164212655Y-118187457D01*
X164198815Y-118198815D01*
X164119463Y-118295506D01*
X164060498Y-118405820D01*
X164024188Y-118525518D01*
X164011928Y-118650000D01*
X164011928Y-120350000D01*
X164024188Y-120474482D01*
X164060498Y-120594180D01*
X164119463Y-120704494D01*
X164198815Y-120801185D01*
X164295506Y-120880537D01*
X164405820Y-120939502D01*
X164525518Y-120975812D01*
X164650000Y-120988072D01*
X166350000Y-120988072D01*
X166474482Y-120975812D01*
X166594180Y-120939502D01*
X166704494Y-120880537D01*
X166801185Y-120801185D01*
X166880537Y-120704494D01*
X166939502Y-120594180D01*
X166961513Y-120521620D01*
X167093368Y-120653475D01*
X167336589Y-120815990D01*
X167606842Y-120927932D01*
X167893740Y-120985000D01*
X168186260Y-120985000D01*
X168473158Y-120927932D01*
X168743411Y-120815990D01*
X168986632Y-120653475D01*
X169193475Y-120446632D01*
X169315195Y-120264466D01*
X169384822Y-120381355D01*
X169579731Y-120597588D01*
X169813080Y-120771641D01*
X170075901Y-120896825D01*
X170223110Y-120941476D01*
X170453000Y-120820155D01*
X170453000Y-119627000D01*
X170433000Y-119627000D01*
X170433000Y-119373000D01*
X170453000Y-119373000D01*
X170453000Y-118179845D01*
X170223110Y-118058524D01*
X170075901Y-118103175D01*
X169813080Y-118228359D01*
X169579731Y-118402412D01*
X169384822Y-118618645D01*
X169315195Y-118735534D01*
X169193475Y-118553368D01*
X168986632Y-118346525D01*
X168743411Y-118184010D01*
X168473158Y-118072068D01*
X168186260Y-118015000D01*
X167893740Y-118015000D01*
X167673592Y-118058790D01*
X165103804Y-115489003D01*
X165080001Y-115459999D01*
X164964276Y-115365026D01*
X164832247Y-115294454D01*
X164688986Y-115250997D01*
X164577333Y-115240000D01*
X164577322Y-115240000D01*
X164540000Y-115236324D01*
X164502678Y-115240000D01*
X151314802Y-115240000D01*
X150510000Y-114435199D01*
X150510000Y-104287322D01*
X150513676Y-104249999D01*
X150510000Y-104212676D01*
X150510000Y-104212667D01*
X150499003Y-104101014D01*
X150455546Y-103957753D01*
X150438039Y-103925000D01*
X150384974Y-103825723D01*
X150313799Y-103738997D01*
X150290001Y-103709999D01*
X150261004Y-103686202D01*
X147465050Y-100890249D01*
X149500000Y-100893072D01*
X149624482Y-100880812D01*
X149744180Y-100844502D01*
X149854494Y-100785537D01*
X149951185Y-100706185D01*
X150030537Y-100609494D01*
X150089502Y-100499180D01*
X150125812Y-100379482D01*
X150138072Y-100255000D01*
X150135000Y-98040750D01*
X149976250Y-97882000D01*
X147127000Y-97882000D01*
X147127000Y-97902000D01*
X146873000Y-97902000D01*
X146873000Y-97882000D01*
X144023750Y-97882000D01*
X143865000Y-98040750D01*
X143861949Y-100240000D01*
X140064802Y-100240000D01*
X139488803Y-99664002D01*
X139465001Y-99634999D01*
X139349276Y-99540026D01*
X139217247Y-99469454D01*
X139129423Y-99442813D01*
X139138072Y-99355000D01*
X139138072Y-98455000D01*
X139125812Y-98330518D01*
X139107454Y-98270000D01*
X139125812Y-98209482D01*
X139138072Y-98085000D01*
X139138072Y-97185000D01*
X139125812Y-97060518D01*
X139107454Y-97000000D01*
X139125812Y-96939482D01*
X139138072Y-96815000D01*
X139138072Y-95915000D01*
X139125812Y-95790518D01*
X139107454Y-95730000D01*
X139125812Y-95669482D01*
X139138072Y-95545000D01*
X139138072Y-95436729D01*
X139319801Y-95255000D01*
X143861928Y-95255000D01*
X143865000Y-97469250D01*
X144023750Y-97628000D01*
X146873000Y-97628000D01*
X146873000Y-94778750D01*
X147127000Y-94778750D01*
X147127000Y-97628000D01*
X149976250Y-97628000D01*
X150135000Y-97469250D01*
X150138072Y-95255000D01*
X150125812Y-95130518D01*
X150089502Y-95010820D01*
X150030537Y-94900506D01*
X149951185Y-94803815D01*
X149854494Y-94724463D01*
X149744180Y-94665498D01*
X149624482Y-94629188D01*
X149500000Y-94616928D01*
X147285750Y-94620000D01*
X147127000Y-94778750D01*
X146873000Y-94778750D01*
X146714250Y-94620000D01*
X144500000Y-94616928D01*
X144375518Y-94629188D01*
X144255820Y-94665498D01*
X144145506Y-94724463D01*
X144048815Y-94803815D01*
X143969463Y-94900506D01*
X143910498Y-95010820D01*
X143874188Y-95130518D01*
X143861928Y-95255000D01*
X139319801Y-95255000D01*
X140039802Y-94535000D01*
X140101939Y-94535000D01*
X140301898Y-94495226D01*
X140490256Y-94417205D01*
X140659774Y-94303937D01*
X140803937Y-94159774D01*
X140917205Y-93990256D01*
X140995226Y-93801898D01*
X141035000Y-93601939D01*
X141035000Y-93398061D01*
X141018478Y-93315000D01*
X150240199Y-93315000D01*
X150740000Y-93814802D01*
X150740001Y-98462659D01*
X150740000Y-98462668D01*
X150740000Y-98962668D01*
X150740001Y-109989666D01*
X150736324Y-110026998D01*
X150750998Y-110175983D01*
X150794454Y-110319244D01*
X150865026Y-110451274D01*
X150936201Y-110538000D01*
X150960000Y-110566999D01*
X150988998Y-110590797D01*
X154814203Y-114416003D01*
X154838001Y-114445001D01*
X154866999Y-114468799D01*
X154953725Y-114539974D01*
X155067924Y-114601015D01*
X155085755Y-114610546D01*
X155229016Y-114654003D01*
X155340669Y-114665000D01*
X155340678Y-114665000D01*
X155378001Y-114668676D01*
X155415324Y-114665000D01*
X158207024Y-114665000D01*
X158262171Y-114710258D01*
X158398418Y-114783084D01*
X158546255Y-114827929D01*
X158700000Y-114843072D01*
X160350000Y-114843072D01*
X160503745Y-114827929D01*
X160651582Y-114783084D01*
X160787829Y-114710258D01*
X160907251Y-114612251D01*
X161005258Y-114492829D01*
X161078084Y-114356582D01*
X161122929Y-114208745D01*
X161123297Y-114205000D01*
X162861928Y-114205000D01*
X162874188Y-114329482D01*
X162910498Y-114449180D01*
X162969463Y-114559494D01*
X163048815Y-114656185D01*
X163145506Y-114735537D01*
X163255820Y-114794502D01*
X163375518Y-114830812D01*
X163500000Y-114843072D01*
X164189250Y-114840000D01*
X164348000Y-114681250D01*
X164348000Y-114032000D01*
X164602000Y-114032000D01*
X164602000Y-114681250D01*
X164760750Y-114840000D01*
X165450000Y-114843072D01*
X165574482Y-114830812D01*
X165694180Y-114794502D01*
X165804494Y-114735537D01*
X165901185Y-114656185D01*
X165980537Y-114559494D01*
X166039502Y-114449180D01*
X166075812Y-114329482D01*
X166088072Y-114205000D01*
X166085000Y-114190750D01*
X165926250Y-114032000D01*
X164602000Y-114032000D01*
X164348000Y-114032000D01*
X163023750Y-114032000D01*
X162865000Y-114190750D01*
X162861928Y-114205000D01*
X161123297Y-114205000D01*
X161138072Y-114055000D01*
X161138072Y-113755000D01*
X161122929Y-113601255D01*
X161078084Y-113453418D01*
X161005258Y-113317171D01*
X160966546Y-113270000D01*
X161005258Y-113222829D01*
X161078084Y-113086582D01*
X161122929Y-112938745D01*
X161138072Y-112785000D01*
X161138072Y-112485000D01*
X161122929Y-112331255D01*
X161078084Y-112183418D01*
X161005258Y-112047171D01*
X160966546Y-112000000D01*
X161005258Y-111952829D01*
X161078084Y-111816582D01*
X161122929Y-111668745D01*
X161138072Y-111515000D01*
X161138072Y-111215000D01*
X161122929Y-111061255D01*
X161078084Y-110913418D01*
X161005258Y-110777171D01*
X160966546Y-110730000D01*
X161005258Y-110682829D01*
X161078084Y-110546582D01*
X161122929Y-110398745D01*
X161138072Y-110245000D01*
X161138072Y-109945000D01*
X161122929Y-109791255D01*
X161078084Y-109643418D01*
X161005258Y-109507171D01*
X160907251Y-109387749D01*
X160787829Y-109289742D01*
X160651582Y-109216916D01*
X160503745Y-109172071D01*
X160350000Y-109156928D01*
X158700000Y-109156928D01*
X158546255Y-109172071D01*
X158398418Y-109216916D01*
X158262171Y-109289742D01*
X158207024Y-109335000D01*
X154009802Y-109335000D01*
X153260000Y-108585199D01*
X153260000Y-106295770D01*
X153375518Y-106330812D01*
X153500000Y-106343072D01*
X154214250Y-106340000D01*
X154373000Y-106181250D01*
X154373000Y-105382000D01*
X154627000Y-105382000D01*
X154627000Y-106181250D01*
X154785750Y-106340000D01*
X155500000Y-106343072D01*
X155624482Y-106330812D01*
X155744180Y-106294502D01*
X155854494Y-106235537D01*
X155951185Y-106156185D01*
X156030537Y-106059494D01*
X156089502Y-105949180D01*
X156125812Y-105829482D01*
X156138072Y-105705000D01*
X156135000Y-105540750D01*
X155976250Y-105382000D01*
X154627000Y-105382000D01*
X154373000Y-105382000D01*
X154353000Y-105382000D01*
X154353000Y-105128000D01*
X154373000Y-105128000D01*
X154373000Y-105108000D01*
X154627000Y-105108000D01*
X154627000Y-105128000D01*
X155976250Y-105128000D01*
X156135000Y-104969250D01*
X156135407Y-104947500D01*
X156889970Y-104947500D01*
X156997038Y-105077962D01*
X157131613Y-105188405D01*
X157285149Y-105270472D01*
X157451745Y-105321008D01*
X157624999Y-105338072D01*
X158875001Y-105338072D01*
X159048255Y-105321008D01*
X159214851Y-105270472D01*
X159368387Y-105188405D01*
X159502962Y-105077962D01*
X159604216Y-104954583D01*
X159611595Y-104968388D01*
X159722037Y-105102963D01*
X159856612Y-105213405D01*
X160010148Y-105295472D01*
X160176743Y-105346008D01*
X160349997Y-105363072D01*
X161650003Y-105363072D01*
X161823257Y-105346008D01*
X161989852Y-105295472D01*
X162143388Y-105213405D01*
X162277963Y-105102963D01*
X162388405Y-104968388D01*
X162399570Y-104947500D01*
X162600430Y-104947500D01*
X162611595Y-104968388D01*
X162722037Y-105102963D01*
X162856612Y-105213405D01*
X163010148Y-105295472D01*
X163115000Y-105327279D01*
X163115001Y-107019015D01*
X163115000Y-107019024D01*
X163115000Y-107456524D01*
X163115001Y-109369487D01*
X163092749Y-109387749D01*
X162994742Y-109507171D01*
X162921916Y-109643418D01*
X162877071Y-109791255D01*
X162861928Y-109945000D01*
X162861928Y-110245000D01*
X162877071Y-110398745D01*
X162921916Y-110546582D01*
X162994742Y-110682829D01*
X163033454Y-110730000D01*
X162994742Y-110777171D01*
X162921916Y-110913418D01*
X162877071Y-111061255D01*
X162861928Y-111215000D01*
X162861928Y-111515000D01*
X162877071Y-111668745D01*
X162921916Y-111816582D01*
X162994742Y-111952829D01*
X163033454Y-112000000D01*
X162994742Y-112047171D01*
X162921916Y-112183418D01*
X162877071Y-112331255D01*
X162861928Y-112485000D01*
X162861928Y-112785000D01*
X162877071Y-112938745D01*
X162921916Y-113086582D01*
X162993730Y-113220936D01*
X162969463Y-113250506D01*
X162910498Y-113360820D01*
X162874188Y-113480518D01*
X162861928Y-113605000D01*
X162865000Y-113619250D01*
X163023750Y-113778000D01*
X164348000Y-113778000D01*
X164348000Y-113758000D01*
X164602000Y-113758000D01*
X164602000Y-113778000D01*
X165926250Y-113778000D01*
X166085000Y-113619250D01*
X166088072Y-113605000D01*
X166079701Y-113520000D01*
X167921531Y-113520000D01*
X167965000Y-113524281D01*
X168008469Y-113520000D01*
X168008477Y-113520000D01*
X168138490Y-113507195D01*
X168305313Y-113456589D01*
X168459059Y-113374411D01*
X168593817Y-113263817D01*
X168621534Y-113230044D01*
X170645050Y-111206529D01*
X170678817Y-111178817D01*
X170707343Y-111144059D01*
X170789410Y-111044060D01*
X170789411Y-111044059D01*
X170871589Y-110890313D01*
X170922195Y-110723490D01*
X170935000Y-110593477D01*
X170935000Y-110593467D01*
X170939281Y-110550001D01*
X170935000Y-110506535D01*
X170935000Y-108967888D01*
X170943387Y-108963405D01*
X171077962Y-108852962D01*
X171188405Y-108718387D01*
X171270472Y-108564851D01*
X171321008Y-108398255D01*
X171338072Y-108225001D01*
X171338072Y-106974999D01*
X171321008Y-106801745D01*
X171270472Y-106635149D01*
X171188405Y-106481613D01*
X171077962Y-106347038D01*
X170943387Y-106236595D01*
X170925000Y-106226767D01*
X170925000Y-105498454D01*
X170957205Y-105450256D01*
X171035226Y-105261898D01*
X171075000Y-105061939D01*
X171075000Y-104858061D01*
X171035226Y-104658102D01*
X170957205Y-104469744D01*
X170843937Y-104300226D01*
X170699774Y-104156063D01*
X170530256Y-104042795D01*
X170341898Y-103964774D01*
X170141939Y-103925000D01*
X169938061Y-103925000D01*
X169738102Y-103964774D01*
X169549744Y-104042795D01*
X169380226Y-104156063D01*
X169236063Y-104300226D01*
X169122795Y-104469744D01*
X169044774Y-104658102D01*
X169005000Y-104858061D01*
X169005000Y-105061939D01*
X169044774Y-105261898D01*
X169122795Y-105450256D01*
X169155000Y-105498455D01*
X169155000Y-106237918D01*
X169022038Y-106347038D01*
X168911595Y-106481613D01*
X168829528Y-106635149D01*
X168778992Y-106801745D01*
X168761928Y-106974999D01*
X168761928Y-108225001D01*
X168778992Y-108398255D01*
X168829528Y-108564851D01*
X168911595Y-108718387D01*
X169022038Y-108852962D01*
X169156613Y-108963405D01*
X169165001Y-108967888D01*
X169165000Y-110183421D01*
X167598422Y-111750000D01*
X167101578Y-111750000D01*
X167545050Y-111306529D01*
X167578817Y-111278817D01*
X167689411Y-111144059D01*
X167771589Y-110990313D01*
X167822195Y-110823490D01*
X167835000Y-110693477D01*
X167835000Y-110693469D01*
X167839281Y-110650000D01*
X167835000Y-110606531D01*
X167835000Y-108967888D01*
X167843387Y-108963405D01*
X167977962Y-108852962D01*
X168088405Y-108718387D01*
X168170472Y-108564851D01*
X168221008Y-108398255D01*
X168238072Y-108225001D01*
X168238072Y-106974999D01*
X168221008Y-106801745D01*
X168170472Y-106635149D01*
X168088405Y-106481613D01*
X167977962Y-106347038D01*
X167843387Y-106236595D01*
X167835000Y-106232112D01*
X167835000Y-105981515D01*
X167990256Y-105917205D01*
X168159774Y-105803937D01*
X168303937Y-105659774D01*
X168417205Y-105490256D01*
X168495226Y-105301898D01*
X168535000Y-105101939D01*
X168535000Y-104898061D01*
X168495226Y-104698102D01*
X168417205Y-104509744D01*
X168303937Y-104340226D01*
X168159774Y-104196063D01*
X167990256Y-104082795D01*
X167801898Y-104004774D01*
X167601939Y-103965000D01*
X167398061Y-103965000D01*
X167198102Y-104004774D01*
X167009744Y-104082795D01*
X166840226Y-104196063D01*
X166696063Y-104340226D01*
X166582795Y-104509744D01*
X166504774Y-104698102D01*
X166493465Y-104754957D01*
X166354952Y-104893470D01*
X166321184Y-104921183D01*
X166293471Y-104954951D01*
X166293468Y-104954954D01*
X166210590Y-105055941D01*
X166128412Y-105209687D01*
X166077805Y-105376510D01*
X166060719Y-105550000D01*
X166065001Y-105593479D01*
X166065001Y-106232112D01*
X166056613Y-106236595D01*
X165922038Y-106347038D01*
X165811595Y-106481613D01*
X165729528Y-106635149D01*
X165678992Y-106801745D01*
X165661928Y-106974999D01*
X165661928Y-108225001D01*
X165678992Y-108398255D01*
X165729528Y-108564851D01*
X165811595Y-108718387D01*
X165922038Y-108852962D01*
X166056613Y-108963405D01*
X166065001Y-108967888D01*
X166065000Y-109765117D01*
X166028084Y-109643418D01*
X165955258Y-109507171D01*
X165857251Y-109387749D01*
X165737829Y-109289742D01*
X165601582Y-109216916D01*
X165453745Y-109172071D01*
X165300000Y-109156928D01*
X164885000Y-109156928D01*
X164885000Y-105327278D01*
X164989852Y-105295472D01*
X165143388Y-105213405D01*
X165277963Y-105102963D01*
X165388405Y-104968388D01*
X165399570Y-104947500D01*
X165644031Y-104947500D01*
X165687500Y-104951781D01*
X165730969Y-104947500D01*
X165730977Y-104947500D01*
X165860990Y-104934695D01*
X166027813Y-104884089D01*
X166181559Y-104801911D01*
X166316317Y-104691317D01*
X166344034Y-104657544D01*
X167345049Y-103656530D01*
X167378817Y-103628817D01*
X167489411Y-103494059D01*
X167571589Y-103340313D01*
X167622195Y-103173490D01*
X167635000Y-103043477D01*
X167635000Y-103043469D01*
X167639281Y-103000000D01*
X167635000Y-102956531D01*
X167635000Y-102175000D01*
X168636928Y-102175000D01*
X168649188Y-102299482D01*
X168685498Y-102419180D01*
X168744463Y-102529494D01*
X168823815Y-102626185D01*
X168920506Y-102705537D01*
X169030820Y-102764502D01*
X169150518Y-102800812D01*
X169275000Y-102813072D01*
X169776750Y-102810000D01*
X169935500Y-102651250D01*
X169935500Y-101627000D01*
X170189500Y-101627000D01*
X170189500Y-102651250D01*
X170348250Y-102810000D01*
X170850000Y-102813072D01*
X170974482Y-102800812D01*
X171094180Y-102764502D01*
X171204494Y-102705537D01*
X171301185Y-102626185D01*
X171380537Y-102529494D01*
X171439502Y-102419180D01*
X171475812Y-102299482D01*
X171488072Y-102175000D01*
X171485000Y-101785750D01*
X171326250Y-101627000D01*
X170189500Y-101627000D01*
X169935500Y-101627000D01*
X168798750Y-101627000D01*
X168640000Y-101785750D01*
X168636928Y-102175000D01*
X167635000Y-102175000D01*
X167635000Y-100825000D01*
X168636928Y-100825000D01*
X168640000Y-101214250D01*
X168798750Y-101373000D01*
X169935500Y-101373000D01*
X169935500Y-100348750D01*
X169776750Y-100190000D01*
X169275000Y-100186928D01*
X169150518Y-100199188D01*
X169030820Y-100235498D01*
X168920506Y-100294463D01*
X168823815Y-100373815D01*
X168744463Y-100470506D01*
X168685498Y-100580820D01*
X168649188Y-100700518D01*
X168636928Y-100825000D01*
X167635000Y-100825000D01*
X167635000Y-100293468D01*
X167639281Y-100250000D01*
X167635000Y-100206531D01*
X167635000Y-100206523D01*
X167622195Y-100076510D01*
X167571589Y-99909687D01*
X167489411Y-99755941D01*
X167406532Y-99654953D01*
X167406530Y-99654951D01*
X167378817Y-99621183D01*
X167345050Y-99593471D01*
X166826367Y-99074788D01*
X166852962Y-99052962D01*
X166963405Y-98918387D01*
X167045472Y-98764851D01*
X167096008Y-98598255D01*
X167113072Y-98425001D01*
X167113072Y-97574999D01*
X167096008Y-97401745D01*
X167045472Y-97235149D01*
X166963405Y-97081613D01*
X166852962Y-96947038D01*
X166718387Y-96836595D01*
X166680213Y-96816191D01*
X166739411Y-96744059D01*
X166821589Y-96590313D01*
X166872195Y-96423490D01*
X166885000Y-96293477D01*
X166885000Y-96293469D01*
X166889281Y-96250000D01*
X166885000Y-96206531D01*
X166885000Y-96009985D01*
X166926185Y-95976185D01*
X167005537Y-95879494D01*
X167064502Y-95769180D01*
X167100812Y-95649482D01*
X167113072Y-95525000D01*
X167113072Y-94175000D01*
X167100812Y-94050518D01*
X167064502Y-93930820D01*
X167005537Y-93820506D01*
X166926185Y-93723815D01*
X166829494Y-93644463D01*
X166719180Y-93585498D01*
X166599482Y-93549188D01*
X166475000Y-93536928D01*
X165525000Y-93536928D01*
X165400518Y-93549188D01*
X165280820Y-93585498D01*
X165170506Y-93644463D01*
X165073815Y-93723815D01*
X164994463Y-93820506D01*
X164935498Y-93930820D01*
X164899188Y-94050518D01*
X164886928Y-94175000D01*
X164886928Y-95525000D01*
X164899188Y-95649482D01*
X164935498Y-95769180D01*
X164994463Y-95879494D01*
X165048809Y-95945715D01*
X165030971Y-95967451D01*
X165030968Y-95967454D01*
X164948090Y-96068441D01*
X164865912Y-96222187D01*
X164815305Y-96389010D01*
X164798219Y-96562500D01*
X164802501Y-96605979D01*
X164802501Y-96758616D01*
X164656613Y-96836595D01*
X164522038Y-96947038D01*
X164411595Y-97081613D01*
X164329528Y-97235149D01*
X164278992Y-97401745D01*
X164261928Y-97574999D01*
X164261928Y-98425001D01*
X164278992Y-98598255D01*
X164329528Y-98764851D01*
X164411595Y-98918387D01*
X164522038Y-99052962D01*
X164656613Y-99163405D01*
X164803583Y-99241962D01*
X164815305Y-99360990D01*
X164865912Y-99527813D01*
X164925581Y-99639447D01*
X164900000Y-99636928D01*
X164285750Y-99640000D01*
X164127000Y-99798750D01*
X164127000Y-100810500D01*
X165376250Y-100810500D01*
X165535000Y-100651750D01*
X165537954Y-100289532D01*
X165865000Y-100616579D01*
X165865001Y-102633420D01*
X165367402Y-103131020D01*
X165277963Y-103022037D01*
X165143388Y-102911595D01*
X164989852Y-102829528D01*
X164823257Y-102778992D01*
X164650003Y-102761928D01*
X163349997Y-102761928D01*
X163176743Y-102778992D01*
X163010148Y-102829528D01*
X162856612Y-102911595D01*
X162722037Y-103022037D01*
X162611595Y-103156612D01*
X162600430Y-103177500D01*
X162399570Y-103177500D01*
X162388405Y-103156612D01*
X162277963Y-103022037D01*
X162143388Y-102911595D01*
X161989852Y-102829528D01*
X161823257Y-102778992D01*
X161650003Y-102761928D01*
X160349997Y-102761928D01*
X160176743Y-102778992D01*
X160010148Y-102829528D01*
X159856612Y-102911595D01*
X159722037Y-103022037D01*
X159612500Y-103155510D01*
X159502962Y-103022038D01*
X159368387Y-102911595D01*
X159214851Y-102829528D01*
X159048255Y-102778992D01*
X158875001Y-102761928D01*
X157624999Y-102761928D01*
X157451745Y-102778992D01*
X157285149Y-102829528D01*
X157131613Y-102911595D01*
X156997038Y-103022038D01*
X156886595Y-103156613D01*
X156875431Y-103177500D01*
X156824078Y-103177500D01*
X157095044Y-102906534D01*
X157128817Y-102878817D01*
X157239411Y-102744059D01*
X157321589Y-102590313D01*
X157372195Y-102423490D01*
X157385000Y-102293477D01*
X157385000Y-102293467D01*
X157389281Y-102250001D01*
X157385000Y-102206535D01*
X157385000Y-102200761D01*
X157451745Y-102221008D01*
X157624999Y-102238072D01*
X158875001Y-102238072D01*
X159048255Y-102221008D01*
X159214851Y-102170472D01*
X159368387Y-102088405D01*
X159502962Y-101977962D01*
X159550830Y-101919635D01*
X159569463Y-101954494D01*
X159648815Y-102051185D01*
X159745506Y-102130537D01*
X159855820Y-102189502D01*
X159975518Y-102225812D01*
X160100000Y-102238072D01*
X160714250Y-102235000D01*
X160873000Y-102076250D01*
X160873000Y-101064500D01*
X161127000Y-101064500D01*
X161127000Y-102076250D01*
X161285750Y-102235000D01*
X161900000Y-102238072D01*
X162024482Y-102225812D01*
X162144180Y-102189502D01*
X162254494Y-102130537D01*
X162351185Y-102051185D01*
X162430537Y-101954494D01*
X162489502Y-101844180D01*
X162500000Y-101809573D01*
X162510498Y-101844180D01*
X162569463Y-101954494D01*
X162648815Y-102051185D01*
X162745506Y-102130537D01*
X162855820Y-102189502D01*
X162975518Y-102225812D01*
X163100000Y-102238072D01*
X163714250Y-102235000D01*
X163873000Y-102076250D01*
X163873000Y-101064500D01*
X164127000Y-101064500D01*
X164127000Y-102076250D01*
X164285750Y-102235000D01*
X164900000Y-102238072D01*
X165024482Y-102225812D01*
X165144180Y-102189502D01*
X165254494Y-102130537D01*
X165351185Y-102051185D01*
X165430537Y-101954494D01*
X165489502Y-101844180D01*
X165525812Y-101724482D01*
X165538072Y-101600000D01*
X165535000Y-101223250D01*
X165376250Y-101064500D01*
X164127000Y-101064500D01*
X163873000Y-101064500D01*
X162623750Y-101064500D01*
X162500000Y-101188250D01*
X162376250Y-101064500D01*
X161127000Y-101064500D01*
X160873000Y-101064500D01*
X160853000Y-101064500D01*
X160853000Y-100810500D01*
X160873000Y-100810500D01*
X160873000Y-99798750D01*
X161127000Y-99798750D01*
X161127000Y-100810500D01*
X162376250Y-100810500D01*
X162500000Y-100686750D01*
X162623750Y-100810500D01*
X163873000Y-100810500D01*
X163873000Y-99798750D01*
X163714250Y-99640000D01*
X163100000Y-99636928D01*
X162975518Y-99649188D01*
X162855820Y-99685498D01*
X162745506Y-99744463D01*
X162648815Y-99823815D01*
X162569463Y-99920506D01*
X162510498Y-100030820D01*
X162500000Y-100065427D01*
X162489502Y-100030820D01*
X162430537Y-99920506D01*
X162351185Y-99823815D01*
X162254494Y-99744463D01*
X162144180Y-99685498D01*
X162024482Y-99649188D01*
X161900000Y-99636928D01*
X161285750Y-99640000D01*
X161127000Y-99798750D01*
X160873000Y-99798750D01*
X160714250Y-99640000D01*
X160100000Y-99636928D01*
X159975518Y-99649188D01*
X159855820Y-99685498D01*
X159745506Y-99744463D01*
X159648815Y-99823815D01*
X159569463Y-99920506D01*
X159542738Y-99970505D01*
X159502962Y-99922038D01*
X159368387Y-99811595D01*
X159214851Y-99729528D01*
X159135000Y-99705306D01*
X159135000Y-99386853D01*
X159264250Y-99385000D01*
X159423000Y-99226250D01*
X159423000Y-98127000D01*
X159677000Y-98127000D01*
X159677000Y-99226250D01*
X159835750Y-99385000D01*
X160050000Y-99388072D01*
X160174482Y-99375812D01*
X160294180Y-99339502D01*
X160404494Y-99280537D01*
X160501185Y-99201185D01*
X160580537Y-99104494D01*
X160639502Y-98994180D01*
X160675812Y-98874482D01*
X160688072Y-98750000D01*
X160687576Y-98675000D01*
X161386928Y-98675000D01*
X161399188Y-98799482D01*
X161435498Y-98919180D01*
X161494463Y-99029494D01*
X161573815Y-99126185D01*
X161670506Y-99205537D01*
X161780820Y-99264502D01*
X161900518Y-99300812D01*
X162025000Y-99313072D01*
X162526750Y-99310000D01*
X162685500Y-99151250D01*
X162685500Y-98127000D01*
X162939500Y-98127000D01*
X162939500Y-99151250D01*
X163098250Y-99310000D01*
X163600000Y-99313072D01*
X163724482Y-99300812D01*
X163844180Y-99264502D01*
X163954494Y-99205537D01*
X164051185Y-99126185D01*
X164130537Y-99029494D01*
X164189502Y-98919180D01*
X164225812Y-98799482D01*
X164238072Y-98675000D01*
X164235000Y-98285750D01*
X164076250Y-98127000D01*
X162939500Y-98127000D01*
X162685500Y-98127000D01*
X161548750Y-98127000D01*
X161390000Y-98285750D01*
X161386928Y-98675000D01*
X160687576Y-98675000D01*
X160685000Y-98285750D01*
X160526250Y-98127000D01*
X159677000Y-98127000D01*
X159423000Y-98127000D01*
X159403000Y-98127000D01*
X159403000Y-97873000D01*
X159423000Y-97873000D01*
X159423000Y-96773750D01*
X159677000Y-96773750D01*
X159677000Y-97873000D01*
X160526250Y-97873000D01*
X160685000Y-97714250D01*
X160687575Y-97325000D01*
X161386928Y-97325000D01*
X161390000Y-97714250D01*
X161548750Y-97873000D01*
X162685500Y-97873000D01*
X162685500Y-96848750D01*
X162939500Y-96848750D01*
X162939500Y-97873000D01*
X164076250Y-97873000D01*
X164235000Y-97714250D01*
X164238072Y-97325000D01*
X164225812Y-97200518D01*
X164189502Y-97080820D01*
X164130537Y-96970506D01*
X164051185Y-96873815D01*
X163954494Y-96794463D01*
X163844180Y-96735498D01*
X163724482Y-96699188D01*
X163600000Y-96686928D01*
X163098250Y-96690000D01*
X162939500Y-96848750D01*
X162685500Y-96848750D01*
X162526750Y-96690000D01*
X162025000Y-96686928D01*
X161900518Y-96699188D01*
X161780820Y-96735498D01*
X161670506Y-96794463D01*
X161573815Y-96873815D01*
X161494463Y-96970506D01*
X161435498Y-97080820D01*
X161399188Y-97200518D01*
X161386928Y-97325000D01*
X160687575Y-97325000D01*
X160688072Y-97250000D01*
X160675812Y-97125518D01*
X160639502Y-97005820D01*
X160580537Y-96895506D01*
X160501185Y-96798815D01*
X160404494Y-96719463D01*
X160294180Y-96660498D01*
X160174482Y-96624188D01*
X160050000Y-96611928D01*
X159835750Y-96615000D01*
X159677000Y-96773750D01*
X159423000Y-96773750D01*
X159264250Y-96615000D01*
X159050000Y-96611928D01*
X158925518Y-96624188D01*
X158900000Y-96631929D01*
X158874482Y-96624188D01*
X158750000Y-96611928D01*
X157750000Y-96611928D01*
X157625518Y-96624188D01*
X157505820Y-96660498D01*
X157395506Y-96719463D01*
X157298815Y-96798815D01*
X157219463Y-96895506D01*
X157160498Y-97005820D01*
X157124188Y-97125518D01*
X157111928Y-97250000D01*
X157111928Y-98750000D01*
X157124188Y-98874482D01*
X157160498Y-98994180D01*
X157219463Y-99104494D01*
X157298815Y-99201185D01*
X157365000Y-99255502D01*
X157365001Y-99705305D01*
X157285149Y-99729528D01*
X157131613Y-99811595D01*
X156997038Y-99922038D01*
X156886595Y-100056613D01*
X156875027Y-100078255D01*
X156709687Y-100128411D01*
X156555941Y-100210589D01*
X156421183Y-100321183D01*
X156393466Y-100354956D01*
X156138072Y-100610350D01*
X156138072Y-99725000D01*
X156125812Y-99600518D01*
X156107454Y-99540000D01*
X156125812Y-99479482D01*
X156138072Y-99355000D01*
X156138072Y-98455000D01*
X156125812Y-98330518D01*
X156107454Y-98270000D01*
X156125812Y-98209482D01*
X156138072Y-98085000D01*
X156138072Y-97185000D01*
X156125812Y-97060518D01*
X156107454Y-97000000D01*
X156125812Y-96939482D01*
X156138072Y-96815000D01*
X156138072Y-95915000D01*
X156125812Y-95790518D01*
X156107454Y-95730000D01*
X156125812Y-95669482D01*
X156138072Y-95545000D01*
X156138072Y-95525000D01*
X162586928Y-95525000D01*
X162599188Y-95649482D01*
X162635498Y-95769180D01*
X162694463Y-95879494D01*
X162773815Y-95976185D01*
X162870506Y-96055537D01*
X162980820Y-96114502D01*
X163100518Y-96150812D01*
X163225000Y-96163072D01*
X163414250Y-96160000D01*
X163573000Y-96001250D01*
X163573000Y-94977000D01*
X163827000Y-94977000D01*
X163827000Y-96001250D01*
X163985750Y-96160000D01*
X164175000Y-96163072D01*
X164299482Y-96150812D01*
X164419180Y-96114502D01*
X164529494Y-96055537D01*
X164626185Y-95976185D01*
X164705537Y-95879494D01*
X164764502Y-95769180D01*
X164800812Y-95649482D01*
X164813072Y-95525000D01*
X164810000Y-95135750D01*
X164651250Y-94977000D01*
X163827000Y-94977000D01*
X163573000Y-94977000D01*
X162748750Y-94977000D01*
X162590000Y-95135750D01*
X162586928Y-95525000D01*
X156138072Y-95525000D01*
X156138072Y-94928939D01*
X156298102Y-94995226D01*
X156498061Y-95035000D01*
X156701939Y-95035000D01*
X156901898Y-94995226D01*
X157090256Y-94917205D01*
X157259774Y-94803937D01*
X157403937Y-94659774D01*
X157517205Y-94490256D01*
X157595226Y-94301898D01*
X157620467Y-94175000D01*
X162586928Y-94175000D01*
X162590000Y-94564250D01*
X162748750Y-94723000D01*
X163573000Y-94723000D01*
X163573000Y-93698750D01*
X163827000Y-93698750D01*
X163827000Y-94723000D01*
X164651250Y-94723000D01*
X164810000Y-94564250D01*
X164813072Y-94175000D01*
X164800812Y-94050518D01*
X164764502Y-93930820D01*
X164705537Y-93820506D01*
X164626185Y-93723815D01*
X164529494Y-93644463D01*
X164419180Y-93585498D01*
X164299482Y-93549188D01*
X164175000Y-93536928D01*
X163985750Y-93540000D01*
X163827000Y-93698750D01*
X163573000Y-93698750D01*
X163414250Y-93540000D01*
X163225000Y-93536928D01*
X163100518Y-93549188D01*
X162980820Y-93585498D01*
X162870506Y-93644463D01*
X162773815Y-93723815D01*
X162694463Y-93820506D01*
X162635498Y-93930820D01*
X162599188Y-94050518D01*
X162586928Y-94175000D01*
X157620467Y-94175000D01*
X157635000Y-94101939D01*
X157635000Y-93898061D01*
X157595226Y-93698102D01*
X157517205Y-93509744D01*
X157403937Y-93340226D01*
X157363711Y-93300000D01*
X157403937Y-93259774D01*
X157517205Y-93090256D01*
X157569672Y-92963589D01*
X169915000Y-92963589D01*
X169915000Y-93236411D01*
X169968225Y-93503989D01*
X170072629Y-93756043D01*
X170224201Y-93982886D01*
X170417114Y-94175799D01*
X170643957Y-94327371D01*
X170896011Y-94431775D01*
X171163589Y-94485000D01*
X171436411Y-94485000D01*
X171703989Y-94431775D01*
X171956043Y-94327371D01*
X172182886Y-94175799D01*
X172301692Y-94056993D01*
X175022612Y-94056993D01*
X175088137Y-94295860D01*
X175335116Y-94411760D01*
X175599960Y-94477250D01*
X175872492Y-94489812D01*
X176142238Y-94448965D01*
X176398832Y-94356277D01*
X176511863Y-94295860D01*
X176577388Y-94056993D01*
X175800000Y-93279605D01*
X175022612Y-94056993D01*
X172301692Y-94056993D01*
X172375799Y-93982886D01*
X172527371Y-93756043D01*
X172631775Y-93503989D01*
X172685000Y-93236411D01*
X172685000Y-93172492D01*
X174410188Y-93172492D01*
X174451035Y-93442238D01*
X174543723Y-93698832D01*
X174604140Y-93811863D01*
X174843007Y-93877388D01*
X175620395Y-93100000D01*
X175979605Y-93100000D01*
X176756993Y-93877388D01*
X176995860Y-93811863D01*
X177111760Y-93564884D01*
X177177250Y-93300040D01*
X177189812Y-93027508D01*
X177148965Y-92757762D01*
X177056277Y-92501168D01*
X176995860Y-92388137D01*
X176756993Y-92322612D01*
X175979605Y-93100000D01*
X175620395Y-93100000D01*
X174843007Y-92322612D01*
X174604140Y-92388137D01*
X174488240Y-92635116D01*
X174422750Y-92899960D01*
X174410188Y-93172492D01*
X172685000Y-93172492D01*
X172685000Y-92963589D01*
X172631775Y-92696011D01*
X172527371Y-92443957D01*
X172375799Y-92217114D01*
X172301692Y-92143007D01*
X175022612Y-92143007D01*
X175800000Y-92920395D01*
X176577388Y-92143007D01*
X176511863Y-91904140D01*
X176264884Y-91788240D01*
X176000040Y-91722750D01*
X175727508Y-91710188D01*
X175457762Y-91751035D01*
X175201168Y-91843723D01*
X175088137Y-91904140D01*
X175022612Y-92143007D01*
X172301692Y-92143007D01*
X172182886Y-92024201D01*
X171956043Y-91872629D01*
X171703989Y-91768225D01*
X171436411Y-91715000D01*
X171163589Y-91715000D01*
X170896011Y-91768225D01*
X170643957Y-91872629D01*
X170417114Y-92024201D01*
X170224201Y-92217114D01*
X170072629Y-92443957D01*
X169968225Y-92696011D01*
X169915000Y-92963589D01*
X157569672Y-92963589D01*
X157595226Y-92901898D01*
X157635000Y-92701939D01*
X157635000Y-92498061D01*
X157595226Y-92298102D01*
X157517205Y-92109744D01*
X157403937Y-91940226D01*
X157301783Y-91838072D01*
X158125001Y-91838072D01*
X158298255Y-91821008D01*
X158464851Y-91770472D01*
X158618387Y-91688405D01*
X158752962Y-91577962D01*
X158863405Y-91443387D01*
X158934702Y-91310000D01*
X159065298Y-91310000D01*
X159136595Y-91443386D01*
X159247038Y-91577962D01*
X159381614Y-91688405D01*
X159535150Y-91770472D01*
X159701746Y-91821008D01*
X159875000Y-91838072D01*
X161125000Y-91838072D01*
X161298254Y-91821008D01*
X161464850Y-91770472D01*
X161618386Y-91688405D01*
X161752962Y-91577962D01*
X161863405Y-91443386D01*
X161945472Y-91289850D01*
X161996008Y-91123254D01*
X162013072Y-90950000D01*
X162013072Y-90025000D01*
X161996008Y-89851746D01*
X161945472Y-89685150D01*
X161863405Y-89531614D01*
X161752962Y-89397038D01*
X161618386Y-89286595D01*
X161464850Y-89204528D01*
X161298254Y-89153992D01*
X161125000Y-89136928D01*
X159875000Y-89136928D01*
X159701746Y-89153992D01*
X159535150Y-89204528D01*
X159381614Y-89286595D01*
X159247038Y-89397038D01*
X159136595Y-89531614D01*
X159054528Y-89685150D01*
X159022722Y-89790000D01*
X158934702Y-89790000D01*
X158863405Y-89656613D01*
X158752962Y-89522038D01*
X158618387Y-89411595D01*
X158464851Y-89329528D01*
X158298255Y-89278992D01*
X158125001Y-89261928D01*
X156874999Y-89261928D01*
X156701745Y-89278992D01*
X156535149Y-89329528D01*
X156381613Y-89411595D01*
X156247038Y-89522038D01*
X156138072Y-89654813D01*
X156138072Y-89565000D01*
X156125812Y-89440518D01*
X156107454Y-89380000D01*
X156125812Y-89319482D01*
X156138072Y-89195000D01*
X156138072Y-88345187D01*
X156247038Y-88477962D01*
X156381613Y-88588405D01*
X156535149Y-88670472D01*
X156701745Y-88721008D01*
X156874999Y-88738072D01*
X158125001Y-88738072D01*
X158298255Y-88721008D01*
X158464851Y-88670472D01*
X158618387Y-88588405D01*
X158752962Y-88477962D01*
X158863405Y-88343387D01*
X158945472Y-88189851D01*
X158988195Y-88049012D01*
X158986928Y-88225000D01*
X158999188Y-88349482D01*
X159035498Y-88469180D01*
X159094463Y-88579494D01*
X159173815Y-88676185D01*
X159270506Y-88755537D01*
X159380820Y-88814502D01*
X159500518Y-88850812D01*
X159625000Y-88863072D01*
X160214250Y-88860000D01*
X160373000Y-88701250D01*
X160373000Y-87639500D01*
X160627000Y-87639500D01*
X160627000Y-88701250D01*
X160785750Y-88860000D01*
X161375000Y-88863072D01*
X161499482Y-88850812D01*
X161619180Y-88814502D01*
X161729494Y-88755537D01*
X161826185Y-88676185D01*
X161905537Y-88579494D01*
X161964502Y-88469180D01*
X162000812Y-88349482D01*
X162013072Y-88225000D01*
X162010000Y-87798250D01*
X161851250Y-87639500D01*
X160627000Y-87639500D01*
X160373000Y-87639500D01*
X160353000Y-87639500D01*
X160353000Y-87475000D01*
X163736928Y-87475000D01*
X163736928Y-88825000D01*
X163749188Y-88949482D01*
X163785498Y-89069180D01*
X163844463Y-89179494D01*
X163923815Y-89276185D01*
X164020506Y-89355537D01*
X164130820Y-89414502D01*
X164250518Y-89450812D01*
X164375000Y-89463072D01*
X167625000Y-89463072D01*
X167749482Y-89450812D01*
X167869180Y-89414502D01*
X167979494Y-89355537D01*
X168076185Y-89276185D01*
X168155537Y-89179494D01*
X168214502Y-89069180D01*
X168250812Y-88949482D01*
X168263072Y-88825000D01*
X168263072Y-87475000D01*
X168250812Y-87350518D01*
X168214502Y-87230820D01*
X168155537Y-87120506D01*
X168076185Y-87023815D01*
X167979494Y-86944463D01*
X167869180Y-86885498D01*
X167749482Y-86849188D01*
X167625000Y-86836928D01*
X164375000Y-86836928D01*
X164250518Y-86849188D01*
X164130820Y-86885498D01*
X164020506Y-86944463D01*
X163923815Y-87023815D01*
X163844463Y-87120506D01*
X163785498Y-87230820D01*
X163749188Y-87350518D01*
X163736928Y-87475000D01*
X160353000Y-87475000D01*
X160353000Y-87385500D01*
X160373000Y-87385500D01*
X160373000Y-86323750D01*
X160627000Y-86323750D01*
X160627000Y-87385500D01*
X161851250Y-87385500D01*
X162010000Y-87226750D01*
X162013072Y-86800000D01*
X162000812Y-86675518D01*
X161964502Y-86555820D01*
X161915203Y-86463589D01*
X169915000Y-86463589D01*
X169915000Y-86736411D01*
X169968225Y-87003989D01*
X170072629Y-87256043D01*
X170224201Y-87482886D01*
X170417114Y-87675799D01*
X170643957Y-87827371D01*
X170896011Y-87931775D01*
X171163589Y-87985000D01*
X171436411Y-87985000D01*
X171703989Y-87931775D01*
X171956043Y-87827371D01*
X172182886Y-87675799D01*
X172301692Y-87556993D01*
X175022612Y-87556993D01*
X175088137Y-87795860D01*
X175335116Y-87911760D01*
X175599960Y-87977250D01*
X175872492Y-87989812D01*
X176142238Y-87948965D01*
X176398832Y-87856277D01*
X176511863Y-87795860D01*
X176577388Y-87556993D01*
X175800000Y-86779605D01*
X175022612Y-87556993D01*
X172301692Y-87556993D01*
X172375799Y-87482886D01*
X172527371Y-87256043D01*
X172631775Y-87003989D01*
X172685000Y-86736411D01*
X172685000Y-86672492D01*
X174410188Y-86672492D01*
X174451035Y-86942238D01*
X174543723Y-87198832D01*
X174604140Y-87311863D01*
X174843007Y-87377388D01*
X175620395Y-86600000D01*
X175979605Y-86600000D01*
X176756993Y-87377388D01*
X176995860Y-87311863D01*
X177111760Y-87064884D01*
X177177250Y-86800040D01*
X177189812Y-86527508D01*
X177148965Y-86257762D01*
X177056277Y-86001168D01*
X176995860Y-85888137D01*
X176756993Y-85822612D01*
X175979605Y-86600000D01*
X175620395Y-86600000D01*
X174843007Y-85822612D01*
X174604140Y-85888137D01*
X174488240Y-86135116D01*
X174422750Y-86399960D01*
X174410188Y-86672492D01*
X172685000Y-86672492D01*
X172685000Y-86463589D01*
X172631775Y-86196011D01*
X172527371Y-85943957D01*
X172375799Y-85717114D01*
X172301692Y-85643007D01*
X175022612Y-85643007D01*
X175800000Y-86420395D01*
X176577388Y-85643007D01*
X176511863Y-85404140D01*
X176264884Y-85288240D01*
X176000040Y-85222750D01*
X175727508Y-85210188D01*
X175457762Y-85251035D01*
X175201168Y-85343723D01*
X175088137Y-85404140D01*
X175022612Y-85643007D01*
X172301692Y-85643007D01*
X172182886Y-85524201D01*
X171956043Y-85372629D01*
X171703989Y-85268225D01*
X171436411Y-85215000D01*
X171163589Y-85215000D01*
X170896011Y-85268225D01*
X170643957Y-85372629D01*
X170417114Y-85524201D01*
X170224201Y-85717114D01*
X170072629Y-85943957D01*
X169968225Y-86196011D01*
X169915000Y-86463589D01*
X161915203Y-86463589D01*
X161905537Y-86445506D01*
X161826185Y-86348815D01*
X161729494Y-86269463D01*
X161619180Y-86210498D01*
X161499482Y-86174188D01*
X161375000Y-86161928D01*
X160785750Y-86165000D01*
X160627000Y-86323750D01*
X160373000Y-86323750D01*
X160214250Y-86165000D01*
X159625000Y-86161928D01*
X159500518Y-86174188D01*
X159380820Y-86210498D01*
X159270506Y-86269463D01*
X159173815Y-86348815D01*
X159094463Y-86445506D01*
X159035498Y-86555820D01*
X158999188Y-86675518D01*
X158986928Y-86800000D01*
X158987273Y-86847950D01*
X158945472Y-86710149D01*
X158863405Y-86556613D01*
X158752962Y-86422038D01*
X158618387Y-86311595D01*
X158464851Y-86229528D01*
X158298255Y-86178992D01*
X158184166Y-86167755D01*
X158134974Y-86075724D01*
X158040001Y-85959999D01*
X158010998Y-85936197D01*
X157563804Y-85489003D01*
X157540001Y-85459999D01*
X157424276Y-85365026D01*
X157292247Y-85294454D01*
X157148986Y-85250997D01*
X157037333Y-85240000D01*
X157037322Y-85240000D01*
X157000000Y-85236324D01*
X156962678Y-85240000D01*
X150787322Y-85240000D01*
X150749999Y-85236324D01*
X150712676Y-85240000D01*
X150712667Y-85240000D01*
X150601014Y-85250997D01*
X150457753Y-85294454D01*
X150325724Y-85365026D01*
X150209999Y-85459999D01*
X150186196Y-85489003D01*
X149933998Y-85741201D01*
X149905000Y-85764999D01*
X149881202Y-85793997D01*
X149881201Y-85793998D01*
X149810026Y-85880724D01*
X149739454Y-86012754D01*
X149708396Y-86115142D01*
X149625000Y-86106928D01*
X148725000Y-86106928D01*
X148600518Y-86119188D01*
X148540000Y-86137546D01*
X148479482Y-86119188D01*
X148355000Y-86106928D01*
X147455000Y-86106928D01*
X147330518Y-86119188D01*
X147270000Y-86137546D01*
X147209482Y-86119188D01*
X147085000Y-86106928D01*
X146185000Y-86106928D01*
X146060518Y-86119188D01*
X146000000Y-86137546D01*
X145939482Y-86119188D01*
X145815000Y-86106928D01*
X144915000Y-86106928D01*
X144790518Y-86119188D01*
X144730000Y-86137546D01*
X144669482Y-86119188D01*
X144545000Y-86106928D01*
X143645000Y-86106928D01*
X143520518Y-86119188D01*
X143460000Y-86137546D01*
X143399482Y-86119188D01*
X143275000Y-86106928D01*
X142375000Y-86106928D01*
X142250518Y-86119188D01*
X142190000Y-86137546D01*
X142129482Y-86119188D01*
X142005000Y-86106928D01*
X141105000Y-86106928D01*
X140980518Y-86119188D01*
X140920000Y-86137546D01*
X140859482Y-86119188D01*
X140735000Y-86106928D01*
X139835000Y-86106928D01*
X139710518Y-86119188D01*
X139590820Y-86155498D01*
X139480506Y-86214463D01*
X139383815Y-86293815D01*
X139304463Y-86390506D01*
X139245498Y-86500820D01*
X139209188Y-86620518D01*
X139196928Y-86745000D01*
X139196928Y-88745000D01*
X139209188Y-88869482D01*
X139245498Y-88989180D01*
X139304463Y-89099494D01*
X139383815Y-89196185D01*
X139455482Y-89255000D01*
X139132163Y-89255000D01*
X139138072Y-89195000D01*
X139138072Y-88295000D01*
X139125812Y-88170518D01*
X139089502Y-88050820D01*
X139030537Y-87940506D01*
X138951185Y-87843815D01*
X138854494Y-87764463D01*
X138744180Y-87705498D01*
X138624482Y-87669188D01*
X138500000Y-87656928D01*
X136500000Y-87656928D01*
X136375518Y-87669188D01*
X136255820Y-87705498D01*
X136145506Y-87764463D01*
X136048815Y-87843815D01*
X136033917Y-87861968D01*
X135990256Y-87832795D01*
X135801898Y-87754774D01*
X135601939Y-87715000D01*
X135398061Y-87715000D01*
X135198102Y-87754774D01*
X135009744Y-87832795D01*
X134840226Y-87946063D01*
X134696063Y-88090226D01*
X134582795Y-88259744D01*
X134504774Y-88448102D01*
X134465000Y-88648061D01*
X134465000Y-88851939D01*
X134504774Y-89051898D01*
X134582795Y-89240256D01*
X134696063Y-89409774D01*
X134840226Y-89553937D01*
X135009744Y-89667205D01*
X135198102Y-89745226D01*
X135398061Y-89785000D01*
X135601939Y-89785000D01*
X135801898Y-89745226D01*
X135861928Y-89720361D01*
X135861928Y-90465000D01*
X135874188Y-90589482D01*
X135892546Y-90650000D01*
X135874188Y-90710518D01*
X135861928Y-90835000D01*
X135861928Y-91735000D01*
X135874188Y-91859482D01*
X135892546Y-91920000D01*
X135874188Y-91980518D01*
X135861928Y-92105000D01*
X135861928Y-93005000D01*
X135874188Y-93129482D01*
X135892546Y-93190000D01*
X135874188Y-93250518D01*
X135861928Y-93375000D01*
X135861928Y-94275000D01*
X135874188Y-94399482D01*
X135892546Y-94460000D01*
X135874188Y-94520518D01*
X135861928Y-94645000D01*
X135861928Y-95545000D01*
X135874188Y-95669482D01*
X135892546Y-95730000D01*
X135874188Y-95790518D01*
X135861928Y-95915000D01*
X135861928Y-96815000D01*
X135874188Y-96939482D01*
X135892546Y-97000000D01*
X135874188Y-97060518D01*
X135861928Y-97185000D01*
X135861928Y-98085000D01*
X135867837Y-98145000D01*
X133632323Y-98145000D01*
X133595000Y-98141324D01*
X133557677Y-98145000D01*
X133557667Y-98145000D01*
X133446014Y-98155997D01*
X133302753Y-98199454D01*
X133170724Y-98270026D01*
X133054999Y-98364999D01*
X133031201Y-98393997D01*
X130739003Y-100686196D01*
X130709999Y-100709999D01*
X130660000Y-100770924D01*
X130660000Y-96088967D01*
X132365000Y-96088967D01*
X132365000Y-96411033D01*
X132427832Y-96726912D01*
X132551082Y-97024463D01*
X132730013Y-97292252D01*
X132957748Y-97519987D01*
X133225537Y-97698918D01*
X133523088Y-97822168D01*
X133838967Y-97885000D01*
X134161033Y-97885000D01*
X134476912Y-97822168D01*
X134774463Y-97698918D01*
X135042252Y-97519987D01*
X135269987Y-97292252D01*
X135448918Y-97024463D01*
X135572168Y-96726912D01*
X135635000Y-96411033D01*
X135635000Y-96088967D01*
X135572168Y-95773088D01*
X135448918Y-95475537D01*
X135269987Y-95207748D01*
X135042252Y-94980013D01*
X134774463Y-94801082D01*
X134476912Y-94677832D01*
X134161033Y-94615000D01*
X133838967Y-94615000D01*
X133523088Y-94677832D01*
X133225537Y-94801082D01*
X132957748Y-94980013D01*
X132730013Y-95207748D01*
X132551082Y-95475537D01*
X132427832Y-95773088D01*
X132365000Y-96088967D01*
X130660000Y-96088967D01*
X130660000Y-85127000D01*
X179340000Y-85127000D01*
X179340001Y-124873000D01*
%TA.AperFunction,Conductor*%
D25*
G36*
X179340001Y-124873000D02*
G01*
X130660000Y-124873000D01*
X130660000Y-121979076D01*
X130686201Y-122011002D01*
X130710000Y-122040001D01*
X130738998Y-122063799D01*
X132286201Y-123611003D01*
X132309999Y-123640001D01*
X132425724Y-123734974D01*
X132557753Y-123805546D01*
X132701014Y-123849003D01*
X132812667Y-123860000D01*
X132812675Y-123860000D01*
X132850000Y-123863676D01*
X132887325Y-123860000D01*
X133565298Y-123860000D01*
X133636595Y-123993387D01*
X133747038Y-124127962D01*
X133881613Y-124238405D01*
X134035149Y-124320472D01*
X134201745Y-124371008D01*
X134374999Y-124388072D01*
X135625001Y-124388072D01*
X135798255Y-124371008D01*
X135964851Y-124320472D01*
X136118387Y-124238405D01*
X136252962Y-124127962D01*
X136363405Y-123993387D01*
X136445472Y-123839851D01*
X136487165Y-123702407D01*
X136499188Y-123824482D01*
X136535498Y-123944180D01*
X136594463Y-124054494D01*
X136673815Y-124151185D01*
X136770506Y-124230537D01*
X136880820Y-124289502D01*
X137000518Y-124325812D01*
X137125000Y-124338072D01*
X137714250Y-124335000D01*
X137873000Y-124176250D01*
X137873000Y-123114500D01*
X138127000Y-123114500D01*
X138127000Y-124176250D01*
X138285750Y-124335000D01*
X138875000Y-124338072D01*
X138999482Y-124325812D01*
X139119180Y-124289502D01*
X139229494Y-124230537D01*
X139326185Y-124151185D01*
X139339128Y-124135413D01*
X151044192Y-124135413D01*
X151139956Y-124399814D01*
X151429571Y-124540704D01*
X151741108Y-124622384D01*
X152062595Y-124641718D01*
X152381675Y-124597961D01*
X152686088Y-124492795D01*
X152860044Y-124399814D01*
X152955808Y-124135413D01*
X152000000Y-123179605D01*
X151044192Y-124135413D01*
X139339128Y-124135413D01*
X139405537Y-124054494D01*
X139464502Y-123944180D01*
X139500812Y-123824482D01*
X139513072Y-123700000D01*
X139510000Y-123273250D01*
X139351250Y-123114500D01*
X138127000Y-123114500D01*
X137873000Y-123114500D01*
X137853000Y-123114500D01*
X137853000Y-122860500D01*
X137873000Y-122860500D01*
X137873000Y-121798750D01*
X138127000Y-121798750D01*
X138127000Y-122860500D01*
X139351250Y-122860500D01*
X139510000Y-122701750D01*
X139512505Y-122353740D01*
X142725000Y-122353740D01*
X142725000Y-122646260D01*
X142782068Y-122933158D01*
X142894010Y-123203411D01*
X143056525Y-123446632D01*
X143263368Y-123653475D01*
X143506589Y-123815990D01*
X143776842Y-123927932D01*
X144063740Y-123985000D01*
X144356260Y-123985000D01*
X144643158Y-123927932D01*
X144913411Y-123815990D01*
X145156632Y-123653475D01*
X145288487Y-123521620D01*
X145310498Y-123594180D01*
X145369463Y-123704494D01*
X145448815Y-123801185D01*
X145545506Y-123880537D01*
X145655820Y-123939502D01*
X145775518Y-123975812D01*
X145900000Y-123988072D01*
X146464250Y-123985000D01*
X146623000Y-123826250D01*
X146623000Y-122627000D01*
X146877000Y-122627000D01*
X146877000Y-123826250D01*
X147035750Y-123985000D01*
X147600000Y-123988072D01*
X147724482Y-123975812D01*
X147844180Y-123939502D01*
X147954494Y-123880537D01*
X148051185Y-123801185D01*
X148130537Y-123704494D01*
X148189502Y-123594180D01*
X148225812Y-123474482D01*
X148238072Y-123350000D01*
X148236508Y-123062595D01*
X150358282Y-123062595D01*
X150402039Y-123381675D01*
X150507205Y-123686088D01*
X150600186Y-123860044D01*
X150864587Y-123955808D01*
X151820395Y-123000000D01*
X152179605Y-123000000D01*
X153135413Y-123955808D01*
X153399814Y-123860044D01*
X153540704Y-123570429D01*
X153622384Y-123258892D01*
X153641718Y-122937405D01*
X153597961Y-122618325D01*
X153492795Y-122313912D01*
X153399814Y-122139956D01*
X153135413Y-122044192D01*
X152179605Y-123000000D01*
X151820395Y-123000000D01*
X150864587Y-122044192D01*
X150600186Y-122139956D01*
X150459296Y-122429571D01*
X150377616Y-122741108D01*
X150358282Y-123062595D01*
X148236508Y-123062595D01*
X148235000Y-122785750D01*
X148076250Y-122627000D01*
X146877000Y-122627000D01*
X146623000Y-122627000D01*
X146603000Y-122627000D01*
X146603000Y-122373000D01*
X146623000Y-122373000D01*
X146623000Y-121173750D01*
X146877000Y-121173750D01*
X146877000Y-122373000D01*
X148076250Y-122373000D01*
X148235000Y-122214250D01*
X148236903Y-121864587D01*
X151044192Y-121864587D01*
X152000000Y-122820395D01*
X152955808Y-121864587D01*
X152860044Y-121600186D01*
X152570429Y-121459296D01*
X152258892Y-121377616D01*
X151937405Y-121358282D01*
X151618325Y-121402039D01*
X151313912Y-121507205D01*
X151139956Y-121600186D01*
X151044192Y-121864587D01*
X148236903Y-121864587D01*
X148238072Y-121650000D01*
X148225812Y-121525518D01*
X148189502Y-121405820D01*
X148130537Y-121295506D01*
X148051185Y-121198815D01*
X147954494Y-121119463D01*
X147844180Y-121060498D01*
X147724482Y-121024188D01*
X147600000Y-121011928D01*
X147035750Y-121015000D01*
X146877000Y-121173750D01*
X146623000Y-121173750D01*
X146464250Y-121015000D01*
X145900000Y-121011928D01*
X145775518Y-121024188D01*
X145655820Y-121060498D01*
X145545506Y-121119463D01*
X145448815Y-121198815D01*
X145369463Y-121295506D01*
X145310498Y-121405820D01*
X145288487Y-121478380D01*
X145156632Y-121346525D01*
X144913411Y-121184010D01*
X144643158Y-121072068D01*
X144356260Y-121015000D01*
X144063740Y-121015000D01*
X143776842Y-121072068D01*
X143506589Y-121184010D01*
X143263368Y-121346525D01*
X143056525Y-121553368D01*
X142894010Y-121796589D01*
X142782068Y-122066842D01*
X142725000Y-122353740D01*
X139512505Y-122353740D01*
X139513072Y-122275000D01*
X139500812Y-122150518D01*
X139464502Y-122030820D01*
X139405537Y-121920506D01*
X139326185Y-121823815D01*
X139229494Y-121744463D01*
X139119180Y-121685498D01*
X138999482Y-121649188D01*
X138875000Y-121636928D01*
X138285750Y-121640000D01*
X138127000Y-121798750D01*
X137873000Y-121798750D01*
X137714250Y-121640000D01*
X137125000Y-121636928D01*
X137000518Y-121649188D01*
X136880820Y-121685498D01*
X136770506Y-121744463D01*
X136673815Y-121823815D01*
X136594463Y-121920506D01*
X136535498Y-122030820D01*
X136499188Y-122150518D01*
X136486928Y-122275000D01*
X136488564Y-122502204D01*
X136445472Y-122360149D01*
X136363405Y-122206613D01*
X136252962Y-122072038D01*
X136118387Y-121961595D01*
X135964851Y-121879528D01*
X135798255Y-121828992D01*
X135625001Y-121811928D01*
X134374999Y-121811928D01*
X134201745Y-121828992D01*
X134035149Y-121879528D01*
X133881613Y-121961595D01*
X133747038Y-122072038D01*
X133636595Y-122206613D01*
X133565298Y-122340000D01*
X133164802Y-122340000D01*
X132010000Y-121185199D01*
X132010000Y-119599999D01*
X133486928Y-119599999D01*
X133486928Y-120400001D01*
X133503992Y-120573255D01*
X133554528Y-120739851D01*
X133636595Y-120893387D01*
X133747038Y-121027962D01*
X133881613Y-121138405D01*
X134035149Y-121220472D01*
X134201745Y-121271008D01*
X134374999Y-121288072D01*
X135625001Y-121288072D01*
X135798255Y-121271008D01*
X135964851Y-121220472D01*
X136118387Y-121138405D01*
X136252962Y-121027962D01*
X136363405Y-120893387D01*
X136434702Y-120760000D01*
X136537890Y-120760000D01*
X136554528Y-120814850D01*
X136636595Y-120968386D01*
X136747038Y-121102962D01*
X136881614Y-121213405D01*
X137035150Y-121295472D01*
X137201746Y-121346008D01*
X137375000Y-121363072D01*
X138625000Y-121363072D01*
X138798254Y-121346008D01*
X138964850Y-121295472D01*
X139118386Y-121213405D01*
X139252962Y-121102962D01*
X139363405Y-120968386D01*
X139445472Y-120814850D01*
X139496008Y-120648254D01*
X139513072Y-120475000D01*
X139513072Y-119550000D01*
X139496008Y-119376746D01*
X139445472Y-119210150D01*
X139363405Y-119056614D01*
X139252962Y-118922038D01*
X139118386Y-118811595D01*
X138964850Y-118729528D01*
X138798254Y-118678992D01*
X138625000Y-118661928D01*
X137375000Y-118661928D01*
X137201746Y-118678992D01*
X137035150Y-118729528D01*
X136881614Y-118811595D01*
X136747038Y-118922038D01*
X136636595Y-119056614D01*
X136554528Y-119210150D01*
X136545473Y-119240000D01*
X136434702Y-119240000D01*
X136363405Y-119106613D01*
X136252962Y-118972038D01*
X136118387Y-118861595D01*
X135964851Y-118779528D01*
X135798255Y-118728992D01*
X135625001Y-118711928D01*
X134374999Y-118711928D01*
X134201745Y-118728992D01*
X134035149Y-118779528D01*
X133881613Y-118861595D01*
X133747038Y-118972038D01*
X133636595Y-119106613D01*
X133554528Y-119260149D01*
X133503992Y-119426745D01*
X133486928Y-119599999D01*
X132010000Y-119599999D01*
X132010000Y-113588967D01*
X132365000Y-113588967D01*
X132365000Y-113911033D01*
X132427832Y-114226912D01*
X132551082Y-114524463D01*
X132730013Y-114792252D01*
X132957748Y-115019987D01*
X133225537Y-115198918D01*
X133523088Y-115322168D01*
X133838967Y-115385000D01*
X134161033Y-115385000D01*
X134476912Y-115322168D01*
X134774463Y-115198918D01*
X135042252Y-115019987D01*
X135269987Y-114792252D01*
X135448918Y-114524463D01*
X135572168Y-114226912D01*
X135635000Y-113911033D01*
X135635000Y-113588967D01*
X135572168Y-113273088D01*
X135448918Y-112975537D01*
X135269987Y-112707748D01*
X135042252Y-112480013D01*
X134774463Y-112301082D01*
X134476912Y-112177832D01*
X134161033Y-112115000D01*
X133838967Y-112115000D01*
X133523088Y-112177832D01*
X133225537Y-112301082D01*
X132957748Y-112480013D01*
X132730013Y-112707748D01*
X132551082Y-112975537D01*
X132427832Y-113273088D01*
X132365000Y-113588967D01*
X132010000Y-113588967D01*
X132010000Y-107838967D01*
X132365000Y-107838967D01*
X132365000Y-108161033D01*
X132427832Y-108476912D01*
X132551082Y-108774463D01*
X132730013Y-109042252D01*
X132957748Y-109269987D01*
X133225537Y-109448918D01*
X133523088Y-109572168D01*
X133838967Y-109635000D01*
X134029869Y-109635000D01*
X136865001Y-112470133D01*
X136865000Y-115944248D01*
X136859509Y-116000000D01*
X136865000Y-116055751D01*
X136881423Y-116222498D01*
X136946324Y-116436446D01*
X137051716Y-116633623D01*
X137193551Y-116806449D01*
X137236865Y-116841996D01*
X139658009Y-119263141D01*
X139693551Y-119306449D01*
X139840132Y-119426745D01*
X139866377Y-119448284D01*
X140063553Y-119553676D01*
X140277501Y-119618577D01*
X140500000Y-119640491D01*
X140555751Y-119635000D01*
X155529869Y-119635000D01*
X156865000Y-120970132D01*
X156865001Y-121822760D01*
X156730013Y-121957748D01*
X156551082Y-122225537D01*
X156427832Y-122523088D01*
X156365000Y-122838967D01*
X156365000Y-123161033D01*
X156427832Y-123476912D01*
X156551082Y-123774463D01*
X156730013Y-124042252D01*
X156957748Y-124269987D01*
X157225537Y-124448918D01*
X157523088Y-124572168D01*
X157838967Y-124635000D01*
X158161033Y-124635000D01*
X158476912Y-124572168D01*
X158774463Y-124448918D01*
X159042252Y-124269987D01*
X159177239Y-124135000D01*
X172544249Y-124135000D01*
X172600000Y-124140491D01*
X172655751Y-124135000D01*
X172655752Y-124135000D01*
X172822499Y-124118577D01*
X173036447Y-124053676D01*
X173233623Y-123948284D01*
X173406449Y-123806449D01*
X173441996Y-123763135D01*
X173883135Y-123321996D01*
X173926449Y-123286449D01*
X174068284Y-123113623D01*
X174173676Y-122916447D01*
X174238577Y-122702499D01*
X174255000Y-122535752D01*
X174255000Y-122535751D01*
X174260491Y-122480001D01*
X174255000Y-122424249D01*
X174255000Y-120465107D01*
X174273475Y-120446632D01*
X174435990Y-120203411D01*
X174547932Y-119933158D01*
X174605000Y-119646260D01*
X174605000Y-119353740D01*
X174547932Y-119066842D01*
X174435990Y-118796589D01*
X174273475Y-118553368D01*
X174135000Y-118414893D01*
X174135000Y-113588967D01*
X174365000Y-113588967D01*
X174365000Y-113911033D01*
X174427832Y-114226912D01*
X174551082Y-114524463D01*
X174730013Y-114792252D01*
X174957748Y-115019987D01*
X175225537Y-115198918D01*
X175523088Y-115322168D01*
X175838967Y-115385000D01*
X176161033Y-115385000D01*
X176476912Y-115322168D01*
X176774463Y-115198918D01*
X177042252Y-115019987D01*
X177269987Y-114792252D01*
X177448918Y-114524463D01*
X177572168Y-114226912D01*
X177635000Y-113911033D01*
X177635000Y-113588967D01*
X177572168Y-113273088D01*
X177448918Y-112975537D01*
X177269987Y-112707748D01*
X177042252Y-112480013D01*
X176774463Y-112301082D01*
X176476912Y-112177832D01*
X176161033Y-112115000D01*
X175838967Y-112115000D01*
X175523088Y-112177832D01*
X175225537Y-112301082D01*
X174957748Y-112480013D01*
X174730013Y-112707748D01*
X174551082Y-112975537D01*
X174427832Y-113273088D01*
X174365000Y-113588967D01*
X174135000Y-113588967D01*
X174135000Y-107740132D01*
X174365000Y-107970132D01*
X174365000Y-108161033D01*
X174427832Y-108476912D01*
X174551082Y-108774463D01*
X174730013Y-109042252D01*
X174957748Y-109269987D01*
X175225537Y-109448918D01*
X175523088Y-109572168D01*
X175838967Y-109635000D01*
X176161033Y-109635000D01*
X176476912Y-109572168D01*
X176774463Y-109448918D01*
X177042252Y-109269987D01*
X177269987Y-109042252D01*
X177448918Y-108774463D01*
X177572168Y-108476912D01*
X177635000Y-108161033D01*
X177635000Y-107838967D01*
X177572168Y-107523088D01*
X177448918Y-107225537D01*
X177269987Y-106957748D01*
X177042252Y-106730013D01*
X176774463Y-106551082D01*
X176476912Y-106427832D01*
X176161033Y-106365000D01*
X175970132Y-106365000D01*
X174135000Y-104529869D01*
X174135000Y-103135413D01*
X175044192Y-103135413D01*
X175139956Y-103399814D01*
X175429571Y-103540704D01*
X175741108Y-103622384D01*
X176062595Y-103641718D01*
X176381675Y-103597961D01*
X176686088Y-103492795D01*
X176860044Y-103399814D01*
X176955808Y-103135413D01*
X176000000Y-102179605D01*
X175044192Y-103135413D01*
X174135000Y-103135413D01*
X174135000Y-102513924D01*
X174213405Y-102418387D01*
X174295472Y-102264851D01*
X174346008Y-102098255D01*
X174349520Y-102062595D01*
X174358282Y-102062595D01*
X174402039Y-102381675D01*
X174507205Y-102686088D01*
X174600186Y-102860044D01*
X174864587Y-102955808D01*
X175820395Y-102000000D01*
X176179605Y-102000000D01*
X177135413Y-102955808D01*
X177399814Y-102860044D01*
X177540704Y-102570429D01*
X177622384Y-102258892D01*
X177641718Y-101937405D01*
X177597961Y-101618325D01*
X177492795Y-101313912D01*
X177399814Y-101139956D01*
X177135413Y-101044192D01*
X176179605Y-102000000D01*
X175820395Y-102000000D01*
X174864587Y-101044192D01*
X174600186Y-101139956D01*
X174459296Y-101429571D01*
X174377616Y-101741108D01*
X174358282Y-102062595D01*
X174349520Y-102062595D01*
X174363072Y-101925001D01*
X174363072Y-101074999D01*
X174346008Y-100901745D01*
X174334737Y-100864587D01*
X175044192Y-100864587D01*
X176000000Y-101820395D01*
X176955808Y-100864587D01*
X176860044Y-100600186D01*
X176570429Y-100459296D01*
X176258892Y-100377616D01*
X175937405Y-100358282D01*
X175618325Y-100402039D01*
X175313912Y-100507205D01*
X175139956Y-100600186D01*
X175044192Y-100864587D01*
X174334737Y-100864587D01*
X174295472Y-100735149D01*
X174213405Y-100581613D01*
X174102962Y-100447038D01*
X173968387Y-100336595D01*
X173814851Y-100254528D01*
X173648255Y-100203992D01*
X173549386Y-100194254D01*
X169444099Y-96088967D01*
X174365000Y-96088967D01*
X174365000Y-96411033D01*
X174427832Y-96726912D01*
X174551082Y-97024463D01*
X174730013Y-97292252D01*
X174957748Y-97519987D01*
X175225537Y-97698918D01*
X175523088Y-97822168D01*
X175838967Y-97885000D01*
X176161033Y-97885000D01*
X176476912Y-97822168D01*
X176774463Y-97698918D01*
X177042252Y-97519987D01*
X177269987Y-97292252D01*
X177448918Y-97024463D01*
X177572168Y-96726912D01*
X177635000Y-96411033D01*
X177635000Y-96088967D01*
X177572168Y-95773088D01*
X177448918Y-95475537D01*
X177269987Y-95207748D01*
X177042252Y-94980013D01*
X176774463Y-94801082D01*
X176476912Y-94677832D01*
X176161033Y-94615000D01*
X175838967Y-94615000D01*
X175523088Y-94677832D01*
X175225537Y-94801082D01*
X174957748Y-94980013D01*
X174730013Y-95207748D01*
X174551082Y-95475537D01*
X174427832Y-95773088D01*
X174365000Y-96088967D01*
X169444099Y-96088967D01*
X169435000Y-96079869D01*
X169435000Y-94794248D01*
X169418577Y-94627501D01*
X169413072Y-94609354D01*
X169413072Y-94175000D01*
X169400812Y-94050518D01*
X169364502Y-93930820D01*
X169305537Y-93820506D01*
X169226185Y-93723815D01*
X169129494Y-93644463D01*
X169019180Y-93585498D01*
X168899482Y-93549188D01*
X168775000Y-93536928D01*
X167825000Y-93536928D01*
X167700518Y-93549188D01*
X167580820Y-93585498D01*
X167470506Y-93644463D01*
X167373815Y-93723815D01*
X167294463Y-93820506D01*
X167235498Y-93930820D01*
X167199188Y-94050518D01*
X167186928Y-94175000D01*
X167186928Y-94609357D01*
X167181424Y-94627501D01*
X167165000Y-94794248D01*
X167165000Y-96494249D01*
X167159509Y-96550000D01*
X167165000Y-96605751D01*
X167181423Y-96772498D01*
X167246324Y-96986446D01*
X167351716Y-97183623D01*
X167493551Y-97356449D01*
X167536865Y-97391996D01*
X170341559Y-100196691D01*
X170189500Y-100348750D01*
X170189500Y-101373000D01*
X171326250Y-101373000D01*
X171422059Y-101277191D01*
X171511928Y-101367060D01*
X171511928Y-101925001D01*
X171528992Y-102098255D01*
X171579528Y-102264851D01*
X171661595Y-102418387D01*
X171772038Y-102552962D01*
X171865001Y-102629255D01*
X171865001Y-104944241D01*
X171859509Y-105000000D01*
X171865001Y-105055759D01*
X171865000Y-118705311D01*
X171844805Y-118735534D01*
X171775178Y-118618645D01*
X171580269Y-118402412D01*
X171346920Y-118228359D01*
X171084099Y-118103175D01*
X170936890Y-118058524D01*
X170707000Y-118179845D01*
X170707000Y-119373000D01*
X170727000Y-119373000D01*
X170727000Y-119627000D01*
X170707000Y-119627000D01*
X170707000Y-120820155D01*
X170936890Y-120941476D01*
X171084099Y-120896825D01*
X171346920Y-120771641D01*
X171580269Y-120597588D01*
X171775178Y-120381355D01*
X171844805Y-120264466D01*
X171966525Y-120446632D01*
X171985001Y-120465108D01*
X171985000Y-121865000D01*
X159177239Y-121865000D01*
X159135000Y-121822761D01*
X159135000Y-120555751D01*
X159140491Y-120499999D01*
X159118577Y-120277500D01*
X159079592Y-120148986D01*
X159053676Y-120063553D01*
X158948284Y-119866377D01*
X158806449Y-119693551D01*
X158763141Y-119658009D01*
X156841996Y-117736865D01*
X156806449Y-117693551D01*
X156633623Y-117551716D01*
X156436447Y-117446324D01*
X156222499Y-117381423D01*
X156055752Y-117365000D01*
X156055751Y-117365000D01*
X156000000Y-117359509D01*
X155944249Y-117365000D01*
X140970132Y-117365000D01*
X139135000Y-115529869D01*
X139135000Y-112055741D01*
X139140490Y-111999999D01*
X139135000Y-111944257D01*
X139135000Y-111944248D01*
X139118577Y-111777501D01*
X139053676Y-111563553D01*
X138948284Y-111366377D01*
X138806449Y-111193551D01*
X138763141Y-111158009D01*
X135635000Y-108029869D01*
X135635000Y-107838967D01*
X135572168Y-107523088D01*
X135448918Y-107225537D01*
X135269987Y-106957748D01*
X135042252Y-106730013D01*
X134774463Y-106551082D01*
X134476912Y-106427832D01*
X134161033Y-106365000D01*
X133838967Y-106365000D01*
X133523088Y-106427832D01*
X133225537Y-106551082D01*
X132957748Y-106730013D01*
X132730013Y-106957748D01*
X132551082Y-107225537D01*
X132427832Y-107523088D01*
X132365000Y-107838967D01*
X132010000Y-107838967D01*
X132010000Y-105705000D01*
X135861928Y-105705000D01*
X135874188Y-105829482D01*
X135910498Y-105949180D01*
X135969463Y-106059494D01*
X136048815Y-106156185D01*
X136145506Y-106235537D01*
X136255820Y-106294502D01*
X136375518Y-106330812D01*
X136500000Y-106343072D01*
X137214250Y-106340000D01*
X137373000Y-106181250D01*
X137373000Y-105382000D01*
X137627000Y-105382000D01*
X137627000Y-106181250D01*
X137785750Y-106340000D01*
X138500000Y-106343072D01*
X138624482Y-106330812D01*
X138744180Y-106294502D01*
X138854494Y-106235537D01*
X138951185Y-106156185D01*
X139030537Y-106059494D01*
X139089502Y-105949180D01*
X139125812Y-105829482D01*
X139138072Y-105705000D01*
X139135000Y-105540750D01*
X138976250Y-105382000D01*
X137627000Y-105382000D01*
X137373000Y-105382000D01*
X136023750Y-105382000D01*
X135865000Y-105540750D01*
X135861928Y-105705000D01*
X132010000Y-105705000D01*
X132010000Y-103135413D01*
X133044192Y-103135413D01*
X133139956Y-103399814D01*
X133429571Y-103540704D01*
X133741108Y-103622384D01*
X134062595Y-103641718D01*
X134381675Y-103597961D01*
X134686088Y-103492795D01*
X134860044Y-103399814D01*
X134955808Y-103135413D01*
X134000000Y-102179605D01*
X133044192Y-103135413D01*
X132010000Y-103135413D01*
X132010000Y-102062595D01*
X132358282Y-102062595D01*
X132402039Y-102381675D01*
X132507205Y-102686088D01*
X132600186Y-102860044D01*
X132864587Y-102955808D01*
X133820395Y-102000000D01*
X134179605Y-102000000D01*
X135135413Y-102955808D01*
X135399814Y-102860044D01*
X135540704Y-102570429D01*
X135622384Y-102258892D01*
X135641718Y-101937405D01*
X135597961Y-101618325D01*
X135492795Y-101313912D01*
X135399814Y-101139956D01*
X135135413Y-101044192D01*
X134179605Y-102000000D01*
X133820395Y-102000000D01*
X132864587Y-101044192D01*
X132600186Y-101139956D01*
X132459296Y-101429571D01*
X132377616Y-101741108D01*
X132358282Y-102062595D01*
X132010000Y-102062595D01*
X132010000Y-101564801D01*
X132710214Y-100864587D01*
X133044192Y-100864587D01*
X134000000Y-101820395D01*
X134955808Y-100864587D01*
X134860044Y-100600186D01*
X134570429Y-100459296D01*
X134258892Y-100377616D01*
X133937405Y-100358282D01*
X133618325Y-100402039D01*
X133313912Y-100507205D01*
X133139956Y-100600186D01*
X133044192Y-100864587D01*
X132710214Y-100864587D01*
X133909802Y-99665000D01*
X135867837Y-99665000D01*
X135861928Y-99725000D01*
X135861928Y-100625000D01*
X135874188Y-100749482D01*
X135892546Y-100810000D01*
X135874188Y-100870518D01*
X135861928Y-100995000D01*
X135861928Y-101895000D01*
X135874188Y-102019482D01*
X135892546Y-102080000D01*
X135874188Y-102140518D01*
X135861928Y-102265000D01*
X135861928Y-103165000D01*
X135874188Y-103289482D01*
X135892546Y-103350000D01*
X135874188Y-103410518D01*
X135861928Y-103535000D01*
X135861928Y-104435000D01*
X135874188Y-104559482D01*
X135892546Y-104620000D01*
X135874188Y-104680518D01*
X135861928Y-104805000D01*
X135865000Y-104969250D01*
X136023750Y-105128000D01*
X137373000Y-105128000D01*
X137373000Y-105108000D01*
X137627000Y-105108000D01*
X137627000Y-105128000D01*
X138976250Y-105128000D01*
X139135000Y-104969250D01*
X139138072Y-104805000D01*
X139132163Y-104745000D01*
X146781289Y-104745000D01*
X146840226Y-104803937D01*
X147009744Y-104917205D01*
X147198102Y-104995226D01*
X147398061Y-105035000D01*
X147601939Y-105035000D01*
X147801898Y-104995226D01*
X147990256Y-104917205D01*
X148159774Y-104803937D01*
X148303937Y-104659774D01*
X148361866Y-104573077D01*
X148490000Y-104701212D01*
X148490001Y-114907668D01*
X148486324Y-114945000D01*
X148500998Y-115093985D01*
X148544454Y-115237246D01*
X148615026Y-115369276D01*
X148627931Y-115385000D01*
X148710000Y-115485001D01*
X148738998Y-115508799D01*
X150241200Y-117011002D01*
X150264999Y-117040001D01*
X150293997Y-117063799D01*
X150380723Y-117134974D01*
X150391045Y-117140491D01*
X150512753Y-117205546D01*
X150656014Y-117249003D01*
X150767667Y-117260000D01*
X150767676Y-117260000D01*
X150804999Y-117263676D01*
X150842322Y-117260000D01*
X163285199Y-117260000D01*
X164212655Y-118187457D01*
X164198815Y-118198815D01*
X164119463Y-118295506D01*
X164060498Y-118405820D01*
X164024188Y-118525518D01*
X164011928Y-118650000D01*
X164011928Y-120350000D01*
X164024188Y-120474482D01*
X164060498Y-120594180D01*
X164119463Y-120704494D01*
X164198815Y-120801185D01*
X164295506Y-120880537D01*
X164405820Y-120939502D01*
X164525518Y-120975812D01*
X164650000Y-120988072D01*
X166350000Y-120988072D01*
X166474482Y-120975812D01*
X166594180Y-120939502D01*
X166704494Y-120880537D01*
X166801185Y-120801185D01*
X166880537Y-120704494D01*
X166939502Y-120594180D01*
X166961513Y-120521620D01*
X167093368Y-120653475D01*
X167336589Y-120815990D01*
X167606842Y-120927932D01*
X167893740Y-120985000D01*
X168186260Y-120985000D01*
X168473158Y-120927932D01*
X168743411Y-120815990D01*
X168986632Y-120653475D01*
X169193475Y-120446632D01*
X169315195Y-120264466D01*
X169384822Y-120381355D01*
X169579731Y-120597588D01*
X169813080Y-120771641D01*
X170075901Y-120896825D01*
X170223110Y-120941476D01*
X170453000Y-120820155D01*
X170453000Y-119627000D01*
X170433000Y-119627000D01*
X170433000Y-119373000D01*
X170453000Y-119373000D01*
X170453000Y-118179845D01*
X170223110Y-118058524D01*
X170075901Y-118103175D01*
X169813080Y-118228359D01*
X169579731Y-118402412D01*
X169384822Y-118618645D01*
X169315195Y-118735534D01*
X169193475Y-118553368D01*
X168986632Y-118346525D01*
X168743411Y-118184010D01*
X168473158Y-118072068D01*
X168186260Y-118015000D01*
X167893740Y-118015000D01*
X167673592Y-118058790D01*
X165103804Y-115489003D01*
X165080001Y-115459999D01*
X164964276Y-115365026D01*
X164832247Y-115294454D01*
X164688986Y-115250997D01*
X164577333Y-115240000D01*
X164577322Y-115240000D01*
X164540000Y-115236324D01*
X164502678Y-115240000D01*
X151314802Y-115240000D01*
X150510000Y-114435199D01*
X150510000Y-104287322D01*
X150513676Y-104249999D01*
X150510000Y-104212676D01*
X150510000Y-104212667D01*
X150499003Y-104101014D01*
X150455546Y-103957753D01*
X150438039Y-103925000D01*
X150384974Y-103825723D01*
X150313799Y-103738997D01*
X150290001Y-103709999D01*
X150261004Y-103686202D01*
X147465050Y-100890249D01*
X149500000Y-100893072D01*
X149624482Y-100880812D01*
X149744180Y-100844502D01*
X149854494Y-100785537D01*
X149951185Y-100706185D01*
X150030537Y-100609494D01*
X150089502Y-100499180D01*
X150125812Y-100379482D01*
X150138072Y-100255000D01*
X150135000Y-98040750D01*
X149976250Y-97882000D01*
X147127000Y-97882000D01*
X147127000Y-97902000D01*
X146873000Y-97902000D01*
X146873000Y-97882000D01*
X144023750Y-97882000D01*
X143865000Y-98040750D01*
X143861949Y-100240000D01*
X140064802Y-100240000D01*
X139488803Y-99664002D01*
X139465001Y-99634999D01*
X139349276Y-99540026D01*
X139217247Y-99469454D01*
X139129423Y-99442813D01*
X139138072Y-99355000D01*
X139138072Y-98455000D01*
X139125812Y-98330518D01*
X139107454Y-98270000D01*
X139125812Y-98209482D01*
X139138072Y-98085000D01*
X139138072Y-97185000D01*
X139125812Y-97060518D01*
X139107454Y-97000000D01*
X139125812Y-96939482D01*
X139138072Y-96815000D01*
X139138072Y-95915000D01*
X139125812Y-95790518D01*
X139107454Y-95730000D01*
X139125812Y-95669482D01*
X139138072Y-95545000D01*
X139138072Y-95436729D01*
X139319801Y-95255000D01*
X143861928Y-95255000D01*
X143865000Y-97469250D01*
X144023750Y-97628000D01*
X146873000Y-97628000D01*
X146873000Y-94778750D01*
X147127000Y-94778750D01*
X147127000Y-97628000D01*
X149976250Y-97628000D01*
X150135000Y-97469250D01*
X150138072Y-95255000D01*
X150125812Y-95130518D01*
X150089502Y-95010820D01*
X150030537Y-94900506D01*
X149951185Y-94803815D01*
X149854494Y-94724463D01*
X149744180Y-94665498D01*
X149624482Y-94629188D01*
X149500000Y-94616928D01*
X147285750Y-94620000D01*
X147127000Y-94778750D01*
X146873000Y-94778750D01*
X146714250Y-94620000D01*
X144500000Y-94616928D01*
X144375518Y-94629188D01*
X144255820Y-94665498D01*
X144145506Y-94724463D01*
X144048815Y-94803815D01*
X143969463Y-94900506D01*
X143910498Y-95010820D01*
X143874188Y-95130518D01*
X143861928Y-95255000D01*
X139319801Y-95255000D01*
X140039802Y-94535000D01*
X140101939Y-94535000D01*
X140301898Y-94495226D01*
X140490256Y-94417205D01*
X140659774Y-94303937D01*
X140803937Y-94159774D01*
X140917205Y-93990256D01*
X140995226Y-93801898D01*
X141035000Y-93601939D01*
X141035000Y-93398061D01*
X141018478Y-93315000D01*
X150240199Y-93315000D01*
X150740000Y-93814802D01*
X150740001Y-98462659D01*
X150740000Y-98462668D01*
X150740000Y-98962668D01*
X150740001Y-109989666D01*
X150736324Y-110026998D01*
X150750998Y-110175983D01*
X150794454Y-110319244D01*
X150865026Y-110451274D01*
X150936201Y-110538000D01*
X150960000Y-110566999D01*
X150988998Y-110590797D01*
X154814203Y-114416003D01*
X154838001Y-114445001D01*
X154866999Y-114468799D01*
X154953725Y-114539974D01*
X155067924Y-114601015D01*
X155085755Y-114610546D01*
X155229016Y-114654003D01*
X155340669Y-114665000D01*
X155340678Y-114665000D01*
X155378001Y-114668676D01*
X155415324Y-114665000D01*
X158207024Y-114665000D01*
X158262171Y-114710258D01*
X158398418Y-114783084D01*
X158546255Y-114827929D01*
X158700000Y-114843072D01*
X160350000Y-114843072D01*
X160503745Y-114827929D01*
X160651582Y-114783084D01*
X160787829Y-114710258D01*
X160907251Y-114612251D01*
X161005258Y-114492829D01*
X161078084Y-114356582D01*
X161122929Y-114208745D01*
X161123297Y-114205000D01*
X162861928Y-114205000D01*
X162874188Y-114329482D01*
X162910498Y-114449180D01*
X162969463Y-114559494D01*
X163048815Y-114656185D01*
X163145506Y-114735537D01*
X163255820Y-114794502D01*
X163375518Y-114830812D01*
X163500000Y-114843072D01*
X164189250Y-114840000D01*
X164348000Y-114681250D01*
X164348000Y-114032000D01*
X164602000Y-114032000D01*
X164602000Y-114681250D01*
X164760750Y-114840000D01*
X165450000Y-114843072D01*
X165574482Y-114830812D01*
X165694180Y-114794502D01*
X165804494Y-114735537D01*
X165901185Y-114656185D01*
X165980537Y-114559494D01*
X166039502Y-114449180D01*
X166075812Y-114329482D01*
X166088072Y-114205000D01*
X166085000Y-114190750D01*
X165926250Y-114032000D01*
X164602000Y-114032000D01*
X164348000Y-114032000D01*
X163023750Y-114032000D01*
X162865000Y-114190750D01*
X162861928Y-114205000D01*
X161123297Y-114205000D01*
X161138072Y-114055000D01*
X161138072Y-113755000D01*
X161122929Y-113601255D01*
X161078084Y-113453418D01*
X161005258Y-113317171D01*
X160966546Y-113270000D01*
X161005258Y-113222829D01*
X161078084Y-113086582D01*
X161122929Y-112938745D01*
X161138072Y-112785000D01*
X161138072Y-112485000D01*
X161122929Y-112331255D01*
X161078084Y-112183418D01*
X161005258Y-112047171D01*
X160966546Y-112000000D01*
X161005258Y-111952829D01*
X161078084Y-111816582D01*
X161122929Y-111668745D01*
X161138072Y-111515000D01*
X161138072Y-111215000D01*
X161122929Y-111061255D01*
X161078084Y-110913418D01*
X161005258Y-110777171D01*
X160966546Y-110730000D01*
X161005258Y-110682829D01*
X161078084Y-110546582D01*
X161122929Y-110398745D01*
X161138072Y-110245000D01*
X161138072Y-109945000D01*
X161122929Y-109791255D01*
X161078084Y-109643418D01*
X161005258Y-109507171D01*
X160907251Y-109387749D01*
X160787829Y-109289742D01*
X160651582Y-109216916D01*
X160503745Y-109172071D01*
X160350000Y-109156928D01*
X158700000Y-109156928D01*
X158546255Y-109172071D01*
X158398418Y-109216916D01*
X158262171Y-109289742D01*
X158207024Y-109335000D01*
X154009802Y-109335000D01*
X153260000Y-108585199D01*
X153260000Y-106295770D01*
X153375518Y-106330812D01*
X153500000Y-106343072D01*
X154214250Y-106340000D01*
X154373000Y-106181250D01*
X154373000Y-105382000D01*
X154627000Y-105382000D01*
X154627000Y-106181250D01*
X154785750Y-106340000D01*
X155500000Y-106343072D01*
X155624482Y-106330812D01*
X155744180Y-106294502D01*
X155854494Y-106235537D01*
X155951185Y-106156185D01*
X156030537Y-106059494D01*
X156089502Y-105949180D01*
X156125812Y-105829482D01*
X156138072Y-105705000D01*
X156135000Y-105540750D01*
X155976250Y-105382000D01*
X154627000Y-105382000D01*
X154373000Y-105382000D01*
X154353000Y-105382000D01*
X154353000Y-105128000D01*
X154373000Y-105128000D01*
X154373000Y-105108000D01*
X154627000Y-105108000D01*
X154627000Y-105128000D01*
X155976250Y-105128000D01*
X156135000Y-104969250D01*
X156135407Y-104947500D01*
X156889970Y-104947500D01*
X156997038Y-105077962D01*
X157131613Y-105188405D01*
X157285149Y-105270472D01*
X157451745Y-105321008D01*
X157624999Y-105338072D01*
X158875001Y-105338072D01*
X159048255Y-105321008D01*
X159214851Y-105270472D01*
X159368387Y-105188405D01*
X159502962Y-105077962D01*
X159604216Y-104954583D01*
X159611595Y-104968388D01*
X159722037Y-105102963D01*
X159856612Y-105213405D01*
X160010148Y-105295472D01*
X160176743Y-105346008D01*
X160349997Y-105363072D01*
X161650003Y-105363072D01*
X161823257Y-105346008D01*
X161989852Y-105295472D01*
X162143388Y-105213405D01*
X162277963Y-105102963D01*
X162388405Y-104968388D01*
X162399570Y-104947500D01*
X162600430Y-104947500D01*
X162611595Y-104968388D01*
X162722037Y-105102963D01*
X162856612Y-105213405D01*
X163010148Y-105295472D01*
X163115000Y-105327279D01*
X163115001Y-107019015D01*
X163115000Y-107019024D01*
X163115000Y-107456524D01*
X163115001Y-109369487D01*
X163092749Y-109387749D01*
X162994742Y-109507171D01*
X162921916Y-109643418D01*
X162877071Y-109791255D01*
X162861928Y-109945000D01*
X162861928Y-110245000D01*
X162877071Y-110398745D01*
X162921916Y-110546582D01*
X162994742Y-110682829D01*
X163033454Y-110730000D01*
X162994742Y-110777171D01*
X162921916Y-110913418D01*
X162877071Y-111061255D01*
X162861928Y-111215000D01*
X162861928Y-111515000D01*
X162877071Y-111668745D01*
X162921916Y-111816582D01*
X162994742Y-111952829D01*
X163033454Y-112000000D01*
X162994742Y-112047171D01*
X162921916Y-112183418D01*
X162877071Y-112331255D01*
X162861928Y-112485000D01*
X162861928Y-112785000D01*
X162877071Y-112938745D01*
X162921916Y-113086582D01*
X162993730Y-113220936D01*
X162969463Y-113250506D01*
X162910498Y-113360820D01*
X162874188Y-113480518D01*
X162861928Y-113605000D01*
X162865000Y-113619250D01*
X163023750Y-113778000D01*
X164348000Y-113778000D01*
X164348000Y-113758000D01*
X164602000Y-113758000D01*
X164602000Y-113778000D01*
X165926250Y-113778000D01*
X166085000Y-113619250D01*
X166088072Y-113605000D01*
X166079701Y-113520000D01*
X167921531Y-113520000D01*
X167965000Y-113524281D01*
X168008469Y-113520000D01*
X168008477Y-113520000D01*
X168138490Y-113507195D01*
X168305313Y-113456589D01*
X168459059Y-113374411D01*
X168593817Y-113263817D01*
X168621534Y-113230044D01*
X170645050Y-111206529D01*
X170678817Y-111178817D01*
X170707343Y-111144059D01*
X170789410Y-111044060D01*
X170789411Y-111044059D01*
X170871589Y-110890313D01*
X170922195Y-110723490D01*
X170935000Y-110593477D01*
X170935000Y-110593467D01*
X170939281Y-110550001D01*
X170935000Y-110506535D01*
X170935000Y-108967888D01*
X170943387Y-108963405D01*
X171077962Y-108852962D01*
X171188405Y-108718387D01*
X171270472Y-108564851D01*
X171321008Y-108398255D01*
X171338072Y-108225001D01*
X171338072Y-106974999D01*
X171321008Y-106801745D01*
X171270472Y-106635149D01*
X171188405Y-106481613D01*
X171077962Y-106347038D01*
X170943387Y-106236595D01*
X170925000Y-106226767D01*
X170925000Y-105498454D01*
X170957205Y-105450256D01*
X171035226Y-105261898D01*
X171075000Y-105061939D01*
X171075000Y-104858061D01*
X171035226Y-104658102D01*
X170957205Y-104469744D01*
X170843937Y-104300226D01*
X170699774Y-104156063D01*
X170530256Y-104042795D01*
X170341898Y-103964774D01*
X170141939Y-103925000D01*
X169938061Y-103925000D01*
X169738102Y-103964774D01*
X169549744Y-104042795D01*
X169380226Y-104156063D01*
X169236063Y-104300226D01*
X169122795Y-104469744D01*
X169044774Y-104658102D01*
X169005000Y-104858061D01*
X169005000Y-105061939D01*
X169044774Y-105261898D01*
X169122795Y-105450256D01*
X169155000Y-105498455D01*
X169155000Y-106237918D01*
X169022038Y-106347038D01*
X168911595Y-106481613D01*
X168829528Y-106635149D01*
X168778992Y-106801745D01*
X168761928Y-106974999D01*
X168761928Y-108225001D01*
X168778992Y-108398255D01*
X168829528Y-108564851D01*
X168911595Y-108718387D01*
X169022038Y-108852962D01*
X169156613Y-108963405D01*
X169165001Y-108967888D01*
X169165000Y-110183421D01*
X167598422Y-111750000D01*
X167101578Y-111750000D01*
X167545050Y-111306529D01*
X167578817Y-111278817D01*
X167689411Y-111144059D01*
X167771589Y-110990313D01*
X167822195Y-110823490D01*
X167835000Y-110693477D01*
X167835000Y-110693469D01*
X167839281Y-110650000D01*
X167835000Y-110606531D01*
X167835000Y-108967888D01*
X167843387Y-108963405D01*
X167977962Y-108852962D01*
X168088405Y-108718387D01*
X168170472Y-108564851D01*
X168221008Y-108398255D01*
X168238072Y-108225001D01*
X168238072Y-106974999D01*
X168221008Y-106801745D01*
X168170472Y-106635149D01*
X168088405Y-106481613D01*
X167977962Y-106347038D01*
X167843387Y-106236595D01*
X167835000Y-106232112D01*
X167835000Y-105981515D01*
X167990256Y-105917205D01*
X168159774Y-105803937D01*
X168303937Y-105659774D01*
X168417205Y-105490256D01*
X168495226Y-105301898D01*
X168535000Y-105101939D01*
X168535000Y-104898061D01*
X168495226Y-104698102D01*
X168417205Y-104509744D01*
X168303937Y-104340226D01*
X168159774Y-104196063D01*
X167990256Y-104082795D01*
X167801898Y-104004774D01*
X167601939Y-103965000D01*
X167398061Y-103965000D01*
X167198102Y-104004774D01*
X167009744Y-104082795D01*
X166840226Y-104196063D01*
X166696063Y-104340226D01*
X166582795Y-104509744D01*
X166504774Y-104698102D01*
X166493465Y-104754957D01*
X166354952Y-104893470D01*
X166321184Y-104921183D01*
X166293471Y-104954951D01*
X166293468Y-104954954D01*
X166210590Y-105055941D01*
X166128412Y-105209687D01*
X166077805Y-105376510D01*
X166060719Y-105550000D01*
X166065001Y-105593479D01*
X166065001Y-106232112D01*
X166056613Y-106236595D01*
X165922038Y-106347038D01*
X165811595Y-106481613D01*
X165729528Y-106635149D01*
X165678992Y-106801745D01*
X165661928Y-106974999D01*
X165661928Y-108225001D01*
X165678992Y-108398255D01*
X165729528Y-108564851D01*
X165811595Y-108718387D01*
X165922038Y-108852962D01*
X166056613Y-108963405D01*
X166065001Y-108967888D01*
X166065000Y-109765117D01*
X166028084Y-109643418D01*
X165955258Y-109507171D01*
X165857251Y-109387749D01*
X165737829Y-109289742D01*
X165601582Y-109216916D01*
X165453745Y-109172071D01*
X165300000Y-109156928D01*
X164885000Y-109156928D01*
X164885000Y-105327278D01*
X164989852Y-105295472D01*
X165143388Y-105213405D01*
X165277963Y-105102963D01*
X165388405Y-104968388D01*
X165399570Y-104947500D01*
X165644031Y-104947500D01*
X165687500Y-104951781D01*
X165730969Y-104947500D01*
X165730977Y-104947500D01*
X165860990Y-104934695D01*
X166027813Y-104884089D01*
X166181559Y-104801911D01*
X166316317Y-104691317D01*
X166344034Y-104657544D01*
X167345049Y-103656530D01*
X167378817Y-103628817D01*
X167489411Y-103494059D01*
X167571589Y-103340313D01*
X167622195Y-103173490D01*
X167635000Y-103043477D01*
X167635000Y-103043469D01*
X167639281Y-103000000D01*
X167635000Y-102956531D01*
X167635000Y-102175000D01*
X168636928Y-102175000D01*
X168649188Y-102299482D01*
X168685498Y-102419180D01*
X168744463Y-102529494D01*
X168823815Y-102626185D01*
X168920506Y-102705537D01*
X169030820Y-102764502D01*
X169150518Y-102800812D01*
X169275000Y-102813072D01*
X169776750Y-102810000D01*
X169935500Y-102651250D01*
X169935500Y-101627000D01*
X170189500Y-101627000D01*
X170189500Y-102651250D01*
X170348250Y-102810000D01*
X170850000Y-102813072D01*
X170974482Y-102800812D01*
X171094180Y-102764502D01*
X171204494Y-102705537D01*
X171301185Y-102626185D01*
X171380537Y-102529494D01*
X171439502Y-102419180D01*
X171475812Y-102299482D01*
X171488072Y-102175000D01*
X171485000Y-101785750D01*
X171326250Y-101627000D01*
X170189500Y-101627000D01*
X169935500Y-101627000D01*
X168798750Y-101627000D01*
X168640000Y-101785750D01*
X168636928Y-102175000D01*
X167635000Y-102175000D01*
X167635000Y-100825000D01*
X168636928Y-100825000D01*
X168640000Y-101214250D01*
X168798750Y-101373000D01*
X169935500Y-101373000D01*
X169935500Y-100348750D01*
X169776750Y-100190000D01*
X169275000Y-100186928D01*
X169150518Y-100199188D01*
X169030820Y-100235498D01*
X168920506Y-100294463D01*
X168823815Y-100373815D01*
X168744463Y-100470506D01*
X168685498Y-100580820D01*
X168649188Y-100700518D01*
X168636928Y-100825000D01*
X167635000Y-100825000D01*
X167635000Y-100293468D01*
X167639281Y-100250000D01*
X167635000Y-100206531D01*
X167635000Y-100206523D01*
X167622195Y-100076510D01*
X167571589Y-99909687D01*
X167489411Y-99755941D01*
X167406532Y-99654953D01*
X167406530Y-99654951D01*
X167378817Y-99621183D01*
X167345050Y-99593471D01*
X166826367Y-99074788D01*
X166852962Y-99052962D01*
X166963405Y-98918387D01*
X167045472Y-98764851D01*
X167096008Y-98598255D01*
X167113072Y-98425001D01*
X167113072Y-97574999D01*
X167096008Y-97401745D01*
X167045472Y-97235149D01*
X166963405Y-97081613D01*
X166852962Y-96947038D01*
X166718387Y-96836595D01*
X166680213Y-96816191D01*
X166739411Y-96744059D01*
X166821589Y-96590313D01*
X166872195Y-96423490D01*
X166885000Y-96293477D01*
X166885000Y-96293469D01*
X166889281Y-96250000D01*
X166885000Y-96206531D01*
X166885000Y-96009985D01*
X166926185Y-95976185D01*
X167005537Y-95879494D01*
X167064502Y-95769180D01*
X167100812Y-95649482D01*
X167113072Y-95525000D01*
X167113072Y-94175000D01*
X167100812Y-94050518D01*
X167064502Y-93930820D01*
X167005537Y-93820506D01*
X166926185Y-93723815D01*
X166829494Y-93644463D01*
X166719180Y-93585498D01*
X166599482Y-93549188D01*
X166475000Y-93536928D01*
X165525000Y-93536928D01*
X165400518Y-93549188D01*
X165280820Y-93585498D01*
X165170506Y-93644463D01*
X165073815Y-93723815D01*
X164994463Y-93820506D01*
X164935498Y-93930820D01*
X164899188Y-94050518D01*
X164886928Y-94175000D01*
X164886928Y-95525000D01*
X164899188Y-95649482D01*
X164935498Y-95769180D01*
X164994463Y-95879494D01*
X165048809Y-95945715D01*
X165030971Y-95967451D01*
X165030968Y-95967454D01*
X164948090Y-96068441D01*
X164865912Y-96222187D01*
X164815305Y-96389010D01*
X164798219Y-96562500D01*
X164802501Y-96605979D01*
X164802501Y-96758616D01*
X164656613Y-96836595D01*
X164522038Y-96947038D01*
X164411595Y-97081613D01*
X164329528Y-97235149D01*
X164278992Y-97401745D01*
X164261928Y-97574999D01*
X164261928Y-98425001D01*
X164278992Y-98598255D01*
X164329528Y-98764851D01*
X164411595Y-98918387D01*
X164522038Y-99052962D01*
X164656613Y-99163405D01*
X164803583Y-99241962D01*
X164815305Y-99360990D01*
X164865912Y-99527813D01*
X164925581Y-99639447D01*
X164900000Y-99636928D01*
X164285750Y-99640000D01*
X164127000Y-99798750D01*
X164127000Y-100810500D01*
X165376250Y-100810500D01*
X165535000Y-100651750D01*
X165537954Y-100289532D01*
X165865000Y-100616579D01*
X165865001Y-102633420D01*
X165367402Y-103131020D01*
X165277963Y-103022037D01*
X165143388Y-102911595D01*
X164989852Y-102829528D01*
X164823257Y-102778992D01*
X164650003Y-102761928D01*
X163349997Y-102761928D01*
X163176743Y-102778992D01*
X163010148Y-102829528D01*
X162856612Y-102911595D01*
X162722037Y-103022037D01*
X162611595Y-103156612D01*
X162600430Y-103177500D01*
X162399570Y-103177500D01*
X162388405Y-103156612D01*
X162277963Y-103022037D01*
X162143388Y-102911595D01*
X161989852Y-102829528D01*
X161823257Y-102778992D01*
X161650003Y-102761928D01*
X160349997Y-102761928D01*
X160176743Y-102778992D01*
X160010148Y-102829528D01*
X159856612Y-102911595D01*
X159722037Y-103022037D01*
X159612500Y-103155510D01*
X159502962Y-103022038D01*
X159368387Y-102911595D01*
X159214851Y-102829528D01*
X159048255Y-102778992D01*
X158875001Y-102761928D01*
X157624999Y-102761928D01*
X157451745Y-102778992D01*
X157285149Y-102829528D01*
X157131613Y-102911595D01*
X156997038Y-103022038D01*
X156886595Y-103156613D01*
X156875431Y-103177500D01*
X156824078Y-103177500D01*
X157095044Y-102906534D01*
X157128817Y-102878817D01*
X157239411Y-102744059D01*
X157321589Y-102590313D01*
X157372195Y-102423490D01*
X157385000Y-102293477D01*
X157385000Y-102293467D01*
X157389281Y-102250001D01*
X157385000Y-102206535D01*
X157385000Y-102200761D01*
X157451745Y-102221008D01*
X157624999Y-102238072D01*
X158875001Y-102238072D01*
X159048255Y-102221008D01*
X159214851Y-102170472D01*
X159368387Y-102088405D01*
X159502962Y-101977962D01*
X159550830Y-101919635D01*
X159569463Y-101954494D01*
X159648815Y-102051185D01*
X159745506Y-102130537D01*
X159855820Y-102189502D01*
X159975518Y-102225812D01*
X160100000Y-102238072D01*
X160714250Y-102235000D01*
X160873000Y-102076250D01*
X160873000Y-101064500D01*
X161127000Y-101064500D01*
X161127000Y-102076250D01*
X161285750Y-102235000D01*
X161900000Y-102238072D01*
X162024482Y-102225812D01*
X162144180Y-102189502D01*
X162254494Y-102130537D01*
X162351185Y-102051185D01*
X162430537Y-101954494D01*
X162489502Y-101844180D01*
X162500000Y-101809573D01*
X162510498Y-101844180D01*
X162569463Y-101954494D01*
X162648815Y-102051185D01*
X162745506Y-102130537D01*
X162855820Y-102189502D01*
X162975518Y-102225812D01*
X163100000Y-102238072D01*
X163714250Y-102235000D01*
X163873000Y-102076250D01*
X163873000Y-101064500D01*
X164127000Y-101064500D01*
X164127000Y-102076250D01*
X164285750Y-102235000D01*
X164900000Y-102238072D01*
X165024482Y-102225812D01*
X165144180Y-102189502D01*
X165254494Y-102130537D01*
X165351185Y-102051185D01*
X165430537Y-101954494D01*
X165489502Y-101844180D01*
X165525812Y-101724482D01*
X165538072Y-101600000D01*
X165535000Y-101223250D01*
X165376250Y-101064500D01*
X164127000Y-101064500D01*
X163873000Y-101064500D01*
X162623750Y-101064500D01*
X162500000Y-101188250D01*
X162376250Y-101064500D01*
X161127000Y-101064500D01*
X160873000Y-101064500D01*
X160853000Y-101064500D01*
X160853000Y-100810500D01*
X160873000Y-100810500D01*
X160873000Y-99798750D01*
X161127000Y-99798750D01*
X161127000Y-100810500D01*
X162376250Y-100810500D01*
X162500000Y-100686750D01*
X162623750Y-100810500D01*
X163873000Y-100810500D01*
X163873000Y-99798750D01*
X163714250Y-99640000D01*
X163100000Y-99636928D01*
X162975518Y-99649188D01*
X162855820Y-99685498D01*
X162745506Y-99744463D01*
X162648815Y-99823815D01*
X162569463Y-99920506D01*
X162510498Y-100030820D01*
X162500000Y-100065427D01*
X162489502Y-100030820D01*
X162430537Y-99920506D01*
X162351185Y-99823815D01*
X162254494Y-99744463D01*
X162144180Y-99685498D01*
X162024482Y-99649188D01*
X161900000Y-99636928D01*
X161285750Y-99640000D01*
X161127000Y-99798750D01*
X160873000Y-99798750D01*
X160714250Y-99640000D01*
X160100000Y-99636928D01*
X159975518Y-99649188D01*
X159855820Y-99685498D01*
X159745506Y-99744463D01*
X159648815Y-99823815D01*
X159569463Y-99920506D01*
X159542738Y-99970505D01*
X159502962Y-99922038D01*
X159368387Y-99811595D01*
X159214851Y-99729528D01*
X159135000Y-99705306D01*
X159135000Y-99386853D01*
X159264250Y-99385000D01*
X159423000Y-99226250D01*
X159423000Y-98127000D01*
X159677000Y-98127000D01*
X159677000Y-99226250D01*
X159835750Y-99385000D01*
X160050000Y-99388072D01*
X160174482Y-99375812D01*
X160294180Y-99339502D01*
X160404494Y-99280537D01*
X160501185Y-99201185D01*
X160580537Y-99104494D01*
X160639502Y-98994180D01*
X160675812Y-98874482D01*
X160688072Y-98750000D01*
X160687576Y-98675000D01*
X161386928Y-98675000D01*
X161399188Y-98799482D01*
X161435498Y-98919180D01*
X161494463Y-99029494D01*
X161573815Y-99126185D01*
X161670506Y-99205537D01*
X161780820Y-99264502D01*
X161900518Y-99300812D01*
X162025000Y-99313072D01*
X162526750Y-99310000D01*
X162685500Y-99151250D01*
X162685500Y-98127000D01*
X162939500Y-98127000D01*
X162939500Y-99151250D01*
X163098250Y-99310000D01*
X163600000Y-99313072D01*
X163724482Y-99300812D01*
X163844180Y-99264502D01*
X163954494Y-99205537D01*
X164051185Y-99126185D01*
X164130537Y-99029494D01*
X164189502Y-98919180D01*
X164225812Y-98799482D01*
X164238072Y-98675000D01*
X164235000Y-98285750D01*
X164076250Y-98127000D01*
X162939500Y-98127000D01*
X162685500Y-98127000D01*
X161548750Y-98127000D01*
X161390000Y-98285750D01*
X161386928Y-98675000D01*
X160687576Y-98675000D01*
X160685000Y-98285750D01*
X160526250Y-98127000D01*
X159677000Y-98127000D01*
X159423000Y-98127000D01*
X159403000Y-98127000D01*
X159403000Y-97873000D01*
X159423000Y-97873000D01*
X159423000Y-96773750D01*
X159677000Y-96773750D01*
X159677000Y-97873000D01*
X160526250Y-97873000D01*
X160685000Y-97714250D01*
X160687575Y-97325000D01*
X161386928Y-97325000D01*
X161390000Y-97714250D01*
X161548750Y-97873000D01*
X162685500Y-97873000D01*
X162685500Y-96848750D01*
X162939500Y-96848750D01*
X162939500Y-97873000D01*
X164076250Y-97873000D01*
X164235000Y-97714250D01*
X164238072Y-97325000D01*
X164225812Y-97200518D01*
X164189502Y-97080820D01*
X164130537Y-96970506D01*
X164051185Y-96873815D01*
X163954494Y-96794463D01*
X163844180Y-96735498D01*
X163724482Y-96699188D01*
X163600000Y-96686928D01*
X163098250Y-96690000D01*
X162939500Y-96848750D01*
X162685500Y-96848750D01*
X162526750Y-96690000D01*
X162025000Y-96686928D01*
X161900518Y-96699188D01*
X161780820Y-96735498D01*
X161670506Y-96794463D01*
X161573815Y-96873815D01*
X161494463Y-96970506D01*
X161435498Y-97080820D01*
X161399188Y-97200518D01*
X161386928Y-97325000D01*
X160687575Y-97325000D01*
X160688072Y-97250000D01*
X160675812Y-97125518D01*
X160639502Y-97005820D01*
X160580537Y-96895506D01*
X160501185Y-96798815D01*
X160404494Y-96719463D01*
X160294180Y-96660498D01*
X160174482Y-96624188D01*
X160050000Y-96611928D01*
X159835750Y-96615000D01*
X159677000Y-96773750D01*
X159423000Y-96773750D01*
X159264250Y-96615000D01*
X159050000Y-96611928D01*
X158925518Y-96624188D01*
X158900000Y-96631929D01*
X158874482Y-96624188D01*
X158750000Y-96611928D01*
X157750000Y-96611928D01*
X157625518Y-96624188D01*
X157505820Y-96660498D01*
X157395506Y-96719463D01*
X157298815Y-96798815D01*
X157219463Y-96895506D01*
X157160498Y-97005820D01*
X157124188Y-97125518D01*
X157111928Y-97250000D01*
X157111928Y-98750000D01*
X157124188Y-98874482D01*
X157160498Y-98994180D01*
X157219463Y-99104494D01*
X157298815Y-99201185D01*
X157365000Y-99255502D01*
X157365001Y-99705305D01*
X157285149Y-99729528D01*
X157131613Y-99811595D01*
X156997038Y-99922038D01*
X156886595Y-100056613D01*
X156875027Y-100078255D01*
X156709687Y-100128411D01*
X156555941Y-100210589D01*
X156421183Y-100321183D01*
X156393466Y-100354956D01*
X156138072Y-100610350D01*
X156138072Y-99725000D01*
X156125812Y-99600518D01*
X156107454Y-99540000D01*
X156125812Y-99479482D01*
X156138072Y-99355000D01*
X156138072Y-98455000D01*
X156125812Y-98330518D01*
X156107454Y-98270000D01*
X156125812Y-98209482D01*
X156138072Y-98085000D01*
X156138072Y-97185000D01*
X156125812Y-97060518D01*
X156107454Y-97000000D01*
X156125812Y-96939482D01*
X156138072Y-96815000D01*
X156138072Y-95915000D01*
X156125812Y-95790518D01*
X156107454Y-95730000D01*
X156125812Y-95669482D01*
X156138072Y-95545000D01*
X156138072Y-95525000D01*
X162586928Y-95525000D01*
X162599188Y-95649482D01*
X162635498Y-95769180D01*
X162694463Y-95879494D01*
X162773815Y-95976185D01*
X162870506Y-96055537D01*
X162980820Y-96114502D01*
X163100518Y-96150812D01*
X163225000Y-96163072D01*
X163414250Y-96160000D01*
X163573000Y-96001250D01*
X163573000Y-94977000D01*
X163827000Y-94977000D01*
X163827000Y-96001250D01*
X163985750Y-96160000D01*
X164175000Y-96163072D01*
X164299482Y-96150812D01*
X164419180Y-96114502D01*
X164529494Y-96055537D01*
X164626185Y-95976185D01*
X164705537Y-95879494D01*
X164764502Y-95769180D01*
X164800812Y-95649482D01*
X164813072Y-95525000D01*
X164810000Y-95135750D01*
X164651250Y-94977000D01*
X163827000Y-94977000D01*
X163573000Y-94977000D01*
X162748750Y-94977000D01*
X162590000Y-95135750D01*
X162586928Y-95525000D01*
X156138072Y-95525000D01*
X156138072Y-94928939D01*
X156298102Y-94995226D01*
X156498061Y-95035000D01*
X156701939Y-95035000D01*
X156901898Y-94995226D01*
X157090256Y-94917205D01*
X157259774Y-94803937D01*
X157403937Y-94659774D01*
X157517205Y-94490256D01*
X157595226Y-94301898D01*
X157620467Y-94175000D01*
X162586928Y-94175000D01*
X162590000Y-94564250D01*
X162748750Y-94723000D01*
X163573000Y-94723000D01*
X163573000Y-93698750D01*
X163827000Y-93698750D01*
X163827000Y-94723000D01*
X164651250Y-94723000D01*
X164810000Y-94564250D01*
X164813072Y-94175000D01*
X164800812Y-94050518D01*
X164764502Y-93930820D01*
X164705537Y-93820506D01*
X164626185Y-93723815D01*
X164529494Y-93644463D01*
X164419180Y-93585498D01*
X164299482Y-93549188D01*
X164175000Y-93536928D01*
X163985750Y-93540000D01*
X163827000Y-93698750D01*
X163573000Y-93698750D01*
X163414250Y-93540000D01*
X163225000Y-93536928D01*
X163100518Y-93549188D01*
X162980820Y-93585498D01*
X162870506Y-93644463D01*
X162773815Y-93723815D01*
X162694463Y-93820506D01*
X162635498Y-93930820D01*
X162599188Y-94050518D01*
X162586928Y-94175000D01*
X157620467Y-94175000D01*
X157635000Y-94101939D01*
X157635000Y-93898061D01*
X157595226Y-93698102D01*
X157517205Y-93509744D01*
X157403937Y-93340226D01*
X157363711Y-93300000D01*
X157403937Y-93259774D01*
X157517205Y-93090256D01*
X157569672Y-92963589D01*
X169915000Y-92963589D01*
X169915000Y-93236411D01*
X169968225Y-93503989D01*
X170072629Y-93756043D01*
X170224201Y-93982886D01*
X170417114Y-94175799D01*
X170643957Y-94327371D01*
X170896011Y-94431775D01*
X171163589Y-94485000D01*
X171436411Y-94485000D01*
X171703989Y-94431775D01*
X171956043Y-94327371D01*
X172182886Y-94175799D01*
X172301692Y-94056993D01*
X175022612Y-94056993D01*
X175088137Y-94295860D01*
X175335116Y-94411760D01*
X175599960Y-94477250D01*
X175872492Y-94489812D01*
X176142238Y-94448965D01*
X176398832Y-94356277D01*
X176511863Y-94295860D01*
X176577388Y-94056993D01*
X175800000Y-93279605D01*
X175022612Y-94056993D01*
X172301692Y-94056993D01*
X172375799Y-93982886D01*
X172527371Y-93756043D01*
X172631775Y-93503989D01*
X172685000Y-93236411D01*
X172685000Y-93172492D01*
X174410188Y-93172492D01*
X174451035Y-93442238D01*
X174543723Y-93698832D01*
X174604140Y-93811863D01*
X174843007Y-93877388D01*
X175620395Y-93100000D01*
X175979605Y-93100000D01*
X176756993Y-93877388D01*
X176995860Y-93811863D01*
X177111760Y-93564884D01*
X177177250Y-93300040D01*
X177189812Y-93027508D01*
X177148965Y-92757762D01*
X177056277Y-92501168D01*
X176995860Y-92388137D01*
X176756993Y-92322612D01*
X175979605Y-93100000D01*
X175620395Y-93100000D01*
X174843007Y-92322612D01*
X174604140Y-92388137D01*
X174488240Y-92635116D01*
X174422750Y-92899960D01*
X174410188Y-93172492D01*
X172685000Y-93172492D01*
X172685000Y-92963589D01*
X172631775Y-92696011D01*
X172527371Y-92443957D01*
X172375799Y-92217114D01*
X172301692Y-92143007D01*
X175022612Y-92143007D01*
X175800000Y-92920395D01*
X176577388Y-92143007D01*
X176511863Y-91904140D01*
X176264884Y-91788240D01*
X176000040Y-91722750D01*
X175727508Y-91710188D01*
X175457762Y-91751035D01*
X175201168Y-91843723D01*
X175088137Y-91904140D01*
X175022612Y-92143007D01*
X172301692Y-92143007D01*
X172182886Y-92024201D01*
X171956043Y-91872629D01*
X171703989Y-91768225D01*
X171436411Y-91715000D01*
X171163589Y-91715000D01*
X170896011Y-91768225D01*
X170643957Y-91872629D01*
X170417114Y-92024201D01*
X170224201Y-92217114D01*
X170072629Y-92443957D01*
X169968225Y-92696011D01*
X169915000Y-92963589D01*
X157569672Y-92963589D01*
X157595226Y-92901898D01*
X157635000Y-92701939D01*
X157635000Y-92498061D01*
X157595226Y-92298102D01*
X157517205Y-92109744D01*
X157403937Y-91940226D01*
X157301783Y-91838072D01*
X158125001Y-91838072D01*
X158298255Y-91821008D01*
X158464851Y-91770472D01*
X158618387Y-91688405D01*
X158752962Y-91577962D01*
X158863405Y-91443387D01*
X158934702Y-91310000D01*
X159065298Y-91310000D01*
X159136595Y-91443386D01*
X159247038Y-91577962D01*
X159381614Y-91688405D01*
X159535150Y-91770472D01*
X159701746Y-91821008D01*
X159875000Y-91838072D01*
X161125000Y-91838072D01*
X161298254Y-91821008D01*
X161464850Y-91770472D01*
X161618386Y-91688405D01*
X161752962Y-91577962D01*
X161863405Y-91443386D01*
X161945472Y-91289850D01*
X161996008Y-91123254D01*
X162013072Y-90950000D01*
X162013072Y-90025000D01*
X161996008Y-89851746D01*
X161945472Y-89685150D01*
X161863405Y-89531614D01*
X161752962Y-89397038D01*
X161618386Y-89286595D01*
X161464850Y-89204528D01*
X161298254Y-89153992D01*
X161125000Y-89136928D01*
X159875000Y-89136928D01*
X159701746Y-89153992D01*
X159535150Y-89204528D01*
X159381614Y-89286595D01*
X159247038Y-89397038D01*
X159136595Y-89531614D01*
X159054528Y-89685150D01*
X159022722Y-89790000D01*
X158934702Y-89790000D01*
X158863405Y-89656613D01*
X158752962Y-89522038D01*
X158618387Y-89411595D01*
X158464851Y-89329528D01*
X158298255Y-89278992D01*
X158125001Y-89261928D01*
X156874999Y-89261928D01*
X156701745Y-89278992D01*
X156535149Y-89329528D01*
X156381613Y-89411595D01*
X156247038Y-89522038D01*
X156138072Y-89654813D01*
X156138072Y-89565000D01*
X156125812Y-89440518D01*
X156107454Y-89380000D01*
X156125812Y-89319482D01*
X156138072Y-89195000D01*
X156138072Y-88345187D01*
X156247038Y-88477962D01*
X156381613Y-88588405D01*
X156535149Y-88670472D01*
X156701745Y-88721008D01*
X156874999Y-88738072D01*
X158125001Y-88738072D01*
X158298255Y-88721008D01*
X158464851Y-88670472D01*
X158618387Y-88588405D01*
X158752962Y-88477962D01*
X158863405Y-88343387D01*
X158945472Y-88189851D01*
X158988195Y-88049012D01*
X158986928Y-88225000D01*
X158999188Y-88349482D01*
X159035498Y-88469180D01*
X159094463Y-88579494D01*
X159173815Y-88676185D01*
X159270506Y-88755537D01*
X159380820Y-88814502D01*
X159500518Y-88850812D01*
X159625000Y-88863072D01*
X160214250Y-88860000D01*
X160373000Y-88701250D01*
X160373000Y-87639500D01*
X160627000Y-87639500D01*
X160627000Y-88701250D01*
X160785750Y-88860000D01*
X161375000Y-88863072D01*
X161499482Y-88850812D01*
X161619180Y-88814502D01*
X161729494Y-88755537D01*
X161826185Y-88676185D01*
X161905537Y-88579494D01*
X161964502Y-88469180D01*
X162000812Y-88349482D01*
X162013072Y-88225000D01*
X162010000Y-87798250D01*
X161851250Y-87639500D01*
X160627000Y-87639500D01*
X160373000Y-87639500D01*
X160353000Y-87639500D01*
X160353000Y-87475000D01*
X163736928Y-87475000D01*
X163736928Y-88825000D01*
X163749188Y-88949482D01*
X163785498Y-89069180D01*
X163844463Y-89179494D01*
X163923815Y-89276185D01*
X164020506Y-89355537D01*
X164130820Y-89414502D01*
X164250518Y-89450812D01*
X164375000Y-89463072D01*
X167625000Y-89463072D01*
X167749482Y-89450812D01*
X167869180Y-89414502D01*
X167979494Y-89355537D01*
X168076185Y-89276185D01*
X168155537Y-89179494D01*
X168214502Y-89069180D01*
X168250812Y-88949482D01*
X168263072Y-88825000D01*
X168263072Y-87475000D01*
X168250812Y-87350518D01*
X168214502Y-87230820D01*
X168155537Y-87120506D01*
X168076185Y-87023815D01*
X167979494Y-86944463D01*
X167869180Y-86885498D01*
X167749482Y-86849188D01*
X167625000Y-86836928D01*
X164375000Y-86836928D01*
X164250518Y-86849188D01*
X164130820Y-86885498D01*
X164020506Y-86944463D01*
X163923815Y-87023815D01*
X163844463Y-87120506D01*
X163785498Y-87230820D01*
X163749188Y-87350518D01*
X163736928Y-87475000D01*
X160353000Y-87475000D01*
X160353000Y-87385500D01*
X160373000Y-87385500D01*
X160373000Y-86323750D01*
X160627000Y-86323750D01*
X160627000Y-87385500D01*
X161851250Y-87385500D01*
X162010000Y-87226750D01*
X162013072Y-86800000D01*
X162000812Y-86675518D01*
X161964502Y-86555820D01*
X161915203Y-86463589D01*
X169915000Y-86463589D01*
X169915000Y-86736411D01*
X169968225Y-87003989D01*
X170072629Y-87256043D01*
X170224201Y-87482886D01*
X170417114Y-87675799D01*
X170643957Y-87827371D01*
X170896011Y-87931775D01*
X171163589Y-87985000D01*
X171436411Y-87985000D01*
X171703989Y-87931775D01*
X171956043Y-87827371D01*
X172182886Y-87675799D01*
X172301692Y-87556993D01*
X175022612Y-87556993D01*
X175088137Y-87795860D01*
X175335116Y-87911760D01*
X175599960Y-87977250D01*
X175872492Y-87989812D01*
X176142238Y-87948965D01*
X176398832Y-87856277D01*
X176511863Y-87795860D01*
X176577388Y-87556993D01*
X175800000Y-86779605D01*
X175022612Y-87556993D01*
X172301692Y-87556993D01*
X172375799Y-87482886D01*
X172527371Y-87256043D01*
X172631775Y-87003989D01*
X172685000Y-86736411D01*
X172685000Y-86672492D01*
X174410188Y-86672492D01*
X174451035Y-86942238D01*
X174543723Y-87198832D01*
X174604140Y-87311863D01*
X174843007Y-87377388D01*
X175620395Y-86600000D01*
X175979605Y-86600000D01*
X176756993Y-87377388D01*
X176995860Y-87311863D01*
X177111760Y-87064884D01*
X177177250Y-86800040D01*
X177189812Y-86527508D01*
X177148965Y-86257762D01*
X177056277Y-86001168D01*
X176995860Y-85888137D01*
X176756993Y-85822612D01*
X175979605Y-86600000D01*
X175620395Y-86600000D01*
X174843007Y-85822612D01*
X174604140Y-85888137D01*
X174488240Y-86135116D01*
X174422750Y-86399960D01*
X174410188Y-86672492D01*
X172685000Y-86672492D01*
X172685000Y-86463589D01*
X172631775Y-86196011D01*
X172527371Y-85943957D01*
X172375799Y-85717114D01*
X172301692Y-85643007D01*
X175022612Y-85643007D01*
X175800000Y-86420395D01*
X176577388Y-85643007D01*
X176511863Y-85404140D01*
X176264884Y-85288240D01*
X176000040Y-85222750D01*
X175727508Y-85210188D01*
X175457762Y-85251035D01*
X175201168Y-85343723D01*
X175088137Y-85404140D01*
X175022612Y-85643007D01*
X172301692Y-85643007D01*
X172182886Y-85524201D01*
X171956043Y-85372629D01*
X171703989Y-85268225D01*
X171436411Y-85215000D01*
X171163589Y-85215000D01*
X170896011Y-85268225D01*
X170643957Y-85372629D01*
X170417114Y-85524201D01*
X170224201Y-85717114D01*
X170072629Y-85943957D01*
X169968225Y-86196011D01*
X169915000Y-86463589D01*
X161915203Y-86463589D01*
X161905537Y-86445506D01*
X161826185Y-86348815D01*
X161729494Y-86269463D01*
X161619180Y-86210498D01*
X161499482Y-86174188D01*
X161375000Y-86161928D01*
X160785750Y-86165000D01*
X160627000Y-86323750D01*
X160373000Y-86323750D01*
X160214250Y-86165000D01*
X159625000Y-86161928D01*
X159500518Y-86174188D01*
X159380820Y-86210498D01*
X159270506Y-86269463D01*
X159173815Y-86348815D01*
X159094463Y-86445506D01*
X159035498Y-86555820D01*
X158999188Y-86675518D01*
X158986928Y-86800000D01*
X158987273Y-86847950D01*
X158945472Y-86710149D01*
X158863405Y-86556613D01*
X158752962Y-86422038D01*
X158618387Y-86311595D01*
X158464851Y-86229528D01*
X158298255Y-86178992D01*
X158184166Y-86167755D01*
X158134974Y-86075724D01*
X158040001Y-85959999D01*
X158010998Y-85936197D01*
X157563804Y-85489003D01*
X157540001Y-85459999D01*
X157424276Y-85365026D01*
X157292247Y-85294454D01*
X157148986Y-85250997D01*
X157037333Y-85240000D01*
X157037322Y-85240000D01*
X157000000Y-85236324D01*
X156962678Y-85240000D01*
X150787322Y-85240000D01*
X150749999Y-85236324D01*
X150712676Y-85240000D01*
X150712667Y-85240000D01*
X150601014Y-85250997D01*
X150457753Y-85294454D01*
X150325724Y-85365026D01*
X150209999Y-85459999D01*
X150186196Y-85489003D01*
X149933998Y-85741201D01*
X149905000Y-85764999D01*
X149881202Y-85793997D01*
X149881201Y-85793998D01*
X149810026Y-85880724D01*
X149739454Y-86012754D01*
X149708396Y-86115142D01*
X149625000Y-86106928D01*
X148725000Y-86106928D01*
X148600518Y-86119188D01*
X148540000Y-86137546D01*
X148479482Y-86119188D01*
X148355000Y-86106928D01*
X147455000Y-86106928D01*
X147330518Y-86119188D01*
X147270000Y-86137546D01*
X147209482Y-86119188D01*
X147085000Y-86106928D01*
X146185000Y-86106928D01*
X146060518Y-86119188D01*
X146000000Y-86137546D01*
X145939482Y-86119188D01*
X145815000Y-86106928D01*
X144915000Y-86106928D01*
X144790518Y-86119188D01*
X144730000Y-86137546D01*
X144669482Y-86119188D01*
X144545000Y-86106928D01*
X143645000Y-86106928D01*
X143520518Y-86119188D01*
X143460000Y-86137546D01*
X143399482Y-86119188D01*
X143275000Y-86106928D01*
X142375000Y-86106928D01*
X142250518Y-86119188D01*
X142190000Y-86137546D01*
X142129482Y-86119188D01*
X142005000Y-86106928D01*
X141105000Y-86106928D01*
X140980518Y-86119188D01*
X140920000Y-86137546D01*
X140859482Y-86119188D01*
X140735000Y-86106928D01*
X139835000Y-86106928D01*
X139710518Y-86119188D01*
X139590820Y-86155498D01*
X139480506Y-86214463D01*
X139383815Y-86293815D01*
X139304463Y-86390506D01*
X139245498Y-86500820D01*
X139209188Y-86620518D01*
X139196928Y-86745000D01*
X139196928Y-88745000D01*
X139209188Y-88869482D01*
X139245498Y-88989180D01*
X139304463Y-89099494D01*
X139383815Y-89196185D01*
X139455482Y-89255000D01*
X139132163Y-89255000D01*
X139138072Y-89195000D01*
X139138072Y-88295000D01*
X139125812Y-88170518D01*
X139089502Y-88050820D01*
X139030537Y-87940506D01*
X138951185Y-87843815D01*
X138854494Y-87764463D01*
X138744180Y-87705498D01*
X138624482Y-87669188D01*
X138500000Y-87656928D01*
X136500000Y-87656928D01*
X136375518Y-87669188D01*
X136255820Y-87705498D01*
X136145506Y-87764463D01*
X136048815Y-87843815D01*
X136033917Y-87861968D01*
X135990256Y-87832795D01*
X135801898Y-87754774D01*
X135601939Y-87715000D01*
X135398061Y-87715000D01*
X135198102Y-87754774D01*
X135009744Y-87832795D01*
X134840226Y-87946063D01*
X134696063Y-88090226D01*
X134582795Y-88259744D01*
X134504774Y-88448102D01*
X134465000Y-88648061D01*
X134465000Y-88851939D01*
X134504774Y-89051898D01*
X134582795Y-89240256D01*
X134696063Y-89409774D01*
X134840226Y-89553937D01*
X135009744Y-89667205D01*
X135198102Y-89745226D01*
X135398061Y-89785000D01*
X135601939Y-89785000D01*
X135801898Y-89745226D01*
X135861928Y-89720361D01*
X135861928Y-90465000D01*
X135874188Y-90589482D01*
X135892546Y-90650000D01*
X135874188Y-90710518D01*
X135861928Y-90835000D01*
X135861928Y-91735000D01*
X135874188Y-91859482D01*
X135892546Y-91920000D01*
X135874188Y-91980518D01*
X135861928Y-92105000D01*
X135861928Y-93005000D01*
X135874188Y-93129482D01*
X135892546Y-93190000D01*
X135874188Y-93250518D01*
X135861928Y-93375000D01*
X135861928Y-94275000D01*
X135874188Y-94399482D01*
X135892546Y-94460000D01*
X135874188Y-94520518D01*
X135861928Y-94645000D01*
X135861928Y-95545000D01*
X135874188Y-95669482D01*
X135892546Y-95730000D01*
X135874188Y-95790518D01*
X135861928Y-95915000D01*
X135861928Y-96815000D01*
X135874188Y-96939482D01*
X135892546Y-97000000D01*
X135874188Y-97060518D01*
X135861928Y-97185000D01*
X135861928Y-98085000D01*
X135867837Y-98145000D01*
X133632323Y-98145000D01*
X133595000Y-98141324D01*
X133557677Y-98145000D01*
X133557667Y-98145000D01*
X133446014Y-98155997D01*
X133302753Y-98199454D01*
X133170724Y-98270026D01*
X133054999Y-98364999D01*
X133031201Y-98393997D01*
X130739003Y-100686196D01*
X130709999Y-100709999D01*
X130660000Y-100770924D01*
X130660000Y-96088967D01*
X132365000Y-96088967D01*
X132365000Y-96411033D01*
X132427832Y-96726912D01*
X132551082Y-97024463D01*
X132730013Y-97292252D01*
X132957748Y-97519987D01*
X133225537Y-97698918D01*
X133523088Y-97822168D01*
X133838967Y-97885000D01*
X134161033Y-97885000D01*
X134476912Y-97822168D01*
X134774463Y-97698918D01*
X135042252Y-97519987D01*
X135269987Y-97292252D01*
X135448918Y-97024463D01*
X135572168Y-96726912D01*
X135635000Y-96411033D01*
X135635000Y-96088967D01*
X135572168Y-95773088D01*
X135448918Y-95475537D01*
X135269987Y-95207748D01*
X135042252Y-94980013D01*
X134774463Y-94801082D01*
X134476912Y-94677832D01*
X134161033Y-94615000D01*
X133838967Y-94615000D01*
X133523088Y-94677832D01*
X133225537Y-94801082D01*
X132957748Y-94980013D01*
X132730013Y-95207748D01*
X132551082Y-95475537D01*
X132427832Y-95773088D01*
X132365000Y-96088967D01*
X130660000Y-96088967D01*
X130660000Y-85127000D01*
X179340000Y-85127000D01*
X179340001Y-124873000D01*
G37*
%TD.AperFunction*%
D24*
X153402753Y-110800546D02*
X153546014Y-110844003D01*
X153657667Y-110855000D01*
X153657676Y-110855000D01*
X153694999Y-110858676D01*
X153732322Y-110855000D01*
X156519374Y-110855000D01*
X156482795Y-110909744D01*
X156404774Y-111098102D01*
X156365000Y-111298061D01*
X156365000Y-111501939D01*
X156404774Y-111701898D01*
X156482795Y-111890256D01*
X156596063Y-112059774D01*
X156740226Y-112203937D01*
X156909744Y-112317205D01*
X157098102Y-112395226D01*
X157298061Y-112435000D01*
X157501939Y-112435000D01*
X157701898Y-112395226D01*
X157890256Y-112317205D01*
X157941775Y-112282781D01*
X157927071Y-112331255D01*
X157911928Y-112485000D01*
X157911928Y-112785000D01*
X157927071Y-112938745D01*
X157971916Y-113086582D01*
X158003141Y-113145000D01*
X155692804Y-113145000D01*
X153285877Y-110738073D01*
X153402753Y-110800546D01*
%TA.AperFunction,Conductor*%
D25*
G36*
X153402753Y-110800546D02*
G01*
X153546014Y-110844003D01*
X153657667Y-110855000D01*
X153657676Y-110855000D01*
X153694999Y-110858676D01*
X153732322Y-110855000D01*
X156519374Y-110855000D01*
X156482795Y-110909744D01*
X156404774Y-111098102D01*
X156365000Y-111298061D01*
X156365000Y-111501939D01*
X156404774Y-111701898D01*
X156482795Y-111890256D01*
X156596063Y-112059774D01*
X156740226Y-112203937D01*
X156909744Y-112317205D01*
X157098102Y-112395226D01*
X157298061Y-112435000D01*
X157501939Y-112435000D01*
X157701898Y-112395226D01*
X157890256Y-112317205D01*
X157941775Y-112282781D01*
X157927071Y-112331255D01*
X157911928Y-112485000D01*
X157911928Y-112785000D01*
X157927071Y-112938745D01*
X157971916Y-113086582D01*
X158003141Y-113145000D01*
X155692804Y-113145000D01*
X153285877Y-110738073D01*
X153402753Y-110800546D01*
G37*
%TD.AperFunction*%
D24*
X156003992Y-86876745D02*
X155986928Y-87049999D01*
X155986928Y-87850001D01*
X155991110Y-87892464D01*
X155951185Y-87843815D01*
X155854494Y-87764463D01*
X155744180Y-87705498D01*
X155624482Y-87669188D01*
X155500000Y-87656928D01*
X153500000Y-87656928D01*
X153375518Y-87669188D01*
X153255820Y-87705498D01*
X153145506Y-87764463D01*
X153048815Y-87843815D01*
X152969463Y-87940506D01*
X152910498Y-88050820D01*
X152874188Y-88170518D01*
X152861928Y-88295000D01*
X152861928Y-89195000D01*
X152874188Y-89319482D01*
X152892546Y-89380000D01*
X152874188Y-89440518D01*
X152861928Y-89565000D01*
X152861928Y-90465000D01*
X152874188Y-90589482D01*
X152892546Y-90650000D01*
X152874188Y-90710518D01*
X152861928Y-90835000D01*
X152861928Y-91735000D01*
X152874188Y-91859482D01*
X152892546Y-91920000D01*
X152874188Y-91980518D01*
X152861928Y-92105000D01*
X152861928Y-92537126D01*
X151098804Y-90774003D01*
X151075001Y-90744999D01*
X150959276Y-90650026D01*
X150827247Y-90579454D01*
X150683986Y-90535997D01*
X150572333Y-90525000D01*
X150572322Y-90525000D01*
X150535000Y-90521324D01*
X150497678Y-90525000D01*
X143139013Y-90525000D01*
X143152205Y-90505256D01*
X143230226Y-90316898D01*
X143270000Y-90116939D01*
X143270000Y-89913061D01*
X143230226Y-89713102D01*
X143152205Y-89524744D01*
X143057543Y-89383072D01*
X143275000Y-89383072D01*
X143399482Y-89370812D01*
X143460000Y-89352454D01*
X143520518Y-89370812D01*
X143645000Y-89383072D01*
X144545000Y-89383072D01*
X144669482Y-89370812D01*
X144730000Y-89352454D01*
X144790518Y-89370812D01*
X144915000Y-89383072D01*
X145815000Y-89383072D01*
X145939482Y-89370812D01*
X146000000Y-89352454D01*
X146060518Y-89370812D01*
X146185000Y-89383072D01*
X147085000Y-89383072D01*
X147209482Y-89370812D01*
X147270000Y-89352454D01*
X147330518Y-89370812D01*
X147455000Y-89383072D01*
X148355000Y-89383072D01*
X148479482Y-89370812D01*
X148540000Y-89352454D01*
X148600518Y-89370812D01*
X148725000Y-89383072D01*
X149625000Y-89383072D01*
X149749482Y-89370812D01*
X149810000Y-89352454D01*
X149870518Y-89370812D01*
X149995000Y-89383072D01*
X150895000Y-89383072D01*
X151019482Y-89370812D01*
X151080000Y-89352454D01*
X151140518Y-89370812D01*
X151265000Y-89383072D01*
X151429250Y-89380000D01*
X151588000Y-89221250D01*
X151588000Y-87872000D01*
X151842000Y-87872000D01*
X151842000Y-89221250D01*
X152000750Y-89380000D01*
X152165000Y-89383072D01*
X152289482Y-89370812D01*
X152409180Y-89334502D01*
X152519494Y-89275537D01*
X152616185Y-89196185D01*
X152695537Y-89099494D01*
X152754502Y-88989180D01*
X152790812Y-88869482D01*
X152803072Y-88745000D01*
X152800000Y-88030750D01*
X152641250Y-87872000D01*
X151842000Y-87872000D01*
X151588000Y-87872000D01*
X151568000Y-87872000D01*
X151568000Y-87618000D01*
X151588000Y-87618000D01*
X151588000Y-87598000D01*
X151842000Y-87598000D01*
X151842000Y-87618000D01*
X152641250Y-87618000D01*
X152800000Y-87459250D01*
X152803007Y-86760000D01*
X156039406Y-86760000D01*
X156003992Y-86876745D01*
%TA.AperFunction,Conductor*%
D25*
G36*
X156003992Y-86876745D02*
G01*
X155986928Y-87049999D01*
X155986928Y-87850001D01*
X155991110Y-87892464D01*
X155951185Y-87843815D01*
X155854494Y-87764463D01*
X155744180Y-87705498D01*
X155624482Y-87669188D01*
X155500000Y-87656928D01*
X153500000Y-87656928D01*
X153375518Y-87669188D01*
X153255820Y-87705498D01*
X153145506Y-87764463D01*
X153048815Y-87843815D01*
X152969463Y-87940506D01*
X152910498Y-88050820D01*
X152874188Y-88170518D01*
X152861928Y-88295000D01*
X152861928Y-89195000D01*
X152874188Y-89319482D01*
X152892546Y-89380000D01*
X152874188Y-89440518D01*
X152861928Y-89565000D01*
X152861928Y-90465000D01*
X152874188Y-90589482D01*
X152892546Y-90650000D01*
X152874188Y-90710518D01*
X152861928Y-90835000D01*
X152861928Y-91735000D01*
X152874188Y-91859482D01*
X152892546Y-91920000D01*
X152874188Y-91980518D01*
X152861928Y-92105000D01*
X152861928Y-92537126D01*
X151098804Y-90774003D01*
X151075001Y-90744999D01*
X150959276Y-90650026D01*
X150827247Y-90579454D01*
X150683986Y-90535997D01*
X150572333Y-90525000D01*
X150572322Y-90525000D01*
X150535000Y-90521324D01*
X150497678Y-90525000D01*
X143139013Y-90525000D01*
X143152205Y-90505256D01*
X143230226Y-90316898D01*
X143270000Y-90116939D01*
X143270000Y-89913061D01*
X143230226Y-89713102D01*
X143152205Y-89524744D01*
X143057543Y-89383072D01*
X143275000Y-89383072D01*
X143399482Y-89370812D01*
X143460000Y-89352454D01*
X143520518Y-89370812D01*
X143645000Y-89383072D01*
X144545000Y-89383072D01*
X144669482Y-89370812D01*
X144730000Y-89352454D01*
X144790518Y-89370812D01*
X144915000Y-89383072D01*
X145815000Y-89383072D01*
X145939482Y-89370812D01*
X146000000Y-89352454D01*
X146060518Y-89370812D01*
X146185000Y-89383072D01*
X147085000Y-89383072D01*
X147209482Y-89370812D01*
X147270000Y-89352454D01*
X147330518Y-89370812D01*
X147455000Y-89383072D01*
X148355000Y-89383072D01*
X148479482Y-89370812D01*
X148540000Y-89352454D01*
X148600518Y-89370812D01*
X148725000Y-89383072D01*
X149625000Y-89383072D01*
X149749482Y-89370812D01*
X149810000Y-89352454D01*
X149870518Y-89370812D01*
X149995000Y-89383072D01*
X150895000Y-89383072D01*
X151019482Y-89370812D01*
X151080000Y-89352454D01*
X151140518Y-89370812D01*
X151265000Y-89383072D01*
X151429250Y-89380000D01*
X151588000Y-89221250D01*
X151588000Y-87872000D01*
X151842000Y-87872000D01*
X151842000Y-89221250D01*
X152000750Y-89380000D01*
X152165000Y-89383072D01*
X152289482Y-89370812D01*
X152409180Y-89334502D01*
X152519494Y-89275537D01*
X152616185Y-89196185D01*
X152695537Y-89099494D01*
X152754502Y-88989180D01*
X152790812Y-88869482D01*
X152803072Y-88745000D01*
X152800000Y-88030750D01*
X152641250Y-87872000D01*
X151842000Y-87872000D01*
X151588000Y-87872000D01*
X151568000Y-87872000D01*
X151568000Y-87618000D01*
X151588000Y-87618000D01*
X151588000Y-87598000D01*
X151842000Y-87598000D01*
X151842000Y-87618000D01*
X152641250Y-87618000D01*
X152800000Y-87459250D01*
X152803007Y-86760000D01*
X156039406Y-86760000D01*
X156003992Y-86876745D01*
G37*
%TD.AperFunction*%
%TD*%
M02*
