M48
; DRILL file {KiCad 5.1.10-88a1d61d58~88~ubuntu20.04.1} date Sat Oct  9 14:41:37 2021
; FORMAT={-:-/ absolute / metric / decimal}
; #@! TF.CreationDate,2021-10-09T14:41:37+11:00
; #@! TF.GenerationSoftware,Kicad,Pcbnew,5.1.10-88a1d61d58~88~ubuntu20.04.1
; #@! TF.FileFunction,Plated,1,2,PTH
FMAT,2
METRIC
T1C0.400
T2C1.000
%
G90
G05
T1
X134.0Y-96.25
X134.0Y-113.75
X134.6Y-99.9
X135.5Y-88.75
X135.5Y-105.0
X139.9Y-113.9
X140.0Y-93.5
X141.6Y-116.0
X142.235Y-90.015
X142.6Y-95.0
X145.0Y-102.75
X145.5Y-96.25
X145.5Y-97.75
X145.5Y-99.25
X147.0Y-96.25
X147.0Y-97.75
X147.0Y-99.25
X147.1Y-111.9
X147.5Y-104.0
X148.5Y-96.25
X148.5Y-97.75
X148.5Y-99.25
X150.4Y-101.2
X151.0Y-111.6
X151.75Y-90.0
X154.5Y-122.0
X156.4Y-112.6
X156.45Y-107.55
X156.6Y-92.6
X156.6Y-94.0
X157.4Y-111.4
X158.7Y-92.6
X159.3Y-118.3
X160.0Y-107.0
X160.3Y-94.1
X162.25Y-86.0
X162.75Y-121.5
X167.5Y-105.0
X168.5Y-116.0
X170.04Y-104.96
X172.0Y-97.75
X174.25Y-98.25
X176.0Y-96.25
X176.0Y-113.75
X176.75Y-99.75
T2
X144.21Y-122.5
X146.75Y-122.5
X165.5Y-119.5
X168.04Y-119.5
X170.58Y-119.5
X171.3Y-86.6
X171.3Y-93.1
X173.12Y-119.5
X175.8Y-86.6
X175.8Y-93.1
T0
M30
